G04 ================== begin FILE IDENTIFICATION RECORD ==================*
G04 Layout Name:  BD71815GW_v4.brd*
G04 Film Name:    57537-BD71815GW_v4.gtl*
G04 File Format:  Gerber RS274X*
G04 File Origin:  Cadence Allegro 16.6-S012*
G04 Origin Date:  Tue Feb 02 09:15:57 2016*
G04 *
G04 Layer:  VIA CLASS/TOP*
G04 Layer:  PIN/TOP*
G04 Layer:  ETCH/TOP*
G04 *
G04 Offset:    (0.0000 0.0000)*
G04 Mirror:    No*
G04 Mode:      Positive*
G04 Rotation:  0*
G04 FullContactRelief:  No*
G04 UndefLineWidth:     0.0000*
G04 ================== end FILE IDENTIFICATION RECORD ====================*
%FSLAX25Y25*MOMM*%
%IR0*IPPOS*OFA0.00000B0.00000*MIA0B0*SFA1.00000B1.00000*%
%ADD27R,.8X1.1*%
%ADD23R,1.1X.8*%
%ADD16R,.8X1.1*%
%ADD12C,.6*%
%ADD29R,2.8X.55*%
%ADD28C,.275*%
%ADD21R,.8X.8*%
%ADD15R,2.X1.1*%
%ADD17R,1.8X1.*%
%ADD25R,1.15X1.05*%
%ADD19R,1.6X1.05*%
%ADD18R,1.05X1.6*%
%ADD22R,.3X.7*%
%ADD10C,3.2*%
%ADD24R,.6X.45*%
%ADD26R,.85X.3*%
%ADD14R,.5X.85*%
%ADD11R,2.X2.*%
%ADD20R,.85X.5*%
%ADD13R,1.2X1.2*%
%ADD30C,.3*%
%ADD31C,.5*%
%ADD32C,.25*%
%ADD33C,.8*%
%ADD34C,.127*%
%ADD35C,1.*%
G75*
%LPD*%
G75*
G36*
G01X735020Y55090D02*
Y564120D01*
G03X733530Y567710I-5080J-4D01*
G01X567710Y733530D01*
G03X564120Y735020I-3594J-3590D01*
G01X55090D01*
G02X50010Y740100I0J5080D01*
G01Y5259900D01*
G02X55090Y5264980I5080J0D01*
G01X564120D01*
G03X567710Y5266470I-4J5080D01*
G01X733530Y5432290D01*
G03X735020Y5435880I-3590J3594D01*
G01Y5944910D01*
G02X740100Y5949990I5080J0D01*
G01X5259900D01*
G02X5264980Y5944910I0J-5080D01*
G01Y5435880D01*
G03X5266470Y5432290I5080J4D01*
G01X5432290Y5266470D01*
G03X5435880Y5264980I3594J3590D01*
G01X5944910D01*
G02X5949990Y5259900I0J-5080D01*
G01Y740100D01*
G02X5944910Y735020I-5080J0D01*
G01X5435880D01*
G03X5432290Y733530I4J-5080D01*
G01X5266470Y567710D01*
G03X5264980Y564120I3590J-3594D01*
G01Y55090D01*
G02X5259900Y50010I-5080J0D01*
G01X740100D01*
G02X735020Y55090I0J5080D01*
G37*
%LPC*%
G75*
G36*
G01X1147040Y347140D02*
X1142380Y337650D01*
X1142670Y334760D01*
X1143560Y333610D01*
G02X1056440I-43560J-33610D01*
G01X1057330Y334760D01*
X1057620Y337650D01*
X1052960Y347140D01*
G03X1048400Y349980I-4560J-2241D01*
G01X980060D01*
G02X974980Y355060I0J5080D01*
G01Y594940D01*
G02X980060Y600020I5080J0D01*
G01X1219940D01*
G02X1225020Y594940I0J-5080D01*
G01Y355060D01*
G02X1219940Y349980I-5080J0D01*
G01X1151600D01*
G03X1147040Y347140I0J-5081D01*
G37*
G36*
G01X1547040D02*
X1542380Y337650D01*
X1542670Y334760D01*
X1543560Y333610D01*
G02X1456440I-43560J-33610D01*
G01X1457330Y334760D01*
X1457620Y337650D01*
X1452960Y347140D01*
G03X1448400Y349980I-4560J-2241D01*
G01X1380060D01*
G02X1374980Y355060I0J5080D01*
G01Y594940D01*
G02X1380060Y600020I5080J0D01*
G01X1619940D01*
G02X1625020Y594940I0J-5080D01*
G01Y355060D01*
G02X1619940Y349980I-5080J0D01*
G01X1551600D01*
G03X1547040Y347140I0J-5081D01*
G37*
G36*
G01X1947040D02*
X1942380Y337650D01*
X1942670Y334760D01*
X1943560Y333610D01*
G02X1856440I-43560J-33610D01*
G01X1857330Y334760D01*
X1857620Y337650D01*
X1852960Y347140D01*
G03X1848400Y349980I-4560J-2241D01*
G01X1780060D01*
G02X1774980Y355060I0J5080D01*
G01Y594940D01*
G02X1780060Y600020I5080J0D01*
G01X2019940D01*
G02X2025020Y594940I0J-5080D01*
G01Y355060D01*
G02X2019940Y349980I-5080J0D01*
G01X1951600D01*
G03X1947040Y347140I0J-5081D01*
G37*
G36*
G01X3847040D02*
X3842380Y337650D01*
X3842670Y334760D01*
X3843560Y333610D01*
G02X3756440I-43560J-33610D01*
G01X3757330Y334760D01*
X3757620Y337650D01*
X3752960Y347140D01*
G03X3748400Y349980I-4560J-2241D01*
G01X3680060D01*
G02X3674980Y355060I0J5080D01*
G01Y594940D01*
G02X3680060Y600020I5080J0D01*
G01X3919940D01*
G02X3925020Y594940I0J-5080D01*
G01Y355060D01*
G02X3919940Y349980I-5080J0D01*
G01X3851600D01*
G03X3847040Y347140I0J-5081D01*
G37*
G36*
G01X4247040D02*
X4242380Y337650D01*
X4242670Y334760D01*
X4243560Y333610D01*
G02X4156440I-43560J-33610D01*
G01X4157330Y334760D01*
X4157620Y337650D01*
X4152960Y347140D01*
G03X4148400Y349980I-4560J-2241D01*
G01X4080060D01*
G02X4074980Y355060I0J5080D01*
G01Y594940D01*
G02X4080060Y600020I5080J0D01*
G01X4319940D01*
G02X4325020Y594940I0J-5080D01*
G01Y355060D01*
G02X4319940Y349980I-5080J0D01*
G01X4251600D01*
G03X4247040Y347140I0J-5081D01*
G37*
G36*
G01X4647040D02*
X4642380Y337650D01*
X4642670Y334760D01*
X4643560Y333610D01*
G02X4556440I-43560J-33610D01*
G01X4557330Y334760D01*
X4557620Y337650D01*
X4552960Y347140D01*
G03X4548400Y349980I-4560J-2241D01*
G01X4480060D01*
G02X4474980Y355060I0J5080D01*
G01Y594940D01*
G02X4480060Y600020I5080J0D01*
G01X4719940D01*
G02X4725020Y594940I0J-5080D01*
G01Y355060D01*
G02X4719940Y349980I-5080J0D01*
G01X4651600D01*
G03X4647040Y347140I0J-5081D01*
G37*
G36*
G01X5097040D02*
X5092380Y337650D01*
X5092670Y334760D01*
X5093560Y333610D01*
G02X5006440I-43560J-33610D01*
G01X5007330Y334760D01*
X5007620Y337650D01*
X5002960Y347140D01*
G03X4998400Y349980I-4560J-2241D01*
G01X4930060D01*
G02X4924980Y355060I0J5080D01*
G01Y594940D01*
G02X4930060Y600020I5080J0D01*
G01X5169940D01*
G02X5175020Y594940I0J-5080D01*
G01Y355060D01*
G02X5169940Y349980I-5080J0D01*
G01X5101600D01*
G03X5097040Y347140I0J-5081D01*
G37*
G36*
G01X5650020Y1419940D02*
Y1180060D01*
G02X5644940Y1174980I-5080J0D01*
G01X5405060D01*
G02X5399980Y1180060I0J5080D01*
G01Y1248400D01*
G03X5397140Y1252960I-5081J0D01*
G01X5387650Y1257620D01*
X5384760Y1257330D01*
X5383610Y1256440D01*
G02Y1343560I-33610J43560D01*
G01X5384760Y1342670D01*
X5387650Y1342380D01*
X5397140Y1347040D01*
G03X5399980Y1351600I-2241J4560D01*
G01Y1419940D01*
G02X5405060Y1425020I5080J0D01*
G01X5644940D01*
G02X5650020Y1419940I0J-5080D01*
G37*
G36*
G01X4827440Y1329980D02*
X4825020Y1327560D01*
G02X4819940Y1322480I-5080J0D01*
G01X4500060D01*
G02X4494980Y1327560I0J5080D01*
G01Y1422440D01*
G02X4500060Y1427520I5080J0D01*
G01X4819940D01*
G02X4825020Y1422440I0J-5080D01*
G01X4827440Y1420020D01*
X4861750D01*
G03X4865340Y1421510I-4J5080D01*
G01X4873490Y1429660D01*
G03X4874980Y1433250I-3590J3594D01*
G01Y1602060D01*
X4874560Y1603030D01*
G02X4975440I50440J21970D01*
G01X4975020Y1602060D01*
Y1355060D01*
G02X4969940Y1349980I-5080J0D01*
G01X4923250D01*
G03X4919660Y1348490I4J-5080D01*
G01X4902640Y1331470D01*
G02X4899040Y1329980I-3594J3590D01*
G01X4827440D01*
G37*
G36*
G01X5650020Y1819940D02*
Y1580060D01*
G02X5644940Y1574980I-5080J0D01*
G01X5405060D01*
G02X5399980Y1580060I0J5080D01*
G01Y1648400D01*
G03X5397140Y1652960I-5081J0D01*
G01X5387650Y1657620D01*
X5384760Y1657330D01*
X5383610Y1656440D01*
G02Y1743560I-33610J43560D01*
G01X5384760Y1742670D01*
X5387650Y1742380D01*
X5397140Y1747040D01*
G03X5399980Y1751600I-2241J4560D01*
G01Y1819940D01*
G02X5405060Y1825020I5080J0D01*
G01X5644940D01*
G02X5650020Y1819940I0J-5080D01*
G37*
G36*
G01X600020Y1948400D02*
Y1880060D01*
G02X594940Y1874980I-5080J0D01*
G01X355060D01*
G02X349980Y1880060I0J5080D01*
G01Y2119940D01*
G02X355060Y2125020I5080J0D01*
G01X594940D01*
G02X600020Y2119940I0J-5080D01*
G01Y2051600D01*
G03X602860Y2047040I5081J0D01*
G01X612350Y2042380D01*
X615240Y2042670D01*
X616390Y2043560D01*
G02Y1956440I33610J-43560D01*
G01X615240Y1957330D01*
X612350Y1957620D01*
X602860Y1952960D01*
G03X600020Y1948400I2241J-4560D01*
G37*
G36*
G01X3904940Y1949980D02*
X3760440D01*
X3759470Y1949560D01*
G02Y2050440I-21970J50440D01*
G01X3760440Y2050020D01*
X3904940D01*
G02X3910020Y2044940I0J-5080D01*
G01Y1955060D01*
G02X3904940Y1949980I-5080J0D01*
G37*
G36*
G01X5650020Y2219940D02*
Y1980060D01*
G02X5644940Y1974980I-5080J0D01*
G01X5405060D01*
G02X5399980Y1980060I0J5080D01*
G01Y2048400D01*
G03X5397140Y2052960I-5081J0D01*
G01X5387650Y2057620D01*
X5384760Y2057330D01*
X5383610Y2056440D01*
G02Y2143560I-33610J43560D01*
G01X5384760Y2142670D01*
X5387650Y2142380D01*
X5397140Y2147040D01*
G03X5399980Y2151600I-2241J4560D01*
G01Y2219940D01*
G02X5405060Y2225020I5080J0D01*
G01X5644940D01*
G02X5650020Y2219940I0J-5080D01*
G37*
G36*
G01X3904940Y2074980D02*
X3760440D01*
X3759470Y2074560D01*
G02Y2175440I-21970J50440D01*
G01X3760440Y2175020D01*
X3904940D01*
G02X3910020Y2169940I0J-5080D01*
G01Y2080060D01*
G02X3904940Y2074980I-5080J0D01*
G37*
G36*
G01X4027060Y2199980D02*
X3760440D01*
X3759470Y2199560D01*
G02Y2300440I-21970J50440D01*
G01X3760440Y2300020D01*
X4027060D01*
X4028030Y2300440D01*
G02Y2199560I21970J-50440D01*
G01X4027060Y2199980D01*
G37*
G36*
G01X3904940Y2324980D02*
X3760440D01*
X3759470Y2324560D01*
G02Y2425440I-21970J50440D01*
G01X3760440Y2425020D01*
X3904940D01*
G02X3910020Y2419940I0J-5080D01*
G01Y2330060D01*
G02X3904940Y2324980I-5080J0D01*
G37*
G36*
G01X5650020Y2619940D02*
Y2380060D01*
G02X5644940Y2374980I-5080J0D01*
G01X5405060D01*
G02X5399980Y2380060I0J5080D01*
G01Y2448400D01*
G03X5397140Y2452960I-5081J0D01*
G01X5387650Y2457620D01*
X5384760Y2457330D01*
X5383610Y2456440D01*
G02Y2543560I-33610J43560D01*
G01X5384760Y2542670D01*
X5387650Y2542380D01*
X5397140Y2547040D01*
G03X5399980Y2551600I-2241J4560D01*
G01Y2619940D01*
G02X5405060Y2625020I5080J0D01*
G01X5644940D01*
G02X5650020Y2619940I0J-5080D01*
G37*
G36*
G01X3904940Y2449980D02*
X3760440D01*
X3759470Y2449560D01*
G02Y2550440I-21970J50440D01*
G01X3760440Y2550020D01*
X3904940D01*
G02X3910020Y2544940I0J-5080D01*
G01Y2455060D01*
G02X3904940Y2449980I-5080J0D01*
G37*
G36*
G01X5650020Y3019940D02*
Y2780060D01*
G02X5644940Y2774980I-5080J0D01*
G01X5405060D01*
G02X5399980Y2780060I0J5080D01*
G01Y2848400D01*
G03X5397140Y2852960I-5081J0D01*
G01X5387650Y2857620D01*
X5384760Y2857330D01*
X5383610Y2856440D01*
G02Y2943560I-33610J43560D01*
G01X5384760Y2942670D01*
X5387650Y2942380D01*
X5397140Y2947040D01*
G03X5399980Y2951600I-2241J4560D01*
G01Y3019940D01*
G02X5405060Y3025020I5080J0D01*
G01X5644940D01*
G02X5650020Y3019940I0J-5080D01*
G37*
G36*
G01X600020Y2948400D02*
Y2880060D01*
G02X594940Y2874980I-5080J0D01*
G01X355060D01*
G02X349980Y2880060I0J5080D01*
G01Y3119940D01*
G02X355060Y3125020I5080J0D01*
G01X594940D01*
G02X600020Y3119940I0J-5080D01*
G01Y3051600D01*
G03X602860Y3047040I5081J0D01*
G01X612350Y3042380D01*
X615240Y3042670D01*
X616390Y3043560D01*
G02Y2956440I33610J-43560D01*
G01X615240Y2957330D01*
X612350Y2957620D01*
X602860Y2952960D01*
G03X600020Y2948400I2241J-4560D01*
G37*
G36*
G01X3904940Y3224980D02*
X3760440D01*
X3759470Y3224560D01*
G02Y3325440I-21970J50440D01*
G01X3760440Y3325020D01*
X3904940D01*
G02X3910020Y3319940I0J-5080D01*
G01Y3230060D01*
G02X3904940Y3224980I-5080J0D01*
G37*
G36*
G01Y3349980D02*
X3760440D01*
X3759470Y3349560D01*
G02Y3450440I-21970J50440D01*
G01X3760440Y3450020D01*
X3904940D01*
G02X3910020Y3444940I0J-5080D01*
G01Y3355060D01*
G02X3904940Y3349980I-5080J0D01*
G37*
G36*
G01X600020Y3448400D02*
Y3380060D01*
G02X594940Y3374980I-5080J0D01*
G01X355060D01*
G02X349980Y3380060I0J5080D01*
G01Y3619940D01*
G02X355060Y3625020I5080J0D01*
G01X594940D01*
G02X600020Y3619940I0J-5080D01*
G01Y3551600D01*
G03X602860Y3547040I5081J0D01*
G01X612350Y3542380D01*
X615240Y3542670D01*
X616390Y3543560D01*
G02Y3456440I33610J-43560D01*
G01X615240Y3457330D01*
X612350Y3457620D01*
X602860Y3452960D01*
G03X600020Y3448400I2241J-4560D01*
G37*
G36*
G01X3904940Y3474980D02*
X3760440D01*
X3759470Y3474560D01*
G02Y3575440I-21970J50440D01*
G01X3760440Y3575020D01*
X3904940D01*
G02X3910020Y3569940I0J-5080D01*
G01Y3480060D01*
G02X3904940Y3474980I-5080J0D01*
G37*
G36*
G01Y3599980D02*
X3760440D01*
X3759470Y3599560D01*
G02Y3700440I-21970J50440D01*
G01X3760440Y3700020D01*
X3834430D01*
G03X3838020Y3701510I-4J5080D01*
G01X3852820Y3716310D01*
G03X3853930Y3721850I-3586J3600D01*
G01X3853340Y3723270D01*
X3850780Y3724980D01*
X3760440D01*
X3759470Y3724560D01*
G02Y3825440I-21970J50440D01*
G01X3760440Y3825020D01*
X4019940D01*
G02X4025020Y3819940I0J-5080D01*
G01Y3730060D01*
G02X4019940Y3724980I-5080J0D01*
G01X3955570D01*
G03X3951980Y3723490I4J-5080D01*
G01X3911510Y3683020D01*
G03X3910020Y3679430I3590J-3594D01*
G01Y3605060D01*
G02X3904940Y3599980I-5080J0D01*
G37*
G36*
G01X5650020Y3869940D02*
Y3630060D01*
G02X5644940Y3624980I-5080J0D01*
G01X5405060D01*
G02X5399980Y3630060I0J5080D01*
G01Y3698400D01*
G03X5397140Y3702960I-5081J0D01*
G01X5387650Y3707620D01*
X5384760Y3707330D01*
X5383610Y3706440D01*
G02Y3793560I-33610J43560D01*
G01X5384760Y3792670D01*
X5387650Y3792380D01*
X5397140Y3797040D01*
G03X5399980Y3801600I-2241J4560D01*
G01Y3869940D01*
G02X5405060Y3875020I5080J0D01*
G01X5644940D01*
G02X5650020Y3869940I0J-5080D01*
G37*
G36*
G01X600020Y3924900D02*
Y3880060D01*
G02X594940Y3874980I-5080J0D01*
G01X355060D01*
G02X349980Y3880060I0J5080D01*
G01Y4119940D01*
G02X355060Y4125020I5080J0D01*
G01X594940D01*
G02X600020Y4119940I0J-5080D01*
G01Y4075100D01*
G03X605100Y4070020I5080J0D01*
G01X725000D01*
G02Y3929980I0J-70020D01*
G01X605100D01*
G03X600020Y3924900I0J-5080D01*
G37*
G36*
G01X5650020Y4269940D02*
Y4030060D01*
G02X5644940Y4024980I-5080J0D01*
G01X5405060D01*
G02X5399980Y4030060I0J5080D01*
G01Y4098400D01*
G03X5397140Y4102960I-5081J0D01*
G01X5387650Y4107620D01*
X5384760Y4107330D01*
X5383610Y4106440D01*
G02Y4193560I-33610J43560D01*
G01X5384760Y4192670D01*
X5387650Y4192380D01*
X5397140Y4197040D01*
G03X5399980Y4201600I-2241J4560D01*
G01Y4269940D01*
G02X5405060Y4275020I5080J0D01*
G01X5644940D01*
G02X5650020Y4269940I0J-5080D01*
G37*
G36*
G01Y4669940D02*
Y4430060D01*
G02X5644940Y4424980I-5080J0D01*
G01X5405060D01*
G02X5399980Y4430060I0J5080D01*
G01Y4498400D01*
G03X5397140Y4502960I-5081J0D01*
G01X5387650Y4507620D01*
X5384760Y4507330D01*
X5383610Y4506440D01*
G02Y4593560I-33610J43560D01*
G01X5384760Y4592670D01*
X5387650Y4592380D01*
X5397140Y4597040D01*
G03X5399980Y4601600I-2241J4560D01*
G01Y4669940D01*
G02X5405060Y4675020I5080J0D01*
G01X5644940D01*
G02X5650020Y4669940I0J-5080D01*
G37*
G36*
G01X3425020Y4850020D02*
Y4585440D01*
X3425440Y4584470D01*
G02X3324560I-50440J-21970D01*
G01X3324980Y4585440D01*
Y4847050D01*
X3329980Y4852050D01*
Y4922400D01*
G03X3324900Y4927480I-5080J0D01*
G01X3315060D01*
G02X3309980Y4932560I0J5080D01*
G01Y5057520D01*
X3310000D01*
Y5092480D01*
X3309980D01*
Y5219550D01*
X3314980Y5224550D01*
Y5275000D01*
G02X3435020I60020J0D01*
G01Y5225490D01*
X3437990Y5222520D01*
X3440020D01*
Y5092480D01*
X3440000D01*
Y5057520D01*
X3440020D01*
Y4932560D01*
G02X3434940Y4927480I-5080J0D01*
G01X3425100D01*
G03X3420020Y4922400I0J-5080D01*
G01Y4852990D01*
X3422990Y4850020D01*
X3425020D01*
G37*
G36*
G01X1282620Y5387650D02*
X1277960Y5397140D01*
G03X1273400Y5399980I-4560J-2241D01*
G01X1205060D01*
G02X1199980Y5405060I0J5080D01*
G01Y5644940D01*
G02X1205060Y5650020I5080J0D01*
G01X1444940D01*
G02X1450020Y5644940I0J-5080D01*
G01Y5405060D01*
G02X1444940Y5399980I-5080J0D01*
G01X1376600D01*
G03X1372040Y5397140I0J-5081D01*
G01X1367380Y5387650D01*
X1367670Y5384760D01*
X1368560Y5383610D01*
G02X1281440I-43560J-33610D01*
G01X1282330Y5384760D01*
X1282620Y5387650D01*
G37*
G36*
G01X1957620D02*
X1952960Y5397140D01*
G03X1948400Y5399980I-4560J-2241D01*
G01X1880060D01*
G02X1874980Y5405060I0J5080D01*
G01Y5644940D01*
G02X1880060Y5650020I5080J0D01*
G01X2119940D01*
G02X2125020Y5644940I0J-5080D01*
G01Y5405060D01*
G02X2119940Y5399980I-5080J0D01*
G01X2051600D01*
G03X2047040Y5397140I0J-5081D01*
G01X2042380Y5387650D01*
X2042670Y5384760D01*
X2043560Y5383610D01*
G02X1956440I-43560J-33610D01*
G01X1957330Y5384760D01*
X1957620Y5387650D01*
G37*
G36*
G01X4522040Y5397140D02*
X4517380Y5387650D01*
X4517670Y5384760D01*
X4518560Y5383610D01*
G02X4431440I-43560J-33610D01*
G01X4432330Y5384760D01*
X4432620Y5387650D01*
X4427960Y5397140D01*
G03X4423400Y5399980I-4560J-2241D01*
G01X4355060D01*
G02X4349980Y5405060I0J5080D01*
G01Y5644940D01*
G02X4355060Y5650020I5080J0D01*
G01X4594940D01*
G02X4600020Y5644940I0J-5080D01*
G01Y5405060D01*
G02X4594940Y5399980I-5080J0D01*
G01X4526600D01*
G03X4522040Y5397140I0J-5081D01*
G37*
G36*
G01X4922040D02*
X4917380Y5387650D01*
X4917670Y5384760D01*
X4918560Y5383610D01*
G02X4831440I-43560J-33610D01*
G01X4832330Y5384760D01*
X4832620Y5387650D01*
X4827960Y5397140D01*
G03X4823400Y5399980I-4560J-2241D01*
G01X4755060D01*
G02X4749980Y5405060I0J5080D01*
G01Y5644940D01*
G02X4755060Y5650020I5080J0D01*
G01X4994940D01*
G02X5000020Y5644940I0J-5080D01*
G01Y5405060D01*
G02X4994940Y5399980I-5080J0D01*
G01X4926600D01*
G03X4922040Y5397140I0J-5081D01*
G37*
G36*
G01X2783260Y324980D02*
X2566740D01*
G02X2563150Y326470I4J5079D01*
G01X2526470Y363150D01*
G02X2524980Y366740I3589J3594D01*
G01Y2194920D01*
G03X2523490Y2198510I-5079J-4D01*
G03X2519900Y2200000I-3594J-3589D01*
G01X2505100D01*
G03X2501510Y2198510I4J-5079D01*
G03X2500020Y2194920I3589J-3594D01*
G01Y2150060D01*
G02X2494940Y2144980I-5080J0D01*
G01X2472600D01*
G03X2469010Y2143490I4J-5079D01*
G03X2467520Y2139900I3589J-3594D01*
G01Y2135840D01*
X2468060Y2134270D01*
X2468580Y2133590D01*
G02X2376840Y2126610I-43580J-33588D01*
G01X2376850Y2126620D01*
X2376860Y2126640D01*
G03X2377480Y2129070I-4460J2432D01*
G01Y2139900D01*
G03X2375990Y2143490I-5079J-4D01*
G03X2372400Y2144980I-3594J-3589D01*
G01X2307470D01*
G03X2303880Y2143490I4J-5080D01*
G01X2286850Y2126470D01*
G02X2283260Y2124980I-3594J3589D01*
G01X1979240D01*
G02X1975650Y2126470I4J5079D01*
G01X1951470Y2150650D01*
G02X1949980Y2154240I3589J3594D01*
G01Y2164900D01*
G03X1948490Y2168490I-5079J-4D01*
G03X1944900Y2169980I-3594J-3589D01*
G01X1885100D01*
G03X1881510Y2168490I4J-5079D01*
G03X1880020Y2164900I3589J-3594D01*
G01Y2083450D01*
G02X1878530Y2079860I-5080J4D01*
G01X1805140Y2006470D01*
G02X1801550Y2004980I-3594J3590D01*
G01X1295750D01*
G03X1292160Y2003490I4J-5080D01*
G01X1271510Y1982840D01*
G03X1270020Y1979250I3590J-3594D01*
G01Y1920100D01*
G03X1271510Y1916510I5079J4D01*
G03X1275100Y1915020I3594J3589D01*
G01X1304940D01*
G02X1310020Y1909940I0J-5080D01*
G01Y1840940D01*
G03X1313160Y1836250I5080J5D01*
G01X1314580Y1835660D01*
X1317590Y1836260D01*
X1338490Y1857160D01*
G03X1339980Y1860750I-3590J3594D01*
G01Y1909940D01*
G02X1345060Y1915020I5080J0D01*
G01X1504940D01*
G02X1510020Y1909940I0J-5080D01*
G01Y1840940D01*
G03X1513160Y1836250I5080J5D01*
G01X1514580Y1835660D01*
X1517590Y1836260D01*
X1538490Y1857160D01*
G03X1539980Y1860750I-3590J3594D01*
G01Y1909940D01*
G02X1545060Y1915020I5080J0D01*
G01X1704940D01*
G02X1710020Y1909940I0J-5080D01*
G01Y1840940D01*
G03X1713160Y1836250I5080J5D01*
G01X1714580Y1835660D01*
X1717590Y1836260D01*
X1738490Y1857160D01*
G03X1739980Y1860750I-3590J3594D01*
G01Y1909940D01*
G02X1745060Y1915020I5080J0D01*
G01X1904940D01*
G02X1910020Y1909940I0J-5080D01*
G01Y1840940D01*
G03X1913160Y1836250I5080J5D01*
G01X1914580Y1835660D01*
X1917590Y1836260D01*
X1938490Y1857160D01*
G03X1939980Y1860750I-3590J3594D01*
G01Y1909940D01*
G02X1945060Y1915020I5080J0D01*
G01X2104940D01*
G02X2110020Y1909940I0J-5080D01*
G01Y1840940D01*
G03X2113160Y1836250I5080J5D01*
G01X2114580Y1835660D01*
X2117590Y1836260D01*
X2138490Y1857160D01*
G03X2139980Y1860750I-3590J3594D01*
G01Y1909940D01*
G02X2145060Y1915020I5080J0D01*
G01X2304940D01*
G02X2310020Y1909940I0J-5080D01*
G01Y1750060D01*
G02X2306190Y1745140I-5075J0D01*
G03X2303830Y1743780I1264J-4921D01*
G01X2301460Y1741380D01*
G03X2300000Y1737820I3620J-3564D01*
G01Y1710100D01*
G03X2301490Y1706510I5079J4D01*
G03X2305080Y1705020I3594J3589D01*
G01X2305960D01*
X2307820Y1704250D01*
X2308530Y1703540D01*
G02X2310020Y1699950I-3590J-3594D01*
G01Y1675100D01*
G03X2311510Y1671510I5079J4D01*
G03X2315100Y1670020I3594J3589D01*
G01X2317550D01*
X2318980Y1670450D01*
X2319610Y1670870D01*
G02Y1579130I30390J-45870D01*
G01X2318980Y1579550D01*
X2317550Y1579980D01*
X2315100D01*
G03X2311510Y1578490I4J-5079D01*
G03X2310020Y1574900I3589J-3594D01*
G01Y1540060D01*
G02X2304940Y1534980I-5080J0D01*
G01X2145060D01*
G02X2139980Y1540060I0J5080D01*
G01Y1594060D01*
G03X2136840Y1598750I-5080J-5D01*
G01X2135420Y1599340D01*
X2132410Y1598740D01*
X2111510Y1577840D01*
G03X2110020Y1574250I3590J-3594D01*
G01Y1540060D01*
G02X2104940Y1534980I-5080J0D01*
G01X1945060D01*
G02X1939980Y1540060I0J5080D01*
G01Y1594060D01*
G03X1936840Y1598750I-5080J-5D01*
G01X1935420Y1599340D01*
X1932410Y1598740D01*
X1911510Y1577840D01*
G03X1910020Y1574250I3590J-3594D01*
G01Y1540060D01*
G02X1904940Y1534980I-5080J0D01*
G01X1745060D01*
G02X1739980Y1540060I0J5080D01*
G01Y1594060D01*
G03X1736840Y1598750I-5080J-5D01*
G01X1735420Y1599340D01*
X1732410Y1598740D01*
X1711510Y1577840D01*
G03X1710020Y1574250I3590J-3594D01*
G01Y1540060D01*
G02X1704940Y1534980I-5080J0D01*
G01X1545060D01*
G02X1539980Y1540060I0J5080D01*
G01Y1594060D01*
G03X1536840Y1598750I-5080J-5D01*
G01X1535420Y1599340D01*
X1532410Y1598740D01*
X1511510Y1577840D01*
G03X1510020Y1574250I3590J-3594D01*
G01Y1540060D01*
G02X1504940Y1534980I-5080J0D01*
G01X1345060D01*
G02X1339980Y1540060I0J5080D01*
G01Y1594060D01*
G03X1336840Y1598750I-5080J-5D01*
G01X1335420Y1599340D01*
X1332410Y1598740D01*
X1311510Y1577840D01*
G03X1310020Y1574250I3590J-3594D01*
G01Y1540060D01*
G02X1304940Y1534980I-5080J0D01*
G01X1145060D01*
G02X1139980Y1540060I0J5080D01*
G01Y1699940D01*
G02X1143810Y1704860I5075J0D01*
G03X1146170Y1706220I-1264J4921D01*
G01X1148540Y1708620D01*
G03X1150000Y1712180I-3620J3564D01*
G01Y1739900D01*
G03X1148510Y1743490I-5079J-4D01*
G03X1144920Y1744980I-3594J-3589D01*
G01X1144040D01*
X1142180Y1745750D01*
X1141470Y1746460D01*
G02X1139980Y1750050I3590J3594D01*
G01Y1757400D01*
G03X1138490Y1760990I-5079J-4D01*
G03X1134900Y1762480I-3594J-3589D01*
G01X1080100D01*
G03X1076510Y1760990I4J-5079D01*
G03X1075020Y1757400I3589J-3594D01*
G01Y1745060D01*
G02X1069940Y1739980I-5080J0D01*
G01X980060D01*
G02X974980Y1745060I0J5080D01*
G01Y1869940D01*
G02X980060Y1875020I5080J0D01*
G01X1069940D01*
G02X1075020Y1869940I0J-5080D01*
G01Y1857600D01*
G03X1076510Y1854010I5079J4D01*
G03X1080100Y1852520I3594J3589D01*
G01X1134900D01*
G03X1138490Y1854010I-4J5079D01*
G03X1139980Y1857600I-3589J3594D01*
G01Y1909940D01*
G02X1145060Y1915020I5080J0D01*
G01X1174900D01*
G03X1178490Y1916510I-4J5079D01*
G03X1179980Y1920100I-3589J3594D01*
G01Y2016550D01*
G02X1181470Y2020140I5080J-4D01*
G01X1254860Y2093530D01*
G02X1258450Y2095020I3594J-3590D01*
G01X1764250D01*
G03X1767840Y2096510I-4J5080D01*
G01X1788490Y2117160D01*
G03X1789980Y2120750I-3590J3594D01*
G01Y2164900D01*
G03X1788490Y2168490I-5079J-4D01*
G03X1784900Y2169980I-3594J-3589D01*
G01X1715060D01*
G02X1709980Y2175060I0J5080D01*
G01Y2199900D01*
G03X1708490Y2203490I-5079J-4D01*
G03X1704900Y2204980I-3594J-3589D01*
G01X1658200D01*
G03X1655400Y2204130I13J-5078D01*
G02Y2295870I-30400J45870D01*
G03X1658200Y2295020I2813J4228D01*
G01X1704900D01*
G03X1708490Y2296510I-4J5079D01*
G03X1709980Y2300100I-3589J3594D01*
G01Y2324940D01*
G02X1715060Y2330020I5080J0D01*
G01X1944900D01*
G03X1948490Y2331510I-4J5079D01*
G03X1949980Y2335100I-3589J3594D01*
G01Y2345760D01*
G02X1951470Y2349350I5079J-4D01*
G01X1975650Y2373530D01*
G02X1979240Y2375020I3594J-3589D01*
G01X2209250D01*
G03X2212840Y2376510I-4J5080D01*
G01X2267360Y2431030D01*
G02X2270950Y2432520I3594J-3590D01*
G01X2289920D01*
G03X2293510Y2434010I-4J5079D01*
G03X2295000Y2437600I-3589J3594D01*
G01Y2444920D01*
G03X2293510Y2448510I-5079J-4D01*
G03X2289920Y2450000I-3594J-3589D01*
G01X2135380D01*
X2135360Y2449980D01*
X1662470D01*
G03X1658880Y2448490I4J-5080D01*
G01X1536850Y2326470D01*
G02X1533260Y2324980I-3594J3589D01*
G01X341740D01*
G02X338150Y2326470I4J5079D01*
G01X301470Y2363150D01*
G02X299980Y2366740I3589J3594D01*
G01Y2633260D01*
G02X301470Y2636850I5079J-4D01*
G01X338150Y2673530D01*
G02X341740Y2675020I3594J-3589D01*
G01X1312530D01*
G03X1316120Y2676510I-4J5080D01*
G01X1613150Y2973530D01*
G02X1616740Y2975020I3594J-3589D01*
G01X2147860D01*
X2147880Y2975000D01*
X2173910D01*
X2175770Y2975770D01*
X2176490Y2976490D01*
X2186010Y2986010D01*
G03X2187500Y2989600I-3590J3594D01*
G01Y3148910D01*
X2186730Y3150770D01*
X2186010Y3151490D01*
X2176490Y3161010D01*
X2175770Y3161730D01*
X2173910Y3162500D01*
X2168680D01*
X2166960Y3161850D01*
X2166260Y3161240D01*
G02X2162920Y3159980I-3348J3819D01*
G01X2087080D01*
G02X2083490Y3161470I4J5080D01*
G01X2083230Y3161730D01*
X2081370Y3162500D01*
X2076090D01*
X2074230Y3161730D01*
X2073510Y3161010D01*
X2063990Y3151490D01*
G03X2062500Y3147900I3590J-3594D01*
G01Y3080080D01*
G02X2057420Y3075000I-5080J0D01*
G01X1817580D01*
G02X1812500Y3080080I0J5080D01*
G01Y3494920D01*
G02X1817580Y3500000I5080J0D01*
G01X2057420D01*
G02X2062500Y3494920I0J-5080D01*
G01Y3426090D01*
X2063270Y3424230D01*
X2063990Y3423510D01*
X2073510Y3413990D01*
X2074230Y3413270D01*
X2076090Y3412500D01*
X2081320D01*
X2083040Y3413150D01*
X2083740Y3413760D01*
G02X2087080Y3415020I3348J-3819D01*
G01X2159950D01*
G02X2163540Y3413530I-4J-5080D01*
G01X2164250Y3412820D01*
X2165020Y3410960D01*
Y3409980D01*
X2223510Y3351490D01*
X2224230Y3350770D01*
X2226090Y3350000D01*
X2411410D01*
X2413270Y3350770D01*
X2413990Y3351490D01*
X2423490Y3360990D01*
G03X2424980Y3364580I-3590J3594D01*
G01Y3472860D01*
X2425000Y3472880D01*
Y3502120D01*
X2424980Y3502140D01*
Y3636430D01*
X2424210Y3638290D01*
X2423490Y3639010D01*
X2414010Y3648490D01*
X2413290Y3649210D01*
X2411430Y3649980D01*
X1791740D01*
G02X1788150Y3651470I4J5079D01*
G01X1651470Y3788150D01*
G02X1649980Y3791740I3589J3594D01*
G01Y4287530D01*
G03X1648490Y4291120I-5080J-4D01*
G01X1616120Y4323490D01*
G03X1612530Y4324980I-3594J-3590D01*
G01X341740D01*
G02X338150Y4326470I4J5079D01*
G01X301470Y4363150D01*
G02X299980Y4366740I3589J3594D01*
G01Y4633260D01*
G02X301470Y4636850I5079J-4D01*
G01X338150Y4673530D01*
G02X341740Y4675020I3594J-3589D01*
G01X1883260D01*
G02X1886850Y4673530I-4J-5079D01*
G01X1973530Y4586850D01*
G02X1975020Y4583260I-3589J-3594D01*
G01Y4105100D01*
G03X1980100Y4100020I5080J0D01*
G01X2210360D01*
X2210380Y4100000D01*
X2222970D01*
G03X2225510Y4100680I1J5080D01*
G01X2226090Y4101020D01*
X2227030Y4101960D01*
X2227370Y4102540D01*
G02X2322630I47630J-27540D01*
G01X2322970Y4101960D01*
X2323910Y4101020D01*
X2324490Y4100680D01*
G03X2327030Y4100000I2539J4400D01*
G01X2344900D01*
G03X2349980Y4105080I0J5080D01*
G01Y5658260D01*
G02X2351470Y5661850I5079J-4D01*
G01X2388150Y5698530D01*
G02X2391740Y5700020I3594J-3589D01*
G01X2658260D01*
G02X2661850Y5698530I-4J-5079D01*
G01X2698530Y5661850D01*
G02X2700020Y5658260I-3589J-3594D01*
G01Y4416740D01*
G02X2698530Y4413150I-5079J4D01*
G01X2694070Y4408690D01*
G03X2692960Y4403150I3586J-3600D01*
G01X2693550Y4401730D01*
X2696110Y4400020D01*
X2813550D01*
G03X2818630Y4405100I0J5080D01*
G01Y4628820D01*
G02X2820120Y4632410I5079J-4D01*
G01X2897140Y4709430D01*
G03X2898240Y4711080I-3595J3588D01*
G01X2898630Y4712010D01*
Y5394900D01*
G03X2893550Y5399980I-5080J0D01*
G01X2805060D01*
G02X2799980Y5405060I0J5080D01*
G01Y5644940D01*
G02X2805060Y5650020I5080J0D01*
G01X3044940D01*
G02X3050020Y5644940I0J-5080D01*
G01Y5405060D01*
G02X3044940Y5399980I-5080J0D01*
G01X2956450D01*
G03X2951370Y5394900I0J-5080D01*
G01Y4691180D01*
G02X2949880Y4687590I-5079J4D01*
G01X2872860Y4610570D01*
G03X2871760Y4608920I3595J-3588D01*
G01X2871370Y4607990D01*
Y4405100D01*
G03X2876450Y4400020I5080J0D01*
G01X2907440D01*
G02X2912520Y4394940I0J-5080D01*
G01Y4305080D01*
G03X2917600Y4300000I5080J0D01*
G01X3337510D01*
G03X3341100Y4301490I-4J5080D01*
G01X3598490Y4558880D01*
G03X3599980Y4562470I-3590J3594D01*
G01Y5658260D01*
G02X3601470Y5661850I5079J-4D01*
G01X3638150Y5698530D01*
G02X3641740Y5700020I3594J-3589D01*
G01X3908260D01*
G02X3911850Y5698530I-4J-5079D01*
G01X3948530Y5661850D01*
G02X3950020Y5658260I-3589J-3594D01*
G01Y4366740D01*
G02X3948530Y4363150I-5079J4D01*
G01X3514010Y3928620D01*
G03X3512520Y3925030I3590J-3594D01*
G01Y3714640D01*
X3512500Y3714620D01*
Y3352100D01*
G02X3511010Y3348510I-5080J4D01*
G01X3488990Y3326490D01*
G02X3485400Y3325000I-3594J3590D01*
G01X3413590D01*
X3411730Y3324230D01*
X3411010Y3323510D01*
X3401510Y3314010D01*
X3400790Y3313290D01*
X3400020Y3311430D01*
Y3251070D01*
X3400790Y3249210D01*
X3401510Y3248490D01*
X3410990Y3239010D01*
X3411710Y3238290D01*
X3413570Y3237520D01*
X3472860D01*
X3472880Y3237500D01*
X3485400D01*
G02X3488990Y3236010I-4J-5080D01*
G01X3511010Y3213990D01*
G02X3512500Y3210400I-3590J-3594D01*
G01Y3176090D01*
X3513270Y3174230D01*
X3513990Y3173510D01*
X3535990Y3151510D01*
X3536710Y3150790D01*
X3538570Y3150020D01*
X3610360D01*
X3610380Y3150000D01*
X3689620D01*
X3689640Y3150020D01*
X4087530D01*
G03X4091120Y3151510I-4J5080D01*
G01X4413150Y3473530D01*
G02X4416740Y3475020I3594J-3589D01*
G01X5658260D01*
G02X5661850Y3473530I-4J-5079D01*
G01X5698530Y3436850D01*
G02X5700020Y3433260I-3589J-3594D01*
G01Y3166740D01*
G02X5698530Y3163150I-5079J4D01*
G01X5661850Y3126470D01*
G02X5658260Y3124980I-3594J3589D01*
G01X4662470D01*
G03X4658880Y3123490I4J-5080D01*
G01X4136850Y2601470D01*
G02X4133260Y2599980I-3594J3589D01*
G01X3727140D01*
X3727120Y2600000D01*
X3527100D01*
G02X3523510Y2601490I4J5080D01*
G01X3488990Y2636010D01*
G02X3487500Y2639600I3590J3594D01*
G01Y2786410D01*
X3486730Y2788270D01*
X3486010Y2788990D01*
X3476490Y2798510D01*
X3475770Y2799230D01*
X3473910Y2800000D01*
X3401090D01*
X3399230Y2799230D01*
X3398510Y2798510D01*
X3389010Y2789010D01*
X3388290Y2788290D01*
X3387520Y2786430D01*
Y2564640D01*
X3387500Y2564620D01*
Y2242600D01*
G03X3392580Y2237520I5080J0D01*
G01X3495760D01*
G02X3499350Y2236030I-4J-5079D01*
G01X3523530Y2211850D01*
G02X3525020Y2208260I-3589J-3594D01*
G01Y2016740D01*
G02X3523530Y2013150I-5079J4D01*
G01X3486850Y1976470D01*
G02X3483260Y1974980I-3594J3589D01*
G01X3362470D01*
G03X3358880Y1973490I4J-5080D01*
G01X3351510Y1966120D01*
G03X3350020Y1962530I3590J-3594D01*
G01Y366740D01*
G02X3348530Y363150I-5079J4D01*
G01X3311850Y326470D01*
G02X3308260Y324980I-3594J3589D01*
G01X3091740D01*
G02X3088150Y326470I4J5079D01*
G01X3051470Y363150D01*
G02X3049980Y366740I3589J3594D01*
G01Y1607420D01*
G03X3044900Y1612500I-5080J0D01*
G01X2830100D01*
G03X2825020Y1607420I0J-5080D01*
G01Y1580100D01*
G03X2830100Y1575020I5080J0D01*
G01X2952070D01*
X2953040Y1575440D01*
G02Y1474560I21960J-50440D01*
G01X2952070Y1474980D01*
X2830100D01*
G03X2825020Y1469900I0J-5080D01*
G01Y1455100D01*
G03X2830100Y1450020I5080J0D01*
G01X2952070D01*
X2953040Y1450440D01*
G02Y1349560I21960J-50440D01*
G01X2952070Y1349980D01*
X2830100D01*
G03X2825020Y1344900I0J-5080D01*
G01Y1330100D01*
G03X2830100Y1325020I5080J0D01*
G01X2952070D01*
X2953040Y1325440D01*
G02Y1224560I21960J-50440D01*
G01X2952070Y1224980D01*
X2830100D01*
G03X2825020Y1219900I0J-5080D01*
G01Y1205100D01*
G03X2830100Y1200020I5080J0D01*
G01X2952070D01*
X2953040Y1200440D01*
G02Y1099560I21960J-50440D01*
G01X2952070Y1099980D01*
X2830100D01*
G03X2825020Y1094900I0J-5080D01*
G01Y1080100D01*
G03X2830100Y1075020I5080J0D01*
G01X2952070D01*
X2953040Y1075440D01*
G02Y974560I21960J-50440D01*
G01X2952070Y974980D01*
X2830100D01*
G03X2825020Y969900I0J-5080D01*
G01Y955100D01*
G03X2830100Y950020I5080J0D01*
G01X2952070D01*
X2953040Y950440D01*
G02Y849560I21960J-50440D01*
G01X2952070Y849980D01*
X2830100D01*
G03X2825020Y844900I0J-5080D01*
G01Y366740D01*
G02X2823530Y363150I-5079J4D01*
G01X2786850Y326470D01*
G02X2783260Y324980I-3594J3589D01*
G37*
%LPD*%
G75*
G36*
G01X2122900Y2475000D02*
X1652100D01*
G03X1648510Y2473510I4J-5080D01*
G01X1526490Y2351490D01*
G02X1522900Y2350000I-3594J3590D01*
G01X352100D01*
G02X348510Y2351490I4J5080D01*
G01X326490Y2373510D01*
G02X325000Y2377100I3590J3594D01*
G01Y2622900D01*
G02X326490Y2626490I5080J-4D01*
G01X348510Y2648510D01*
G02X352100Y2650000I3594J-3590D01*
G01X1322900D01*
G03X1326490Y2651490I-4J5080D01*
G01X1623510Y2948510D01*
G02X1627100Y2950000I3594J-3590D01*
G01X2135400D01*
G02X2138990Y2948510I-4J-5080D01*
G01X2148510Y2938990D01*
G02X2150000Y2935400I-3590J-3594D01*
G01Y2502100D01*
G02X2148510Y2498510I-5080J4D01*
G01X2126490Y2476490D01*
G02X2122900Y2475000I-3594J3590D01*
G37*
G36*
G01X2887500Y3180080D02*
Y3192900D01*
G03X2886010Y3196490I-5080J-4D01*
G01X2714010Y3368490D01*
G02X2712520Y3372080I3590J3594D01*
G01Y3555190D01*
X2712500Y3555210D01*
Y3560400D01*
G03X2711010Y3563990I-5080J-4D01*
G01X2601490Y3673510D01*
G03X2597900Y3675000I-3594J-3590D01*
G01X1802100D01*
G02X1798510Y3676490I4J5080D01*
G01X1676490Y3798510D01*
G02X1675000Y3802100I3590J3594D01*
G01Y4297900D01*
G03X1673510Y4301490I-5080J-4D01*
G01X1626490Y4348510D01*
G03X1622900Y4350000I-3594J-3590D01*
G01X352100D01*
G02X348510Y4351490I4J5080D01*
G01X326490Y4373510D01*
G02X325000Y4377100I3590J3594D01*
G01Y4622900D01*
G02X326490Y4626490I5080J-4D01*
G01X348510Y4648510D01*
G02X352100Y4650000I3594J-3590D01*
G01X1872900D01*
G02X1876490Y4648510I-4J-5080D01*
G01X1948510Y4576490D01*
G02X1950000Y4572900I-3590J-3594D01*
G01Y3889600D01*
G03X1951490Y3886010I5080J4D01*
G01X2001010Y3836490D01*
G03X2004600Y3835000I3594J3590D01*
G01X2021020D01*
X2021730Y3834790D01*
G03X2053270I15770J52710D01*
G01X2053980Y3835000D01*
X2625400D01*
G02X2628990Y3833510I-4J-5080D01*
G01X2701660Y3760840D01*
G02X2702460Y3759800I-3592J-3591D01*
G03X2722300Y3739960I47540J27700D01*
G02X2723340Y3739160I-2551J-4392D01*
G01X2836010Y3626490D01*
G02X2837500Y3622900I-3590J-3594D01*
G01Y3289600D01*
G03X2838990Y3286010I5080J4D01*
G01X2911010Y3213990D01*
G02X2912500Y3210400I-3590J-3594D01*
G01Y3180080D01*
G02X2907420Y3175000I-5080J0D01*
G01X2892580D01*
G02X2887500Y3180080I0J5080D01*
G37*
G36*
G01X2287500Y2335400D02*
Y2164600D01*
G02X2286010Y2161010I-5080J4D01*
G01X2276490Y2151490D01*
G02X2272900Y2150000I-3594J3590D01*
G01X1989600D01*
G02X1986010Y2151490I4J5080D01*
G01X1976490Y2161010D01*
G02X1975000Y2164600I3590J3594D01*
G01Y2335400D01*
G02X1976490Y2338990I5080J-4D01*
G01X1986010Y2348510D01*
G02X1989600Y2350000I3594J-3590D01*
G01X2272900D01*
G02X2276490Y2348510I-4J-5080D01*
G01X2286010Y2338990D01*
G02X2287500Y2335400I-3590J-3594D01*
G37*
G36*
G01X2023510Y3851490D02*
X1976490Y3898510D01*
G02X1975000Y3902100I3590J3594D01*
G01Y4069920D01*
G02X1980080Y4075000I5080J0D01*
G01X2197900D01*
G02X2201490Y4073510I-4J-5080D01*
G01X2211010Y4063990D01*
G02X2212500Y4060400I-3590J-3594D01*
G01Y3939600D01*
G03X2213990Y3936010I5080J4D01*
G01X2223510Y3926490D01*
G03X2227100Y3925000I3594J3590D01*
G01X2260400D01*
G02X2263990Y3923510I-4J-5080D01*
G01X2273510Y3913990D01*
G02X2275000Y3910400I-3590J-3594D01*
G01Y3864600D01*
G02X2273510Y3861010I-5080J4D01*
G01X2263990Y3851490D01*
G02X2260400Y3850000I-3594J3590D01*
G01X2167520D01*
Y3850020D01*
X2077480D01*
Y3850000D01*
X2027100D01*
G02X2023510Y3851490I4J5080D01*
G37*
G36*
G01X2573510Y351490D02*
X2551490Y373510D01*
G02X2550000Y377100I3590J3594D01*
G01Y2197900D01*
G02X2551490Y2201490I5080J-4D01*
G01X2561010Y2211010D01*
G02X2564600Y2212500I3594J-3590D01*
G01X2772900D01*
G02X2776490Y2211010I-4J-5080D01*
G01X2786010Y2201490D01*
G03X2789600Y2200000I3594J3590D01*
G01X2915400D01*
G02X2918990Y2198510I-4J-5080D01*
G01X2928490Y2189010D01*
G02X2929980Y2185420I-3590J-3594D01*
G01Y1869580D01*
G02X2928490Y1865990I-5080J4D01*
G01X2913990Y1851490D01*
G02X2910400Y1850000I-3594J3590D01*
G01X2814600D01*
G03X2811010Y1848510I4J-5080D01*
G01X2805020Y1842520D01*
X2804980D01*
Y1842480D01*
X2801490Y1838990D01*
G03X2800000Y1835400I3590J-3594D01*
G01Y1697990D01*
X2799580Y1697010D01*
G03Y1652990I50420J-22010D01*
G01X2800000Y1652010D01*
Y377100D01*
G02X2798510Y373510I-5080J4D01*
G01X2776490Y351490D01*
G02X2772900Y350000I-3594J3590D01*
G01X2577100D01*
G02X2573510Y351490I4J5080D01*
G37*
G36*
G01X2561010Y2288990D02*
X2551490Y2298510D01*
G02X2550000Y2302100I3590J3594D01*
G01Y2397900D01*
G02X2551490Y2401490I5080J-4D01*
G01X2561010Y2411010D01*
G02X2564600Y2412500I3594J-3590D01*
G01X2647900D01*
G03X2651490Y2413990I-4J5080D01*
G01X2664630Y2427130D01*
X2665200Y2427460D01*
G03X2685040Y2447300I-27700J47540D01*
G01X2685370Y2447870D01*
X2723510Y2486010D01*
G03X2725000Y2489600I-3590J3594D01*
G01Y2667900D01*
G02X2726490Y2671490I5080J-4D01*
G01X2846010Y2791010D01*
G03X2847500Y2794600I-3590J3594D01*
G01Y2794920D01*
G02X2852580Y2800000I5080J0D01*
G01X2867420D01*
G02X2872500Y2794920I0J-5080D01*
G01Y2729600D01*
G02X2871010Y2726010I-5080J4D01*
G01X2776490Y2631490D01*
G03X2775000Y2627900I3590J-3594D01*
G01Y2497990D01*
X2774580Y2497010D01*
G03Y2452990I50420J-22010D01*
G01X2775000Y2452010D01*
Y2302100D01*
G02X2773510Y2298510I-5080J4D01*
G01X2763990Y2288990D01*
G02X2760400Y2287500I-3594J3590D01*
G01X2564600D01*
G02X2561010Y2288990I4J5080D01*
G37*
G36*
G01X2525000Y2452100D02*
Y2594830D01*
G02X2526490Y2598430I5080J6D01*
G01X2714030Y2785970D01*
G03X2721030Y2795670I-26535J26525D01*
G01X2721400Y2796400D01*
X2723510Y2798510D01*
G02X2727100Y2800000I3594J-3590D01*
G01X2785400D01*
G03X2788990Y2801490I-4J5080D01*
G01X2789580Y2802080D01*
X2790640Y2802710D01*
X2791250Y2802900D01*
G03X2818510Y2835510I-11249J37102D01*
G01X2818730Y2837440D01*
X2821610Y2840000D01*
X2827420D01*
G02X2832500Y2834920I0J-5080D01*
G01Y2797310D01*
G02X2831010Y2793720I-5079J4D01*
G01X2733500Y2696210D01*
X2732800Y2695840D01*
G03X2716660Y2679700I17200J-33340D01*
G01X2716290Y2679000D01*
X2713970Y2676670D01*
G03X2712480Y2673080I3589J-3594D01*
G01Y2502080D01*
G02X2710990Y2498490I-5080J4D01*
G01X2651490Y2438990D01*
G02X2647900Y2437500I-3594J3590D01*
G01X2539600D01*
G02X2536010Y2438990I4J5080D01*
G01X2526490Y2448510D01*
G02X2525000Y2452100I3590J3594D01*
G37*
G36*
G01X2186010Y2588990D02*
X2176490Y2598510D01*
G02X2175000Y2602100I3590J3594D01*
G01Y2722900D01*
G02X2176490Y2726490I5080J-4D01*
G01X2186010Y2736010D01*
G02X2189600Y2737500I3594J-3590D01*
G01X2347900D01*
G03X2351490Y2738990I-4J5080D01*
G01X2460990Y2848490D01*
G02X2464580Y2849980I3594J-3590D01*
G01X2590580D01*
G03X2594170Y2851470I-4J5079D01*
G01X2673720Y2931010D01*
G02X2677310Y2932500I3594J-3589D01*
G01X2719920D01*
G02X2725000Y2927420I0J-5080D01*
G01Y2917100D01*
G02X2723510Y2913510I-5080J4D01*
G01X2715020Y2905020D01*
X2714650D01*
X2676470Y2866840D01*
G03X2674980Y2863250I3589J-3594D01*
G01Y2857080D01*
G02X2673490Y2853490I-5080J4D01*
G01X2408990Y2588990D01*
G02X2405400Y2587500I-3594J3590D01*
G01X2189600D01*
G02X2186010Y2588990I4J5080D01*
G37*
G36*
G01X2236010Y2763990D02*
X2226490Y2773510D01*
G02X2225000Y2777100I3590J3594D01*
G01Y2935400D01*
G02X2226490Y2938990I5080J-4D01*
G01X2236010Y2948510D01*
G02X2239600Y2950000I3594J-3590D01*
G01X2360400D01*
G02X2363990Y2948510I-4J-5080D01*
G01X2398510Y2913990D01*
G03X2402100Y2912500I3594J3590D01*
G01X2585400D01*
G03X2588990Y2913990I-4J5080D01*
G01X2646010Y2971010D01*
G02X2649600Y2972500I3594J-3590D01*
G01X2719920D01*
G02X2725000Y2967420I0J-5080D01*
G01Y2952580D01*
G02X2719920Y2947500I-5080J0D01*
G01X2674600D01*
G03X2671010Y2946010I4J-5080D01*
G01X2588990Y2863990D01*
G02X2585400Y2862500I-3594J3590D01*
G01X2452100D01*
G03X2448510Y2861010I4J-5080D01*
G01X2447520Y2860020D01*
X2447480D01*
Y2859980D01*
X2351490Y2763990D01*
G02X2347900Y2762500I-3594J3590D01*
G01X2239600D01*
G02X2236010Y2763990I4J5080D01*
G37*
G36*
G01X2410990Y2926510D02*
X2363990Y2973510D01*
G03X2360400Y2975000I-3594J-3590D01*
G01X2289600D01*
G02X2286010Y2976490I4J5080D01*
G01X2276490Y2986010D01*
G02X2275000Y2989600I3590J3594D01*
G01Y3035400D01*
G02X2276490Y3038990I5080J-4D01*
G01X2286010Y3048510D01*
G02X2289600Y3050000I3594J-3590D01*
G01X2497900D01*
G02X2501490Y3048510I-4J-5080D01*
G01X2536010Y3013990D01*
G03X2539600Y3012500I3594J3590D01*
G01X2719920D01*
G02X2725000Y3007420I0J-5080D01*
G01Y2992580D01*
G02X2719920Y2987500I-5080J0D01*
G01X2647100D01*
G03X2643510Y2986010I4J-5080D01*
G01X2642520Y2985020D01*
X2642310D01*
X2583800Y2926510D01*
G02X2580210Y2925020I-3594J3589D01*
G01X2414580D01*
G02X2410990Y2926510I4J5080D01*
G37*
G36*
G01X2616010Y3108990D02*
X2451490Y3273510D01*
G02X2450000Y3277100I3590J3594D01*
G01Y3460400D01*
G02X2451490Y3463990I5080J-4D01*
G01X2461010Y3473510D01*
G02X2464600Y3475000I3594J-3590D01*
G01X2560400D01*
G02X2563990Y3473510I-4J-5080D01*
G01X2573510Y3463990D01*
G02X2575000Y3460400I-3590J-3594D01*
G01Y3339600D01*
G03X2576490Y3336010I5080J4D01*
G01X2738510Y3173990D01*
G03X2742100Y3172500I3594J3590D01*
G01X2774920D01*
G02X2780000Y3167420I0J-5080D01*
G01Y3161610D01*
X2777440Y3158730D01*
X2775510Y3158510D01*
G03X2754050Y3148810I4485J-38511D01*
G01X2752600Y3147500D01*
X2752500D01*
Y3147400D01*
X2751190Y3145950D01*
G03X2741270Y3118150I28809J-25950D01*
G01X2741320Y3117100D01*
X2740600Y3115150D01*
X2734800Y3109070D01*
G02X2731130Y3107500I-3673J3510D01*
G01X2619600D01*
G02X2616010Y3108990I4J5080D01*
G37*
G36*
G01X2807500Y3152580D02*
Y3177900D01*
G03X2806010Y3181490I-5080J-4D01*
G01X2788990Y3198510D01*
G03X2785400Y3200000I-3594J-3590D01*
G01X2739600D01*
G02X2736010Y3201490I4J5080D01*
G01X2601490Y3336010D01*
G02X2600000Y3339600I3590J3594D01*
G01Y3472900D01*
G03X2598510Y3476490I-5080J-4D01*
G01X2576490Y3498510D01*
G03X2572900Y3500000I-3594J-3590D01*
G01X2464600D01*
G02X2461010Y3501490I4J5080D01*
G01X2451490Y3511010D01*
G02X2450000Y3514600I3590J3594D01*
G01Y3635400D01*
G02X2451490Y3638990I5080J-4D01*
G01X2461010Y3648510D01*
G02X2464600Y3650000I3594J-3590D01*
G01X2597900D01*
G02X2601490Y3648510I-4J-5080D01*
G01X2698510Y3551490D01*
G02X2700000Y3547900I-3590J-3594D01*
G01Y3364600D01*
G03X2701490Y3361010I5080J4D01*
G01X2871010Y3191490D01*
G02X2872500Y3187900I-3590J-3594D01*
G01Y3168870D01*
G02X2870930Y3165200I-5080J3D01*
G01X2864850Y3159400D01*
X2862900Y3158680D01*
X2861850Y3158730D01*
G03X2834050Y3148810I-1850J-38729D01*
G02X2830650Y3147500I-3404J3769D01*
G01X2812580D01*
G02X2807500Y3152580I0J5080D01*
G37*
G36*
G01X2461010Y3863990D02*
X2376490Y3948510D01*
G02X2375000Y3952100I3590J3594D01*
G01Y5647900D01*
G02X2376490Y5651490I5080J-4D01*
G01X2398510Y5673510D01*
G02X2402100Y5675000I3594J-3590D01*
G01X2647900D01*
G02X2651490Y5673510I-4J-5080D01*
G01X2673510Y5651490D01*
G02X2675000Y5647900I-3590J-3594D01*
G01Y4427100D01*
G02X2673510Y4423510I-5080J4D01*
G01X2650770Y4400770D01*
X2648910Y4400000D01*
X2647960D01*
G03X2620350Y4295180I-22963J-49998D01*
G02X2625000Y4290120I-431J-5063D01*
G01Y4089600D01*
G03X2626490Y4086010I5080J4D01*
G01X2646010Y4066490D01*
G03X2649600Y4065000I3594J3590D01*
G01X2764920D01*
G02X2770000Y4059920I0J-5080D01*
G01Y3990080D01*
G02X2764920Y3985000I-5080J0D01*
G01X2649600D01*
G03X2646010Y3983510I4J-5080D01*
G01X2626490Y3963990D01*
G03X2625000Y3960400I3590J-3594D01*
G01Y3889600D01*
G02X2623510Y3886010I-5080J4D01*
G01X2601490Y3863990D01*
G02X2597900Y3862500I-3594J3590D01*
G01X2464600D01*
G02X2461010Y3863990I4J5080D01*
G37*
G36*
G01X3098510Y351490D02*
X3076490Y373510D01*
G02X3075000Y377100I3590J3594D01*
G01Y1652010D01*
X3075420Y1652990D01*
G03Y1697010I-50420J22010D01*
G01X3075000Y1697990D01*
Y1835400D01*
G03X3073510Y1838990I-5080J-4D01*
G01X3070020Y1842480D01*
Y1842520D01*
X3069980D01*
X3063990Y1848510D01*
G03X3060400Y1850000I-3594J-3590D01*
G01X2964600D01*
G02X2961010Y1851490I4J5080D01*
G01X2946490Y1866010D01*
G02X2945000Y1869600I3590J3594D01*
G01Y2185400D01*
G02X2946490Y2188990I5080J-4D01*
G01X2956010Y2198510D01*
G02X2959600Y2200000I3594J-3590D01*
G01X3085400D01*
G03X3088990Y2201490I-4J5080D01*
G01X3098510Y2211010D01*
G02X3102100Y2212500I3594J-3590D01*
G01X3485400D01*
G02X3488990Y2211010I-4J-5080D01*
G01X3498510Y2201490D01*
G02X3500000Y2197900I-3590J-3594D01*
G01Y2027100D01*
G02X3498510Y2023510I-5080J4D01*
G01X3476490Y2001490D01*
G02X3472900Y2000000I-3594J3590D01*
G01X3352100D01*
G03X3348510Y1998510I4J-5080D01*
G01X3326490Y1976490D01*
G03X3325000Y1972900I3590J-3594D01*
G01Y377100D01*
G02X3323510Y373510I-5080J4D01*
G01X3301490Y351490D01*
G02X3297900Y350000I-3594J3590D01*
G01X3102100D01*
G02X3098510Y351490I4J5080D01*
G37*
G36*
G01X2956010Y2226490D02*
X2946490Y2236010D01*
G02X2945000Y2239600I3590J3594D01*
G01Y2780400D01*
G02X2946490Y2783990I5080J-4D01*
G01X2966010Y2803500D01*
G03X2967500Y2807090I-3590J3594D01*
G01Y2807420D01*
G02X2972580Y2812500I5080J0D01*
G01X2987420D01*
G02X2992500Y2807420I0J-5080D01*
G01Y2739600D01*
G03X2993990Y2736010I5080J4D01*
G01X2994980Y2735020D01*
Y2734810D01*
X3085990Y2643800D01*
G02X3087480Y2640210I-3589J-3594D01*
G01Y2294810D01*
X3087500Y2294790D01*
Y2239600D01*
G02X3086010Y2236010I-5080J4D01*
G01X3076490Y2226490D01*
G02X3072900Y2225000I-3594J3590D01*
G01X2959600D01*
G02X2956010Y2226490I4J5080D01*
G37*
G36*
G01X2798510D02*
X2788990Y2236010D01*
G02X2787500Y2239600I3590J3594D01*
G01Y2294790D01*
X2787520Y2294810D01*
Y2622710D01*
G02X2789010Y2626300I5079J-4D01*
G01X2885020Y2722310D01*
Y2722520D01*
X2886010Y2723510D01*
G03X2887500Y2727100I-3590J3594D01*
G01Y2794920D01*
G02X2892580Y2800000I5080J0D01*
G01X2910400D01*
G02X2913990Y2798510I-4J-5080D01*
G01X2928510Y2783990D01*
G02X2930000Y2780400I-3590J-3594D01*
G01Y2239600D01*
G02X2928510Y2236010I-5080J4D01*
G01X2918990Y2226490D01*
G02X2915400Y2225000I-3594J3590D01*
G01X2802100D01*
G02X2798510Y2226490I4J5080D01*
G37*
G36*
G01X3111010Y2288990D02*
X3101490Y2298510D01*
G02X3100000Y2302100I3590J3594D01*
G01Y2473650D01*
G03Y2476350I-50000J1350D01*
G01Y2645400D01*
G03X3098510Y2648990I-5080J-4D01*
G01X3008990Y2738510D01*
G02X3007500Y2742100I3590J3594D01*
G01Y2819920D01*
G02X3012580Y2825000I5080J0D01*
G01X3026740D01*
G02X3031090Y2822550I3J-5081D01*
G03X3031680Y2821600I28979J17339D01*
G02X3032500Y2818840I-4259J-2767D01*
G01Y2782100D01*
G03X3033990Y2778510I5080J4D01*
G01X3064660Y2747840D01*
X3065040Y2746700D01*
G03X3096700Y2715040I47460J15800D01*
G01X3097840Y2714660D01*
X3148510Y2663990D01*
G02X3150000Y2660400I-3590J-3594D01*
G01Y2489600D01*
G03X3151490Y2486010I5080J4D01*
G01X3223510Y2413990D01*
G03X3227100Y2412500I3594J3590D01*
G01X3310400D01*
G02X3313990Y2411010I-4J-5080D01*
G01X3323510Y2401490D01*
G02X3325000Y2397900I-3590J-3594D01*
G01Y2302100D01*
G02X3323510Y2298510I-5080J4D01*
G01X3313990Y2288990D01*
G02X3310400Y2287500I-3594J3590D01*
G01X3114600D01*
G02X3111010Y2288990I4J5080D01*
G37*
G36*
G01X2846250Y2959140D02*
G03Y2960860I-26250J860D01*
G01Y2999140D01*
G03Y3000860I-26250J860D01*
G01Y3008670D01*
G02X2851330Y3013750I5080J0D01*
G01X2881170D01*
G03X2886250Y3018830I0J5080D01*
G01Y3048670D01*
G02X2891330Y3053750I5080J0D01*
G01X2899140D01*
G03X2900860I860J26250D01*
G01X2939140D01*
G03X2940860I860J26250D01*
G01X2948670D01*
G02X2953750Y3048670I0J-5080D01*
G01Y3040860D01*
G03Y3039140I26250J-860D01*
G01Y3000860D01*
G03Y2999140I26250J-860D01*
G01Y2960860D01*
G03Y2959140I26250J-860D01*
G01Y2951330D01*
G02X2948670Y2946250I-5080J0D01*
G01X2940860D01*
G03X2939140I-860J-26250D01*
G01X2900860D01*
G03X2899140I-860J-26250D01*
G01X2860860D01*
G03X2859140I-860J-26250D01*
G01X2851330D01*
G02X2846250Y2951330I0J5080D01*
G01Y2959140D01*
G37*
G36*
G01X3536010Y2788990D02*
X3513990Y2811010D01*
G03X3510400Y2812500I-3594J-3590D01*
G01X3355210D01*
X3355190Y2812520D01*
X3314580D01*
G02X3310990Y2814010I4J5080D01*
G01X3178990Y2946010D01*
G03X3175400Y2947500I-3594J-3590D01*
G01X3080080D01*
G02X3075000Y2952580I0J5080D01*
G01Y2967420D01*
G02X3080080Y2972500I5080J0D01*
G01X3207900D01*
G03X3211490Y2973990I-4J5080D01*
G01X3212480Y2974980D01*
X3212690D01*
X3236200Y2998490D01*
G02X3239790Y2999980I3594J-3589D01*
G01X3460420D01*
G02X3464010Y2998490I-4J-5080D01*
G01X3473490Y2989010D01*
G02X3474980Y2985420I-3590J-3594D01*
G01Y2957310D01*
X3475000Y2957290D01*
Y2952100D01*
G03X3476490Y2948510I5080J4D01*
G01X3486010Y2938990D01*
G03X3489600Y2937500I3594J3590D01*
G01X3494790D01*
X3494810Y2937480D01*
X3605190D01*
X3605210Y2937500D01*
X3672900D01*
G02X3676490Y2936010I-4J-5080D01*
G01X3686010Y2926490D01*
G02X3687500Y2922900I-3590J-3594D01*
G01Y2802100D01*
G02X3686010Y2798510I-5080J4D01*
G01X3676490Y2788990D01*
G02X3672900Y2787500I-3594J3590D01*
G01X3539600D01*
G02X3536010Y2788990I4J5080D01*
G37*
G36*
G01X3498510Y2951490D02*
X3488990Y2961010D01*
G02X3487500Y2964600I3590J3594D01*
G01Y2997900D01*
G03X3486010Y3001490I-5080J-4D01*
G01X3476490Y3011010D01*
G03X3472900Y3012500I-3594J-3590D01*
G01X3447990D01*
X3447010Y3012920D01*
G03X3402990I-22010J-50420D01*
G01X3402010Y3012500D01*
X3234600D01*
G03X3231010Y3011010I4J-5080D01*
G01X3208990Y2988990D01*
G02X3205400Y2987500I-3594J3590D01*
G01X3080080D01*
G02X3075000Y2992580I0J5080D01*
G01Y3007420D01*
G02X3080080Y3012500I5080J0D01*
G01X3152900D01*
G03X3156490Y3013990I-4J5080D01*
G01X3203510Y3061010D01*
G02X3207100Y3062500I3594J-3590D01*
G01X3393280D01*
G02X3396390Y3061440I4J-5080D01*
G03X3463610I33610J43560D01*
G01X3464290Y3061960D01*
X3465870Y3062500D01*
X3472900D01*
G03X3476490Y3063990I-4J5080D01*
G01X3486010Y3073510D01*
G03X3487500Y3077100I-3590J3594D01*
G01Y3110400D01*
G02X3488990Y3113990I5080J-4D01*
G01X3498510Y3123510D01*
G02X3502100Y3125000I3594J-3590D01*
G01X3597900D01*
G02X3601490Y3123510I-4J-5080D01*
G01X3611010Y3113990D01*
G02X3612500Y3110400I-3590J-3594D01*
G01Y2964600D01*
G02X3611010Y2961010I-5080J4D01*
G01X3601490Y2951490D01*
G02X3597900Y2950000I-3594J3590D01*
G01X3502100D01*
G02X3498510Y2951490I4J5080D01*
G37*
G36*
G01X3347900Y2562500D02*
X3289600D01*
G02X3286010Y2563990I4J5080D01*
G01X3276490Y2573510D01*
G02X3275000Y2577100I3590J3594D01*
G01Y2735400D01*
G03X3273510Y2738990I-5080J-4D01*
G01X3106490Y2906010D01*
G03X3102900Y2907500I-3594J-3590D01*
G01X3080080D01*
G02X3075000Y2912580I0J5080D01*
G01Y2927420D01*
G02X3080080Y2932500I5080J0D01*
G01X3165400D01*
G02X3168990Y2931010I-4J-5080D01*
G01X3298510Y2801490D01*
G03X3302100Y2800000I3594J3590D01*
G01X3347900D01*
G02X3351490Y2798510I-4J-5080D01*
G01X3361010Y2788990D01*
G02X3362500Y2785400I-3590J-3594D01*
G01Y2577100D01*
G02X3361010Y2573510I-5080J4D01*
G01X3351490Y2563990D01*
G02X3347900Y2562500I-3594J3590D01*
G37*
G36*
G01X3223510Y2438990D02*
X3164010Y2498490D01*
G02X3162520Y2502080I3590J3594D01*
G01Y2667690D01*
X3162500Y2667710D01*
Y2761150D01*
G03Y2763850I-50000J1350D01*
G01Y2771410D01*
X3161730Y2773270D01*
X3161260Y2773740D01*
X3160910Y2775080D01*
G03X3125080Y2810910I-48410J-12580D01*
G01X3124420Y2811080D01*
X3123240Y2811760D01*
X3094460Y2840540D01*
X3093710Y2842140D01*
X3093630Y2843030D01*
G03X3064420Y2873480I-33633J-3028D01*
G01X3062520Y2873730D01*
X3060000Y2876600D01*
Y2887420D01*
G02X3065080Y2892500I5080J0D01*
G01X3100400D01*
G02X3103990Y2891010I-4J-5080D01*
G01X3261010Y2733990D01*
G02X3262500Y2730400I-3590J-3594D01*
G01Y2564600D01*
G03X3263990Y2561010I5080J4D01*
G01X3273510Y2551490D01*
G03X3277100Y2550000I3594J3590D01*
G01X3335400D01*
G02X3338990Y2548510I-4J-5080D01*
G01X3348510Y2538990D01*
G02X3350000Y2535400I-3590J-3594D01*
G01Y2452100D01*
G02X3348510Y2448510I-5080J4D01*
G01X3338990Y2438990D01*
G02X3335400Y2437500I-3594J3590D01*
G01X3227100D01*
G02X3223510Y2438990I4J5080D01*
G37*
G36*
G01X3075000Y3032580D02*
Y3047420D01*
G02X3080080Y3052500I5080J0D01*
G01X3125400D01*
G03X3128990Y3053990I-4J5080D01*
G01X3286010Y3211010D01*
G02X3289600Y3212500I3594J-3590D01*
G01X3460400D01*
G02X3463990Y3211010I-4J-5080D01*
G01X3473510Y3201490D01*
G02X3475000Y3197900I-3590J-3594D01*
G01Y3117710D01*
X3474980Y3117690D01*
Y3089580D01*
G02X3473490Y3085990I-5080J4D01*
G01X3464010Y3076510D01*
G02X3460420Y3075020I-3594J3590D01*
G01X3201920D01*
G03X3198330Y3073530I4J-5079D01*
G01X3153780Y3028990D01*
G02X3150190Y3027500I-3594J3589D01*
G01X3080080D01*
G02X3075000Y3032580I0J5080D01*
G37*
G36*
G01X3058680Y3117100D02*
X3058730Y3118150D01*
G03X3048810Y3145950I-38729J1850D01*
G02X3047500Y3149350I3769J3404D01*
G01Y3245190D01*
G02X3048990Y3248780I5079J-4D01*
G01X3086030Y3285830D01*
G03X3087520Y3289420I-3589J3594D01*
G01Y3472920D01*
G02X3089010Y3476510I5080J-4D01*
G01X3110990Y3498490D01*
G02X3114580Y3499980I3594J-3590D01*
G01X3192690D01*
X3192710Y3500000D01*
X3197900D01*
G03X3201490Y3501490I-4J5080D01*
G01X3211010Y3511010D01*
G03X3212500Y3514600I-3590J3594D01*
G01Y3519790D01*
X3212520Y3519810D01*
Y3630190D01*
X3212500Y3630210D01*
Y3672900D01*
G02X3213990Y3676490I5080J-4D01*
G01X3223510Y3686010D01*
G02X3227100Y3687500I3594J-3590D01*
G01X3360400D01*
G02X3363990Y3686010I-4J-5080D01*
G01X3373510Y3676490D01*
G02X3375000Y3672900I-3590J-3594D01*
G01Y3439600D01*
G02X3373510Y3436010I-5080J4D01*
G01X3363990Y3426490D01*
G02X3360400Y3425000I-3594J3590D01*
G01X3239600D01*
G03X3236010Y3423510I4J-5080D01*
G01X3201490Y3388990D01*
G03X3200000Y3385400I3590J-3594D01*
G01Y3237310D01*
G02X3198510Y3233720I-5079J4D01*
G01X3073780Y3108990D01*
G02X3070190Y3107500I-3594J3589D01*
G01X3068870D01*
G02X3065200Y3109070I3J5080D01*
G01X3059400Y3115150D01*
X3058680Y3117100D01*
G37*
G36*
G01X3007500Y3192580D02*
Y3312900D01*
G02X3008990Y3316490I5080J-4D01*
G01X3023510Y3331010D01*
G03X3025000Y3334600I-3590J3594D01*
G01Y3497900D01*
G03X3023510Y3501490I-5080J-4D01*
G01X3001490Y3523510D01*
G02X3000000Y3527100I3590J3594D01*
G01Y3552010D01*
X3000420Y3552990D01*
G03Y3597010I-50420J22010D01*
G01X3000000Y3597990D01*
Y3622900D01*
G02X3001490Y3626490I5080J-4D01*
G01X3011010Y3636010D01*
G02X3014600Y3637500I3594J-3590D01*
G01X3185400D01*
G02X3188990Y3636010I-4J-5080D01*
G01X3198510Y3626490D01*
G02X3200000Y3622900I-3590J-3594D01*
G01Y3527100D01*
G02X3198510Y3523510I-5080J4D01*
G01X3188990Y3513990D01*
G02X3185400Y3512500I-3594J3590D01*
G01X3102100D01*
G03X3098510Y3511010I4J-5080D01*
G01X3076490Y3488990D01*
G03X3075000Y3485400I3590J-3594D01*
G01Y3294600D01*
G02X3073510Y3291010I-5080J4D01*
G01X3033990Y3251490D01*
G03X3032500Y3247900I3590J-3594D01*
G01Y3192580D01*
G02X3027420Y3187500I-5080J0D01*
G01X3012580D01*
G02X3007500Y3192580I0J5080D01*
G37*
G36*
G01X3363990Y3398510D02*
X3373510Y3388990D01*
G02X3375000Y3385400I-3590J-3594D01*
G01Y3252100D01*
G02X3373510Y3248510I-5080J4D01*
G01X3363990Y3238990D01*
G02X3360400Y3237500I-3594J3590D01*
G01X3297100D01*
G03X3293510Y3236010I4J-5080D01*
G01X3126490Y3068990D01*
G02X3122900Y3067500I-3594J3590D01*
G01X3080080D01*
G02X3075000Y3072580I0J5080D01*
G01Y3090400D01*
G02X3076490Y3093990I5080J-4D01*
G01X3223510Y3241010D01*
G03X3225000Y3244600I-3590J3594D01*
G01Y3385400D01*
G02X3226490Y3388990I5080J-4D01*
G01X3236010Y3398510D01*
G02X3239600Y3400000I3594J-3590D01*
G01X3360400D01*
G02X3363990Y3398510I-4J-5080D01*
G37*
G36*
G01X2967500Y3192580D02*
Y3230400D01*
G03X2966010Y3233990I-5080J-4D01*
G01X2913990Y3286010D01*
G02X2912500Y3289600I3590J3594D01*
G01Y3597900D01*
G02X2913990Y3601490I5080J-4D01*
G01X2923510Y3611010D01*
G02X2927100Y3612500I3594J-3590D01*
G01X2972900D01*
G02X2976490Y3611010I-4J-5080D01*
G01X2986010Y3601490D01*
G02X2987500Y3597900I-3590J-3594D01*
G01Y3514600D01*
G03X2988990Y3511010I5080J4D01*
G01X3011010Y3488990D01*
G02X3012500Y3485400I-3590J-3594D01*
G01Y3339600D01*
G02X3011010Y3336010I-5080J4D01*
G01X2993990Y3318990D01*
G03X2992500Y3315400I3590J-3594D01*
G01Y3192580D01*
G02X2987420Y3187500I-5080J0D01*
G01X2972580D01*
G02X2967500Y3192580I0J5080D01*
G37*
G36*
G01X3486010Y3723510D02*
X3476490Y3713990D01*
G02X3472900Y3712500I-3594J3590D01*
G01X3014600D01*
G02X3011010Y3713990I4J5080D01*
G01X3001490Y3723510D01*
G02X3000000Y3727100I3590J3594D01*
G01Y3835400D01*
G02X3001490Y3838990I5080J-4D01*
G01X3036010Y3873510D01*
G03X3037500Y3877100I-3590J3594D01*
G01Y4235400D01*
G02X3038990Y4238990I5080J-4D01*
G01X3061010Y4261010D01*
G02X3064600Y4262500I3594J-3590D01*
G01X3335400D01*
G03X3338990Y4263990I-4J5080D01*
G01X3623510Y4548510D01*
G03X3625000Y4552100I-3590J3594D01*
G01Y5647900D01*
G02X3626490Y5651490I5080J-4D01*
G01X3648510Y5673510D01*
G02X3652100Y5675000I3594J-3590D01*
G01X3897900D01*
G02X3901490Y5673510I-4J-5080D01*
G01X3923510Y5651490D01*
G02X3925000Y5647900I-3590J-3594D01*
G01Y4377100D01*
G02X3923510Y4373510I-5080J4D01*
G01X3488990Y3938990D01*
G03X3487500Y3935400I3590J-3594D01*
G01Y3727100D01*
G02X3486010Y3723510I-5080J4D01*
G37*
G36*
G01X2805000Y3990080D02*
Y4059920D01*
G02X2810080Y4065000I5080J0D01*
G01X2912900D01*
G03X2916490Y4066490I-4J5080D01*
G01X2948510Y4098510D01*
G02X2952100Y4100000I3594J-3590D01*
G01X3007420D01*
G02X3012500Y4094920I0J-5080D01*
G01Y3955080D01*
G02X3007420Y3950000I-5080J0D01*
G01X2952100D01*
G02X2948510Y3951490I4J5080D01*
G01X2916490Y3983510D01*
G03X2912900Y3985000I-3594J-3590D01*
G01X2810080D01*
G02X2805000Y3990080I0J5080D01*
G37*
G36*
G01X3712500Y2652100D02*
Y2935400D01*
G03X3711010Y2938990I-5080J-4D01*
G01X3688990Y2961010D01*
G02X3687500Y2964600I3590J3594D01*
G01Y3110400D01*
G02X3688990Y3113990I5080J-4D01*
G01X3698510Y3123510D01*
G02X3702100Y3125000I3594J-3590D01*
G01X4097900D01*
G03X4101490Y3126490I-4J5080D01*
G01X4423510Y3448510D01*
G02X4427100Y3450000I3594J-3590D01*
G01X5647900D01*
G02X5651490Y3448510I-4J-5080D01*
G01X5673510Y3426490D01*
G02X5675000Y3422900I-3590J-3594D01*
G01Y3177100D01*
G02X5673510Y3173510I-5080J4D01*
G01X5651490Y3151490D01*
G02X5647900Y3150000I-3594J3590D01*
G01X4652100D01*
G03X4648510Y3148510I4J-5080D01*
G01X4126490Y2626490D01*
G02X4122900Y2625000I-3594J3590D01*
G01X3739600D01*
G02X3736010Y2626490I4J5080D01*
G01X3713990Y2648510D01*
G02X3712500Y2652100I3590J3594D01*
G37*
G54D10*
X400000Y400000D03*
Y5600000D03*
X5600000Y400000D03*
Y5600000D03*
G54D20*
X2105000Y2525000D03*
X2220000D03*
X2105000Y2650000D03*
X2220000D03*
X2167500Y4012500D03*
X2282500D03*
X2755000Y1150000D03*
X2870000D03*
X2755000Y1400000D03*
X2870000D03*
X2755000Y1275000D03*
X2870000D03*
X2755000Y900000D03*
X2870000D03*
X2755000Y1025000D03*
X2870000D03*
X2755000Y1525000D03*
X2870000D03*
X2730000Y3875000D03*
X2845000D03*
X2730000Y4350000D03*
X2845000D03*
X3642500Y2700000D03*
Y2825000D03*
X3317500Y2762500D03*
X3432500D03*
X3330000Y3275000D03*
X3445000D03*
X3957500Y2250000D03*
X3842500D03*
Y2375000D03*
X3957500D03*
X3842500Y2500000D03*
X3957500D03*
X3842500Y2125000D03*
X3957500D03*
X3842500Y2000000D03*
X3957500D03*
X3757500Y2700000D03*
Y2825000D03*
X3842500Y3525000D03*
X3957500D03*
X3842500Y3400000D03*
X3957500D03*
X3842500Y3275000D03*
X3957500D03*
Y3775000D03*
X3842500D03*
Y3650000D03*
X3957500D03*
G54D11*
X475000Y900000D03*
Y2000000D03*
Y2500000D03*
Y3000000D03*
Y3500000D03*
Y4000000D03*
Y4500000D03*
Y5000000D03*
X1100000Y475000D03*
X1500000D03*
X1325000Y5525000D03*
X1900000Y475000D03*
X2000000Y5525000D03*
X2675000Y475000D03*
X2525000Y5525000D03*
X3200000Y475000D03*
X2925000Y5525000D03*
X3775000D03*
X4200000Y475000D03*
X3800000D03*
X4600000D03*
X4475000Y5525000D03*
X4875000D03*
X5050000Y475000D03*
X5525000Y900000D03*
Y1300000D03*
Y1700000D03*
Y2500000D03*
Y2100000D03*
Y2900000D03*
Y3300000D03*
Y3750000D03*
Y4150000D03*
Y4550000D03*
Y5000000D03*
G54D30*
G01X2410000Y2627500D02*
Y2485000D01*
X2375000Y2450000D01*
X2250000D01*
G01X2200000Y2400000D02*
X2250000Y2450000D01*
G54D21*
X2500000Y2967500D03*
Y2807500D03*
X2670000Y2575000D03*
X2830000D03*
X3045000D03*
X2970000Y3400000D03*
X3130000D03*
X3205000Y2575000D03*
X3325000Y2957500D03*
Y3117500D03*
X3375000Y4992500D03*
Y5157500D03*
G54D12*
X950000Y825000D03*
X850000D03*
Y1125000D03*
X950000D03*
X850000Y1025000D03*
X950000D03*
Y925000D03*
X850000D03*
X950000Y2075000D03*
X850000D03*
X950000Y2175000D03*
X850000D03*
X950000Y2275000D03*
X850000D03*
X650000Y2000000D03*
X850000Y2925000D03*
X950000D03*
X850000Y2825000D03*
X950000D03*
X850000Y2725000D03*
X950000D03*
X650000Y3000000D03*
X850000Y3575000D03*
X950000D03*
X850000Y3425000D03*
X950000D03*
X850000Y3325000D03*
X950000D03*
X850000Y3225000D03*
X950000D03*
X850000Y3125000D03*
X950000D03*
X650000Y3500000D03*
X725000Y4000000D03*
X650000D03*
X850000Y3775000D03*
X950000D03*
X850000Y3675000D03*
X950000D03*
X850000Y5250000D03*
X950000D03*
Y5150000D03*
Y5050000D03*
Y4950000D03*
Y4850000D03*
X850000D03*
Y4950000D03*
Y5050000D03*
Y5150000D03*
X1100000Y300000D03*
X1500000D03*
X1450000Y825000D03*
X1150000D03*
X1350000D03*
X1250000D03*
X1050000D03*
X1250000Y1125000D03*
X1350000Y1025000D03*
X1250000D03*
X1350000Y1125000D03*
X1450000D03*
Y1025000D03*
X1050000Y1125000D03*
X1150000D03*
X1050000Y1025000D03*
X1150000D03*
X1450000Y925000D03*
X1250000D03*
X1350000D03*
X1150000D03*
X1050000D03*
X1062500Y1575000D03*
X987500D03*
X1050000Y2175000D03*
X1150000Y2275000D03*
X1050000D03*
X1250000Y2925000D03*
Y2825000D03*
X1050000Y2925000D03*
X1150000D03*
X1050000Y2825000D03*
X1150000D03*
X1250000Y2725000D03*
X1050000D03*
X1150000D03*
X1250000Y3575000D03*
X1050000D03*
X1150000D03*
X1250000Y3425000D03*
Y3325000D03*
X1050000Y3425000D03*
X1150000D03*
X1050000Y3325000D03*
X1150000D03*
X1250000Y3225000D03*
Y3125000D03*
X1050000Y3225000D03*
X1150000D03*
X1050000Y3125000D03*
X1150000D03*
X1050000Y3775000D03*
Y3675000D03*
X1150000D03*
X1400000Y5250000D03*
X1500000D03*
X1250000D03*
X1050000D03*
X1150000D03*
X1400000Y5150000D03*
Y5050000D03*
X1500000D03*
Y5150000D03*
X1400000Y4950000D03*
Y4850000D03*
X1500000D03*
Y4950000D03*
X1250000Y4850000D03*
Y4950000D03*
Y5050000D03*
Y5150000D03*
X1150000D03*
Y5050000D03*
Y4950000D03*
Y4850000D03*
X1050000D03*
Y4950000D03*
Y5050000D03*
Y5150000D03*
X1325000Y5350000D03*
X1900000Y300000D03*
X1850000Y825000D03*
X1950000D03*
X2050000D03*
X1750000D03*
X1650000D03*
X1550000D03*
X1950000Y1125000D03*
Y1025000D03*
X1850000Y1125000D03*
Y1025000D03*
X1650000D03*
X1550000D03*
X1650000Y1125000D03*
X1550000D03*
X1750000Y1025000D03*
Y1125000D03*
X1850000Y925000D03*
X1950000D03*
X2050000Y1025000D03*
Y1125000D03*
Y925000D03*
X1750000D03*
X1650000D03*
X1550000D03*
X1625000Y2250000D03*
X2037500Y4037500D03*
Y3887500D03*
Y3962500D03*
X1900000Y5250000D03*
X2000000D03*
X1800000D03*
X1600000D03*
X1700000D03*
X1900000Y5150000D03*
Y5050000D03*
X2000000D03*
Y5150000D03*
X1900000Y4950000D03*
Y4850000D03*
X2000000D03*
Y4950000D03*
X1800000Y5150000D03*
Y5050000D03*
X1600000Y5150000D03*
Y5050000D03*
X1700000D03*
Y5150000D03*
X1800000Y4950000D03*
Y4850000D03*
X1600000Y4950000D03*
Y4850000D03*
X1700000D03*
Y4950000D03*
X2000000Y5350000D03*
X2150000Y825000D03*
Y1025000D03*
Y1125000D03*
Y925000D03*
X2350000Y1625000D03*
X2337500Y2525000D03*
X2425000Y2100000D03*
X2562500Y2475000D03*
X2337500Y2625000D03*
Y2700000D03*
X2312500Y3012500D03*
X2387500D03*
X2562500Y3287500D03*
X2487500D03*
X2237500Y3537500D03*
Y3612500D03*
X2275000Y4075000D03*
X2625000Y4350000D03*
X2100000Y5250000D03*
X2200000D03*
X2300000D03*
X2100000Y5150000D03*
Y5050000D03*
X2200000D03*
Y5150000D03*
X2300000D03*
Y5050000D03*
X2100000Y4950000D03*
Y4850000D03*
X2200000D03*
Y4950000D03*
X2300000D03*
Y4850000D03*
X2975000Y1400000D03*
Y1275000D03*
Y900000D03*
Y1150000D03*
Y1025000D03*
Y1525000D03*
X2850000Y1675000D03*
X3025000D03*
X2850000Y2050000D03*
X3025000D03*
X2825000Y2475000D03*
X2900000D03*
X2975000D03*
X3050000D03*
X2637500D03*
X3112500Y2762500D03*
X2650000Y3412500D03*
Y3487500D03*
X2950000Y3575000D03*
Y3500000D03*
X2750000Y3787500D03*
X2975000Y3987500D03*
Y4062500D03*
X2825000Y3787500D03*
X2975000Y4200000D03*
X2900000Y3700000D03*
X3500000Y825000D03*
X3600000D03*
X3700000D03*
X3400000D03*
X3700000Y925000D03*
X3600000D03*
X3500000D03*
X3400000D03*
X3700000Y1025000D03*
X3600000D03*
X3500000D03*
X3400000D03*
X3700000Y1125000D03*
X3600000D03*
X3500000D03*
X3400000D03*
X3700000Y1225000D03*
X3600000D03*
X3500000D03*
X3400000D03*
X3700000Y1325000D03*
X3600000D03*
X3500000D03*
X3400000D03*
X3700000Y1425000D03*
X3600000D03*
X3500000D03*
X3400000D03*
X3700000Y1825000D03*
X3600000D03*
X3500000D03*
X3400000D03*
X3700000Y1725000D03*
X3600000D03*
X3500000D03*
X3400000D03*
X3700000Y1525000D03*
X3600000D03*
X3500000D03*
X3400000D03*
X3700000Y1625000D03*
X3600000D03*
X3500000D03*
X3400000D03*
X3737500Y2250000D03*
Y2000000D03*
Y2375000D03*
Y2500000D03*
Y2125000D03*
X3237500Y2475000D03*
X3312500D03*
X3425000Y2887500D03*
X3437500Y2675000D03*
X3425000Y2962500D03*
X3562500Y2700000D03*
X3312500Y2675000D03*
Y2600000D03*
X3337500Y3487500D03*
X3262500D03*
X3450000Y3537500D03*
X3737500Y3525000D03*
Y3400000D03*
Y3275000D03*
Y3650000D03*
X3337500Y3362500D03*
X3430000Y3105000D03*
Y3180000D03*
X3262500Y3362500D03*
X3737500Y3775000D03*
X3375000Y4562500D03*
Y5275000D03*
X4200000Y300000D03*
X3800000D03*
X4225000Y1800000D03*
Y1900000D03*
X4050000Y2250000D03*
X4225000Y2600000D03*
X4062500Y3587500D03*
Y3462500D03*
Y3337500D03*
Y3837500D03*
Y3712500D03*
X4075000Y4250000D03*
X4175000D03*
X4275000D03*
Y4350000D03*
X4175000D03*
X4075000D03*
X4275000Y4450000D03*
X4175000D03*
X4075000D03*
X4275000Y4550000D03*
X4175000D03*
X4075000D03*
X4275000Y4650000D03*
X4175000D03*
X4075000D03*
X4275000Y4750000D03*
X4175000D03*
X4075000D03*
X4275000Y4850000D03*
X4175000D03*
X4075000D03*
X4275000Y4950000D03*
X4175000D03*
X4075000D03*
X4275000Y5050000D03*
X4175000D03*
X4075000D03*
X4275000Y5150000D03*
X4175000D03*
X4075000D03*
X4275000Y5250000D03*
X4175000D03*
X4075000D03*
X4600000Y300000D03*
X4625000Y1800000D03*
X4525000D03*
X4425000D03*
X4325000D03*
X4525000Y1900000D03*
X4425000D03*
X4325000D03*
X4825000Y2400000D03*
Y2300000D03*
X4325000Y2700000D03*
X4625000Y2600000D03*
X4525000D03*
X4425000D03*
X4325000D03*
X4725000Y2700000D03*
X4625000D03*
X4525000D03*
X4425000D03*
X4825000Y2800000D03*
X4725000D03*
X4625000D03*
X4525000D03*
X4425000D03*
X4600000Y3550000D03*
X4825000D03*
X4725000D03*
X4825000Y3650000D03*
X4725000D03*
Y3850000D03*
X4825000D03*
Y3950000D03*
X4375000Y4250000D03*
Y4350000D03*
Y4450000D03*
Y4550000D03*
Y4650000D03*
Y4750000D03*
X4575000Y4250000D03*
X4675000Y4350000D03*
X4575000D03*
X4775000Y4450000D03*
X4675000D03*
X4575000D03*
X4775000Y4550000D03*
X4675000D03*
X4575000D03*
X4775000Y4650000D03*
X4675000D03*
X4575000D03*
X4775000Y4750000D03*
X4675000D03*
X4575000D03*
X4375000Y4850000D03*
Y4950000D03*
Y5050000D03*
Y5150000D03*
Y5250000D03*
X4775000Y4850000D03*
X4675000D03*
X4575000D03*
X4775000Y4950000D03*
X4675000D03*
X4575000D03*
X4775000Y5050000D03*
X4675000D03*
X4575000D03*
X4775000Y5150000D03*
X4675000D03*
X4575000D03*
X4775000Y5250000D03*
X4675000D03*
X4575000D03*
X4475000Y5350000D03*
X5050000Y300000D03*
X5350000Y1300000D03*
X5325000Y1800000D03*
X5225000D03*
X5125000Y1900000D03*
X4925000Y1625000D03*
X5350000Y1700000D03*
X5325000Y2000000D03*
X5225000D03*
X5125000D03*
X5025000D03*
X5325000Y2400000D03*
Y2200000D03*
X5225000D03*
X5125000D03*
X5025000D03*
X4925000D03*
X5225000Y2400000D03*
X5125000D03*
X5025000D03*
X4925000D03*
X5125000Y2300000D03*
X5025000D03*
X4925000D03*
X5350000Y2100000D03*
Y2500000D03*
X5325000Y2600000D03*
Y2800000D03*
X5225000D03*
X5125000D03*
X5325000Y2700000D03*
X5225000D03*
X5125000D03*
X5025000D03*
X5225000Y2600000D03*
X5125000D03*
X5025000D03*
X4925000D03*
X5350000Y2900000D03*
X5225000Y3550000D03*
X5125000D03*
X5025000D03*
X4925000D03*
X5225000Y3650000D03*
X5125000D03*
X5025000D03*
X4925000D03*
Y4050000D03*
Y3850000D03*
Y3950000D03*
X5025000Y4050000D03*
X5125000D03*
X5225000D03*
X5325000D03*
X5025000Y3850000D03*
X5125000D03*
X5225000D03*
X5325000D03*
X5025000Y3950000D03*
X5125000D03*
X5225000D03*
X5325000D03*
X5350000Y4150000D03*
Y3750000D03*
X5025000Y4550000D03*
X5225000Y4650000D03*
X5125000D03*
X5025000D03*
Y4750000D03*
X5125000D03*
X5225000D03*
X5325000D03*
Y4250000D03*
X5225000D03*
X5125000D03*
X5025000D03*
X5325000Y4350000D03*
X5225000D03*
X5125000D03*
X5325000Y4450000D03*
X5225000D03*
X5350000Y4550000D03*
X5025000Y4850000D03*
X5125000D03*
X5225000D03*
X5325000D03*
X5025000Y4950000D03*
X5125000D03*
X5225000D03*
X5325000D03*
X5025000Y5050000D03*
X5125000D03*
X5225000D03*
X5325000D03*
X5025000Y5150000D03*
X5125000D03*
X5225000D03*
X5325000D03*
X5025000Y5250000D03*
X5125000D03*
X5225000D03*
X5325000D03*
X4875000Y5350000D03*
G54D31*
G01X1835000Y2250000D02*
Y2100000D01*
X1785000Y2050000D01*
X1275000D01*
X1225000Y2000000D01*
Y1830000D01*
G01X1025000Y1807500D02*
X1202500D01*
X1225000Y1830000D01*
G01X1425000Y1620000D02*
X1490000D01*
X1525000Y1655000D01*
Y1780000D01*
X1575000Y1830000D01*
X1625000D01*
G01X1225000Y1620000D02*
X1290000D01*
X1325000Y1655000D01*
Y1780000D01*
X1375000Y1830000D01*
X1425000D01*
G01X2025000Y1620000D02*
X2090000D01*
X2125000Y1655000D01*
Y1780000D01*
X2175000Y1830000D01*
X2225000D01*
G01X1825000Y1620000D02*
X1890000D01*
X1925000Y1655000D01*
Y1780000D01*
X1975000Y1830000D01*
X2025000D01*
G01X1625000Y1620000D02*
X1690000D01*
X1725000Y1655000D01*
Y1780000D01*
X1775000Y1830000D01*
X1825000D01*
G01X1835000Y2250000D02*
X1625000D01*
G01X2225000Y1620000D02*
X2230000Y1625000D01*
X2350000D01*
G01X2225000Y2237500D02*
Y2325000D01*
G01D02*
X2287500Y2387500D01*
X2412500D01*
X2475000Y2450000D01*
Y2600000D01*
X2687500Y2812500D01*
G01X2422500Y2250000D02*
Y2102500D01*
X2425000Y2100000D01*
G01X2750000Y2662500D02*
Y2437500D01*
X2672500Y2360000D01*
X2650000D01*
G01X3125000Y2650000D02*
Y2437500D01*
X3202500Y2360000D01*
X3225000D01*
G01X3540000Y3037500D02*
X3217500D01*
X3195000Y3015000D01*
G01X3375000Y4992500D02*
Y4782500D01*
G01X4660000Y1375000D02*
X4882500D01*
X4925000Y1417500D01*
G54D13*
X1425000Y1620000D03*
Y1830000D03*
X1225000Y1620000D03*
Y1830000D03*
X2025000Y1620000D03*
Y1830000D03*
X1825000Y1620000D03*
Y1830000D03*
X1625000Y1620000D03*
Y1830000D03*
X2225000Y1620000D03*
Y1830000D03*
G54D22*
X2125000Y3445000D03*
Y3355000D03*
Y3130000D03*
Y3220000D03*
G54D32*
G01X2687500Y2812500D02*
X2700000Y2825000D01*
Y2854990D01*
X2725010Y2880000D01*
X2740000D01*
G01X2275000Y4075000D02*
Y4020000D01*
X2282500Y4012500D01*
G01D02*
X2327500Y3967500D01*
Y3877500D01*
G01X2860000Y2772500D02*
X2750000Y2662500D01*
G01X3020000Y2755000D02*
X3125000Y2650000D01*
G01X2682500Y2920000D02*
X2740000D01*
G01X2980000Y2840000D02*
Y2732500D01*
G01X2900000Y2840000D02*
Y2737500D01*
G01X3060000Y2960000D02*
X3177500D01*
G01X2860000Y2840000D02*
Y2772500D01*
G01X3020000Y2840000D02*
Y2755000D01*
G01X2740000Y2960000D02*
X2660000D01*
G01X3180000Y3000000D02*
X3060000D01*
G01X2740000D02*
X2687500D01*
G01X3060000Y3040000D02*
X3132500D01*
G01X2820000Y2840000D02*
Y2807500D01*
G01X3060000Y2880000D02*
X3072500D01*
G01X2820000Y2840000D02*
Y2880000D01*
G01X3060000Y2920000D02*
X3115000D01*
G01X3072500Y2880000D02*
X3090000D01*
G01X3072500D02*
X3112500Y2840000D01*
G01X2780000Y3160000D02*
X2740000D01*
G01D02*
Y3120000D01*
G01D02*
X2710000D01*
G01X3060000D02*
Y3160000D01*
G01Y3120000D02*
X3065000D01*
X3090000Y3145000D01*
G01X3020000Y3160000D02*
Y3300000D01*
G01X2940000Y3160000D02*
Y3222500D01*
X2875000Y3287500D01*
Y3675000D01*
X2900000Y3700000D01*
G01X2850000Y3250000D02*
X2900000Y3200000D01*
G01D02*
Y3160000D01*
G01X2860000D02*
Y3185000D01*
G01X2820000Y3160000D02*
X2860000D01*
G01X3060000Y3080000D02*
X3100000D01*
G01X2820000Y3120000D02*
Y3160000D01*
G01X2980000D02*
Y3220000D01*
G01X2730000Y4350000D02*
X2625000D01*
G01X3195000Y3015000D02*
X3180000Y3000000D01*
G01X3375000Y4667500D02*
Y4562500D01*
G01X3842500Y2000000D02*
X3737500D01*
G01X3957500Y2250000D02*
X4050000D01*
G01X3842500Y2375000D02*
X3737500D01*
G01X3842500Y2125000D02*
X3737500D01*
G01X3842500Y2500000D02*
X3737500D01*
G01X3842500Y3525000D02*
X3737500D01*
G01X3842500Y3400000D02*
X3737500D01*
G01X3842500Y3275000D02*
X3737500D01*
G01X3842500Y3775000D02*
X3737500D01*
G01Y3650000D02*
X3842500D01*
G01D02*
Y3660000D01*
X3957500Y3775000D01*
G01X4475000Y5525000D02*
Y5350000D01*
G01X5050000Y475000D02*
Y300000D01*
G01X5525000Y1300000D02*
X5350000D01*
G01X4925000Y1532500D02*
Y1625000D01*
G01X5350000Y1700000D02*
X5525000D01*
G01Y2500000D02*
X5350000D01*
G01X5525000Y2900000D02*
X5350000D01*
G01X5525000Y4150000D02*
X5350000D01*
G01X5525000Y3750000D02*
X5350000D01*
G01X5525000Y4550000D02*
X5350000D01*
G01X4875000Y5525000D02*
Y5350000D01*
G54D14*
X1025000Y1807500D03*
Y1692500D03*
X3025000Y1895000D03*
Y1780000D03*
X2850000Y1895000D03*
Y1780000D03*
X3025000Y2155000D03*
Y2270000D03*
X2850000Y2155000D03*
Y2270000D03*
X3450000Y2167500D03*
Y2282500D03*
Y3757500D03*
Y3642500D03*
X3325000Y3757500D03*
Y3642500D03*
X3375000Y4667500D03*
Y4782500D03*
X4925000Y1417500D03*
Y1532500D03*
G54D23*
X2512500Y3400000D03*
X2362500D03*
X2512500Y3575000D03*
X2362500D03*
X2712500Y4025000D03*
X2862500D03*
Y4200000D03*
X2712500D03*
G54D33*
G01X3375000Y5157500D02*
Y5275000D01*
G54D24*
X2327500Y3747500D03*
Y3812500D03*
Y3877500D03*
X2122500D03*
Y3812500D03*
Y3747500D03*
G54D15*
X1835000Y2250000D03*
G54D34*
G01X475000Y2000000D02*
X650000D01*
G01X475000Y3000000D02*
X650000D01*
G01X475000Y3500000D02*
X650000D01*
G01X1100000Y475000D02*
Y300000D01*
G01X1325000Y5525000D02*
Y5350000D01*
G01X1900000Y475000D02*
Y300000D01*
G01X1500000Y475000D02*
Y300000D01*
G01X1937500Y3162500D02*
X1975000D01*
X2032500Y3220000D01*
X2125000D01*
G01X1937500Y3412500D02*
X1975000D01*
X2032500Y3355000D01*
X2125000D01*
G01X2000000Y5525000D02*
Y5350000D01*
G01X2740000Y3040000D02*
X2560000D01*
X2337500Y3262500D01*
X2200000D01*
X2157500Y3220000D01*
X2125000D01*
G01X2220000Y2525000D02*
X2337500D01*
G01X2740000Y3080000D02*
X2595000D01*
X2362500Y3312500D01*
X2200000D01*
X2157500Y3355000D01*
X2125000D01*
G01X2870000Y1275000D02*
X2975000D01*
G01X2870000Y900000D02*
X2975000D01*
G01X2870000Y1150000D02*
X2975000D01*
G01X2870000Y1025000D02*
X2975000D01*
G01X2870000Y1400000D02*
X2975000D01*
G01X2870000Y1525000D02*
X2975000D01*
G01X2850000Y1780000D02*
Y1675000D01*
G01X3025000Y1780000D02*
Y1675000D01*
G01X2750000Y3875000D02*
X2730000D01*
G01X2750000Y3787500D02*
X2775000Y3812500D01*
Y3850000D01*
X2750000Y3875000D01*
G01X2712500Y4200000D02*
Y4025000D01*
G01D02*
X2725000D01*
G01D02*
X2775000Y3975000D01*
Y3900000D01*
X2750000Y3875000D01*
G01X2845000D02*
X2825000D01*
G01Y3787500D02*
X2800000Y3812500D01*
Y3850000D01*
X2825000Y3875000D01*
G01X2862500Y4025000D02*
X2850000D01*
G01D02*
X2800000Y3975000D01*
Y3900000D01*
X2825000Y3875000D01*
G01X2925000Y5525000D02*
Y4700000D01*
X2845000Y4620000D01*
Y4350000D01*
G01X2862500Y4200000D02*
X2975000D01*
G01X2845000Y4350000D02*
Y4217500D01*
X2862500Y4200000D01*
G01X3642500Y2700000D02*
X3562500D01*
G01X3450000Y3642500D02*
Y3537500D01*
G01X4200000Y475000D02*
Y300000D01*
G01X3800000Y475000D02*
Y300000D01*
G01X3842500Y2250000D02*
X3737500D01*
G01X4600000Y475000D02*
Y300000D01*
G01X5525000Y2100000D02*
X5350000D01*
G54D25*
X2225000Y3777500D03*
G54D16*
X2025000Y2250000D03*
G54D35*
G01X650000Y4000000D02*
X725000D01*
G01X475000D02*
X650000D01*
G54D26*
X2225000Y3885000D03*
G54D17*
X1937500Y3412500D03*
Y3162500D03*
G54D18*
X2422500Y2250000D03*
X2227500D03*
X2285000Y2850000D03*
X2090000D03*
X3552500Y3037500D03*
X3747500D03*
G54D27*
X2525000Y3775000D03*
Y3925000D03*
G54D19*
X2650000Y2347500D03*
Y2152500D03*
X3100000Y3577500D03*
Y3772500D03*
X3225000Y2347500D03*
Y2152500D03*
G54D28*
G01X2860000Y2960000D02*
X2900000D01*
G01D02*
X2940000D01*
G01D02*
Y3000000D01*
G01X2900000D02*
X2940000D01*
G01X2900000Y2960000D02*
Y3000000D01*
G01X2860000D02*
X2900000D01*
G01X2860000Y2960000D02*
Y3000000D01*
G01X2900000D02*
Y3040000D01*
G01D02*
X2940000D01*
G01Y3000000D02*
Y3040000D01*
X3060000Y2840000D03*
X3020000D03*
X2980000D03*
X2940000D03*
X2900000D03*
X2860000D03*
X2820000D03*
X2780000D03*
X2740000D03*
X3060000Y2880000D03*
X3020000D03*
X2980000D03*
X2940000D03*
X2900000D03*
X2860000D03*
X2820000D03*
X2780000D03*
X2740000D03*
X3060000Y2920000D03*
X3020000D03*
X2980000D03*
X2940000D03*
X2900000D03*
X2860000D03*
X2820000D03*
X2780000D03*
X2740000D03*
X3060000Y2960000D03*
X3020000D03*
X2980000D03*
X2940000D03*
X2900000D03*
X2860000D03*
X2820000D03*
X2780000D03*
X2740000D03*
X3060000Y3000000D03*
X3020000D03*
X2980000D03*
X2940000D03*
X2900000D03*
X2860000D03*
X2820000D03*
X2780000D03*
X2740000D03*
X3060000Y3040000D03*
X3020000D03*
X2980000D03*
X2940000D03*
X2900000D03*
X2820000D03*
X2780000D03*
X2740000D03*
X2860000Y2920000D03*
X2980000D03*
X2940000Y3000000D03*
X3060000Y2840000D03*
X2740000D03*
X3020000Y2960000D03*
X2780000D03*
Y2920000D03*
X2900000Y3000000D03*
X2940000Y3040000D03*
X2900000D03*
X2860000Y3000000D03*
Y2960000D03*
X2900000D03*
X2940000D03*
X2900000Y2880000D03*
Y2920000D03*
X2980000Y2960000D03*
X2820000Y3040000D03*
X2980000Y3000000D03*
X2780000Y3040000D03*
X2940000Y2920000D03*
X3020000Y3000000D03*
X2860000Y2880000D03*
X2980000D03*
X2780000Y3000000D03*
X2820000Y2960000D03*
Y3000000D03*
Y2920000D03*
X2780000Y2880000D03*
Y2840000D03*
X2940000D03*
X3020000Y3040000D03*
X2980000D03*
X3020000Y2880000D03*
Y2920000D03*
X2940000Y2880000D03*
X3060000Y3080000D03*
X3020000D03*
X2980000D03*
X2940000D03*
X2900000D03*
X2860000D03*
X2820000D03*
X2780000D03*
X2740000D03*
X3060000Y3120000D03*
X3020000D03*
X2980000D03*
X2940000D03*
X2900000D03*
X2860000D03*
X2820000D03*
X2780000D03*
X2740000D03*
X3060000Y3160000D03*
X3020000D03*
X2980000D03*
X2940000D03*
X2900000D03*
X2860000D03*
X2820000D03*
X2780000D03*
X2740000D03*
X2900000Y3080000D03*
X2940000Y3120000D03*
X2900000D03*
X2780000Y3080000D03*
Y3120000D03*
X2820000Y3080000D03*
X2860000D03*
X3020000Y3120000D03*
X2940000Y3080000D03*
X2860000Y3120000D03*
X2980000Y3080000D03*
X3020000D03*
X2980000Y3120000D03*
G54D29*
X4660000Y1225000D03*
Y1375000D03*
M02*
