M48
INCH,TZ
T01C.003937
T02C.005906
T03C.011811
T04C.125984
;LEADER: 12 
;HEADER: 
;CODE  : ASCII 
;FILE  : 57537-BD71815GW_v4-4-5.drd for board #Taaaaak03904.tmp ... layers LAYER4 and LAYER5
;T01 Holesize 1. = 3.937008 Tolerance = +0.000000/-0.000000 PLATED MILS Quantity = 30
%
G90
T01
X109449Y113386
X109449Y118110
X109449Y119685
X111024Y119685
X112598Y114961
X112598Y118110
X114173Y113386
X114173Y114961
X114173Y118110
X114173Y119685
X115748Y111811
X115748Y113386
X115748Y114961
X115748Y118110
X117323Y114961
X117323Y116535
X117323Y118110
X117323Y119685
X118898Y113386
X118898Y114961
X118898Y118110
X118898Y119685
X118898Y122835
X118898Y121260
X117323Y122835
X117323Y121260
X115748Y121260
X112598Y122835
X111024Y121260
X109449Y122835
M30
