M48
INCH,TZ
T01C.003937
T02C.005906
T03C.011811
T04C.125984
;LEADER: 12 
;HEADER: 
;CODE  : ASCII 
;FILE  : 57537-BD71815GW_v4-1-2.drd for board #Taaaaak03904.tmp ... layers TOP and LAYER2
;T01 Holesize 1. = 3.937008 Tolerance = +0.000000/-0.000000 PLATED MILS Quantity = 50
%
G90
T01
X107874Y111811
X109449Y111811
X109449Y113386
X109449Y114961
X109449Y116535
X109449Y118110
X109449Y119685
X111024Y114961
X111024Y116535
X111024Y118110
X111024Y119685
X112598Y113386
X112598Y114961
X112598Y116535
X112598Y118110
X114173Y113386
X114173Y114961
X114173Y116535
X114173Y118110
X114173Y119685
X115748Y111811
X115748Y113386
X115748Y114961
X115748Y116535
X115748Y118110
X115748Y119685
X117323Y113386
X117323Y114961
X117323Y116535
X117323Y118110
X117323Y119685
X118898Y113386
X118898Y114961
X118898Y116535
X118898Y118110
X118898Y119685
X120472Y111811
X118898Y122835
X118898Y121260
X117323Y122835
X117323Y121260
X115748Y122835
X115748Y121260
X114173Y122835
X114173Y121260
X112598Y122835
X112598Y121260
X111024Y121260
X109449Y122835
X109449Y121260
M30
