G04 ================== begin FILE IDENTIFICATION RECORD ==================*
G04 Layout Name:  BD71815GW_v4.brd*
G04 Film Name:    57537-BD71815GW_v4.g2*
G04 File Format:  Gerber RS274X*
G04 File Origin:  Cadence Allegro 16.6-S012*
G04 Origin Date:  Tue Feb 02 09:15:57 2016*
G04 *
G04 Layer:  VIA CLASS/LAYER3*
G04 Layer:  PIN/LAYER3*
G04 Layer:  ETCH/LAYER3*
G04 *
G04 Offset:    (0.0000 0.0000)*
G04 Mirror:    No*
G04 Mode:      Positive*
G04 Rotation:  0*
G04 FullContactRelief:  No*
G04 UndefLineWidth:     0.0000*
G04 ================== end FILE IDENTIFICATION RECORD ====================*
%FSLAX25Y25*MOMM*%
%IR0*IPPOS*OFA0.00000B0.00000*MIA0B0*SFA1.00000B1.00000*%
%ADD11C,.6*%
%ADD12C,.275*%
%ADD10C,3.2*%
%ADD14C,1.1004*%
%ADD13C,4.5004*%
G75*
%LPD*%
G75*
G36*
G01X55090Y50010D02*
G02X50010Y55090I0J5080D01*
G01Y5944910D01*
G02X55090Y5949990I5080J0D01*
G01X5944910D01*
G02X5949990Y5944910I0J-5080D01*
G01Y55090D01*
G02X5944910Y50010I-5080J0D01*
G01X55090D01*
G37*
%LPC*%
G75*
G36*
G01X2886480Y3753350D02*
X2887870Y3753670D01*
G02X2848820Y3720190I12134J-53666D01*
G01X2849340Y3721520D01*
X2848880Y3724290D01*
X2841180Y3733260D01*
X2838520Y3734150D01*
X2837130Y3733830D01*
G02X2790670Y3744500I-12130J53669D01*
G03X2784330I-3170J-3966D01*
G02Y3830500I-34330J43000D01*
G03X2790670I3170J3966D01*
G02X2876180Y3767310I34329J-42998D01*
G01X2875660Y3765980D01*
X2876120Y3763210D01*
X2883820Y3754240D01*
X2886480Y3753350D01*
G37*
G36*
G01X905030Y791520D02*
X894970D01*
X892930Y790570D01*
X892210Y789700D01*
G02X814700Y867210I-42210J35300D01*
G01X815570Y867930D01*
X816520Y869970D01*
Y880030D01*
X815570Y882070D01*
X814700Y882790D01*
G02Y967210I35300J42210D01*
G01X815570Y967930D01*
X816520Y969970D01*
Y980030D01*
X815570Y982070D01*
X814700Y982790D01*
G02Y1067210I35300J42210D01*
G01X815570Y1067930D01*
X816520Y1069970D01*
Y1080030D01*
X815570Y1082070D01*
X814700Y1082790D01*
G02X892210Y1160300I35300J42210D01*
G01X892930Y1159430D01*
X894970Y1158480D01*
X905030D01*
X907070Y1159430D01*
X907790Y1160300D01*
G02X992210I42210J-35300D01*
G01X992930Y1159430D01*
X994970Y1158480D01*
X1005030D01*
X1007070Y1159430D01*
X1007790Y1160300D01*
G02X1092210I42210J-35300D01*
G01X1092930Y1159430D01*
X1094970Y1158480D01*
X1105030D01*
X1107070Y1159430D01*
X1107790Y1160300D01*
G02X1192210I42210J-35300D01*
G01X1192930Y1159430D01*
X1194970Y1158480D01*
X1205030D01*
X1207070Y1159430D01*
X1207790Y1160300D01*
G02X1292210I42210J-35300D01*
G01X1292930Y1159430D01*
X1294970Y1158480D01*
X1305030D01*
X1307070Y1159430D01*
X1307790Y1160300D01*
G02X1392210I42210J-35300D01*
G01X1392930Y1159430D01*
X1394970Y1158480D01*
X1405030D01*
X1407070Y1159430D01*
X1407790Y1160300D01*
G02X1492210I42210J-35300D01*
G01X1492930Y1159430D01*
X1494970Y1158480D01*
X1505030D01*
X1507070Y1159430D01*
X1507790Y1160300D01*
G02X1592210I42210J-35300D01*
G01X1592930Y1159430D01*
X1594970Y1158480D01*
X1605030D01*
X1607070Y1159430D01*
X1607790Y1160300D01*
G02X1692210I42210J-35300D01*
G01X1692930Y1159430D01*
X1694970Y1158480D01*
X1705030D01*
X1707070Y1159430D01*
X1707790Y1160300D01*
G02X1792210I42210J-35300D01*
G01X1792930Y1159430D01*
X1794970Y1158480D01*
X1805030D01*
X1807070Y1159430D01*
X1807790Y1160300D01*
G02X1892210I42210J-35300D01*
G01X1892930Y1159430D01*
X1894970Y1158480D01*
X1905030D01*
X1907070Y1159430D01*
X1907790Y1160300D01*
G02X1992210I42210J-35300D01*
G01X1992930Y1159430D01*
X1994970Y1158480D01*
X2005030D01*
X2007070Y1159430D01*
X2007790Y1160300D01*
G02X2092210I42210J-35300D01*
G01X2092930Y1159430D01*
X2094970Y1158480D01*
X2105030D01*
X2107070Y1159430D01*
X2107790Y1160300D01*
G02X2185300Y1082790I42210J-35300D01*
G01X2184430Y1082070D01*
X2183480Y1080030D01*
Y1069970D01*
X2184430Y1067930D01*
X2185300Y1067210D01*
G02Y982790I-35300J-42210D01*
G01X2184430Y982070D01*
X2183480Y980030D01*
Y969970D01*
X2184430Y967930D01*
X2185300Y967210D01*
G02Y882790I-35300J-42210D01*
G01X2184430Y882070D01*
X2183480Y880030D01*
Y869970D01*
X2184430Y867930D01*
X2185300Y867210D01*
G02X2107790Y789700I-35300J-42210D01*
G01X2107070Y790570D01*
X2105030Y791520D01*
X2094970D01*
X2092930Y790570D01*
X2092210Y789700D01*
G02X2007790I-42210J35300D01*
G01X2007070Y790570D01*
X2005030Y791520D01*
X1994970D01*
X1992930Y790570D01*
X1992210Y789700D01*
G02X1907790I-42210J35300D01*
G01X1907070Y790570D01*
X1905030Y791520D01*
X1894970D01*
X1892930Y790570D01*
X1892210Y789700D01*
G02X1807790I-42210J35300D01*
G01X1807070Y790570D01*
X1805030Y791520D01*
X1794970D01*
X1792930Y790570D01*
X1792210Y789700D01*
G02X1707790I-42210J35300D01*
G01X1707070Y790570D01*
X1705030Y791520D01*
X1694970D01*
X1692930Y790570D01*
X1692210Y789700D01*
G02X1607790I-42210J35300D01*
G01X1607070Y790570D01*
X1605030Y791520D01*
X1594970D01*
X1592930Y790570D01*
X1592210Y789700D01*
G02X1507790I-42210J35300D01*
G01X1507070Y790570D01*
X1505030Y791520D01*
X1494970D01*
X1492930Y790570D01*
X1492210Y789700D01*
G02X1407790I-42210J35300D01*
G01X1407070Y790570D01*
X1405030Y791520D01*
X1394970D01*
X1392930Y790570D01*
X1392210Y789700D01*
G02X1307790I-42210J35300D01*
G01X1307070Y790570D01*
X1305030Y791520D01*
X1294970D01*
X1292930Y790570D01*
X1292210Y789700D01*
G02X1207790I-42210J35300D01*
G01X1207070Y790570D01*
X1205030Y791520D01*
X1194970D01*
X1192930Y790570D01*
X1192210Y789700D01*
G02X1107790I-42210J35300D01*
G01X1107070Y790570D01*
X1105030Y791520D01*
X1094970D01*
X1092930Y790570D01*
X1092210Y789700D01*
G02X1007790I-42210J35300D01*
G01X1007070Y790570D01*
X1005030Y791520D01*
X994970D01*
X992930Y790570D01*
X992210Y789700D01*
G02X907790I-42210J35300D01*
G01X907070Y790570D01*
X905030Y791520D01*
G37*
G36*
G01X3455030D02*
X3444970D01*
X3442930Y790570D01*
X3442210Y789700D01*
G02X3364700Y867210I-42210J35300D01*
G01X3365570Y867930D01*
X3366520Y869970D01*
Y880030D01*
X3365570Y882070D01*
X3364700Y882790D01*
G02Y967210I35300J42210D01*
G01X3365570Y967930D01*
X3366520Y969970D01*
Y980030D01*
X3365570Y982070D01*
X3364700Y982790D01*
G02Y1067210I35300J42210D01*
G01X3365570Y1067930D01*
X3366520Y1069970D01*
Y1080030D01*
X3365570Y1082070D01*
X3364700Y1082790D01*
G02Y1167210I35300J42210D01*
G01X3365570Y1167930D01*
X3366520Y1169970D01*
Y1180030D01*
X3365570Y1182070D01*
X3364700Y1182790D01*
G02Y1267210I35300J42210D01*
G01X3365570Y1267930D01*
X3366520Y1269970D01*
Y1280030D01*
X3365570Y1282070D01*
X3364700Y1282790D01*
G02Y1367210I35300J42210D01*
G01X3365570Y1367930D01*
X3366520Y1369970D01*
Y1380030D01*
X3365570Y1382070D01*
X3364700Y1382790D01*
G02Y1467210I35300J42210D01*
G01X3365570Y1467930D01*
X3366520Y1469970D01*
Y1480030D01*
X3365570Y1482070D01*
X3364700Y1482790D01*
G02Y1567210I35300J42210D01*
G01X3365570Y1567930D01*
X3366520Y1569970D01*
Y1580030D01*
X3365570Y1582070D01*
X3364700Y1582790D01*
G02Y1667210I35300J42210D01*
G01X3365570Y1667930D01*
X3366520Y1669970D01*
Y1680030D01*
X3365570Y1682070D01*
X3364700Y1682790D01*
G02Y1767210I35300J42210D01*
G01X3365570Y1767930D01*
X3366520Y1769970D01*
Y1780030D01*
X3365570Y1782070D01*
X3364700Y1782790D01*
G02X3442210Y1860300I35300J42210D01*
G01X3442930Y1859430D01*
X3444970Y1858480D01*
X3455030D01*
X3457070Y1859430D01*
X3457790Y1860300D01*
G02X3542210I42210J-35300D01*
G01X3542930Y1859430D01*
X3544970Y1858480D01*
X3555030D01*
X3557070Y1859430D01*
X3557790Y1860300D01*
G02X3642210I42210J-35300D01*
G01X3642930Y1859430D01*
X3644970Y1858480D01*
X3655030D01*
X3657070Y1859430D01*
X3657790Y1860300D01*
G02X3735300Y1782790I42210J-35300D01*
G01X3734430Y1782070D01*
X3733480Y1780030D01*
Y1769970D01*
X3734430Y1767930D01*
X3735300Y1767210D01*
G02Y1682790I-35300J-42210D01*
G01X3734430Y1682070D01*
X3733480Y1680030D01*
Y1669970D01*
X3734430Y1667930D01*
X3735300Y1667210D01*
G02Y1582790I-35300J-42210D01*
G01X3734430Y1582070D01*
X3733480Y1580030D01*
Y1569970D01*
X3734430Y1567930D01*
X3735300Y1567210D01*
G02Y1482790I-35300J-42210D01*
G01X3734430Y1482070D01*
X3733480Y1480030D01*
Y1469970D01*
X3734430Y1467930D01*
X3735300Y1467210D01*
G02Y1382790I-35300J-42210D01*
G01X3734430Y1382070D01*
X3733480Y1380030D01*
Y1369970D01*
X3734430Y1367930D01*
X3735300Y1367210D01*
G02Y1282790I-35300J-42210D01*
G01X3734430Y1282070D01*
X3733480Y1280030D01*
Y1269970D01*
X3734430Y1267930D01*
X3735300Y1267210D01*
G02Y1182790I-35300J-42210D01*
G01X3734430Y1182070D01*
X3733480Y1180030D01*
Y1169970D01*
X3734430Y1167930D01*
X3735300Y1167210D01*
G02Y1082790I-35300J-42210D01*
G01X3734430Y1082070D01*
X3733480Y1080030D01*
Y1069970D01*
X3734430Y1067930D01*
X3735300Y1067210D01*
G02Y982790I-35300J-42210D01*
G01X3734430Y982070D01*
X3733480Y980030D01*
Y969970D01*
X3734430Y967930D01*
X3735300Y967210D01*
G02Y882790I-35300J-42210D01*
G01X3734430Y882070D01*
X3733480Y880030D01*
Y869970D01*
X3734430Y867930D01*
X3735300Y867210D01*
G02X3657790Y789700I-35300J-42210D01*
G01X3657070Y790570D01*
X3655030Y791520D01*
X3644970D01*
X3642930Y790570D01*
X3642210Y789700D01*
G02X3557790I-42210J35300D01*
G01X3557070Y790570D01*
X3555030Y791520D01*
X3544970D01*
X3542930Y790570D01*
X3542210Y789700D01*
G02X3457790I-42210J35300D01*
G01X3457070Y790570D01*
X3455030Y791520D01*
G37*
G36*
G01X1021830Y1532000D02*
G02Y1618000I-34330J43000D01*
G03X1028170I3170J3966D01*
G02Y1532000I34330J-43000D01*
G03X1021830I-3170J-3966D01*
G37*
G36*
G01X5367000Y1762730D02*
X5369530Y1752650D01*
X5371040Y1750850D01*
X5372120Y1750380D01*
G02X5306770Y1734040I-22121J-50379D01*
G01X5307500Y1734970D01*
X5308000Y1737270D01*
X5305470Y1747350D01*
X5303960Y1749150D01*
X5302880Y1749620D01*
G02X5282790Y1764700I22114J50383D01*
G01X5282070Y1765570D01*
X5280030Y1766520D01*
X5269970D01*
X5267930Y1765570D01*
X5267210Y1764700D01*
G02Y1835300I-42210J35300D01*
G01X5267930Y1834430D01*
X5269970Y1833480D01*
X5280030D01*
X5282070Y1834430D01*
X5282790Y1835300D01*
G02X5368230Y1765960I42209J-35299D01*
G01X5367500Y1765030D01*
X5367000Y1762730D01*
G37*
G36*
G01X4280030Y1766520D02*
X4269970D01*
X4267930Y1765570D01*
X4267210Y1764700D01*
G02X4189700Y1842210I-42210J35300D01*
G01X4190570Y1842930D01*
X4191520Y1844970D01*
Y1855030D01*
X4190570Y1857070D01*
X4189700Y1857790D01*
G02X4267210Y1935300I35300J42210D01*
G01X4267930Y1934430D01*
X4269970Y1933480D01*
X4280030D01*
X4282070Y1934430D01*
X4282790Y1935300D01*
G02X4367210I42210J-35300D01*
G01X4367930Y1934430D01*
X4369970Y1933480D01*
X4380030D01*
X4382070Y1934430D01*
X4382790Y1935300D01*
G02X4467210I42210J-35300D01*
G01X4467930Y1934430D01*
X4469970Y1933480D01*
X4480030D01*
X4482070Y1934430D01*
X4482790Y1935300D01*
G02X4560300Y1857790I42210J-35300D01*
G01X4559430Y1857070D01*
X4558480Y1855030D01*
Y1844970D01*
X4559430Y1842930D01*
X4560300Y1842210D01*
G02X4567210Y1835300I-35300J-42210D01*
G01X4567930Y1834430D01*
X4569970Y1833480D01*
X4580030D01*
X4582070Y1834430D01*
X4582790Y1835300D01*
G02Y1764700I42210J-35300D01*
G01X4582070Y1765570D01*
X4580030Y1766520D01*
X4569970D01*
X4567930Y1765570D01*
X4567210Y1764700D01*
G02X4482790I-42210J35300D01*
G01X4482070Y1765570D01*
X4480030Y1766520D01*
X4469970D01*
X4467930Y1765570D01*
X4467210Y1764700D01*
G02X4382790I-42210J35300D01*
G01X4382070Y1765570D01*
X4380030Y1766520D01*
X4369970D01*
X4367930Y1765570D01*
X4367210Y1764700D01*
G02X4282790I-42210J35300D01*
G01X4282070Y1765570D01*
X4280030Y1766520D01*
G37*
G36*
G01X5269970Y2833480D02*
X5280030D01*
X5282070Y2834430D01*
X5282790Y2835300D01*
G02X5302880Y2850380I42204J-35303D01*
G01X5303960Y2850850D01*
X5305470Y2852650D01*
X5308000Y2862730D01*
X5307500Y2865030D01*
X5306770Y2865960D01*
G02X5372120Y2849620I43229J34039D01*
G01X5371040Y2849150D01*
X5369530Y2847350D01*
X5367000Y2837270D01*
X5367500Y2834970D01*
X5368230Y2834040D01*
G02X5360300Y2757790I-43228J-34042D01*
G01X5359430Y2757070D01*
X5358480Y2755030D01*
Y2744970D01*
X5359430Y2742930D01*
X5360300Y2742210D01*
G02Y2657790I-35300J-42210D01*
G01X5359430Y2657070D01*
X5358480Y2655030D01*
Y2644970D01*
X5359430Y2642930D01*
X5360300Y2642210D01*
G02X5368230Y2565960I-35298J-42208D01*
G01X5367500Y2565030D01*
X5367000Y2562730D01*
X5369530Y2552650D01*
X5371040Y2550850D01*
X5372120Y2550380D01*
G02Y2449620I-22120J-50380D01*
G01X5371040Y2449150D01*
X5369530Y2447350D01*
X5367000Y2437270D01*
X5367500Y2434970D01*
X5368230Y2434040D01*
G02X5282790Y2364700I-43231J-34041D01*
G01X5282070Y2365570D01*
X5280030Y2366520D01*
X5269970D01*
X5267930Y2365570D01*
X5267210Y2364700D01*
G02X5182790I-42210J35300D01*
G01X5182070Y2365570D01*
X5180030Y2366520D01*
X5169970D01*
X5167930Y2365570D01*
X5167210Y2364700D01*
G02X5160300Y2357790I-42210J35300D01*
G01X5159430Y2357070D01*
X5158480Y2355030D01*
Y2344970D01*
X5159430Y2342930D01*
X5160300Y2342210D01*
G02Y2257790I-35300J-42210D01*
G01X5159430Y2257070D01*
X5158480Y2255030D01*
Y2244970D01*
X5159430Y2242930D01*
X5160300Y2242210D01*
G02X5167210Y2235300I-35300J-42210D01*
G01X5167930Y2234430D01*
X5169970Y2233480D01*
X5180030D01*
X5182070Y2234430D01*
X5182790Y2235300D01*
G02X5267210I42210J-35300D01*
G01X5267930Y2234430D01*
X5269970Y2233480D01*
X5280030D01*
X5282070Y2234430D01*
X5282790Y2235300D01*
G02X5368230Y2165960I42209J-35299D01*
G01X5367500Y2165030D01*
X5367000Y2162730D01*
X5369530Y2152650D01*
X5371040Y2150850D01*
X5372120Y2150380D01*
G02Y2049620I-22120J-50380D01*
G01X5371040Y2049150D01*
X5369530Y2047350D01*
X5367000Y2037270D01*
X5367500Y2034970D01*
X5368230Y2034040D01*
G02X5282790Y1964700I-43231J-34041D01*
G01X5282070Y1965570D01*
X5280030Y1966520D01*
X5269970D01*
X5267930Y1965570D01*
X5267210Y1964700D01*
G02X5182790I-42210J35300D01*
G01X5182070Y1965570D01*
X5180030Y1966520D01*
X5169970D01*
X5167930Y1965570D01*
X5167210Y1964700D01*
G02X5160300Y1957790I-42210J35300D01*
G01X5159430Y1957070D01*
X5158480Y1955030D01*
Y1944970D01*
X5159430Y1942930D01*
X5160300Y1942210D01*
G02X5089700I-35300J-42210D01*
G01X5090570Y1942930D01*
X5091520Y1944970D01*
Y1955030D01*
X5090570Y1957070D01*
X5089700Y1957790D01*
G02X5082790Y1964700I35300J42210D01*
G01X5082070Y1965570D01*
X5080030Y1966520D01*
X5069970D01*
X5067930Y1965570D01*
X5067210Y1964700D01*
G02Y2035300I-42210J35300D01*
G01X5067930Y2034430D01*
X5069970Y2033480D01*
X5080030D01*
X5082070Y2034430D01*
X5082790Y2035300D01*
G02X5167210I42210J-35300D01*
G01X5167930Y2034430D01*
X5169970Y2033480D01*
X5180030D01*
X5182070Y2034430D01*
X5182790Y2035300D01*
G02X5267210I42210J-35300D01*
G01X5267930Y2034430D01*
X5269970Y2033480D01*
X5280030D01*
X5282070Y2034430D01*
X5282790Y2035300D01*
G02X5302880Y2050380I42204J-35303D01*
G01X5303960Y2050850D01*
X5305470Y2052650D01*
X5308000Y2062730D01*
X5307500Y2065030D01*
X5306770Y2065960D01*
G02Y2134040I43230J34040D01*
G01X5307500Y2134970D01*
X5308000Y2137270D01*
X5305470Y2147350D01*
X5303960Y2149150D01*
X5302880Y2149620D01*
G02X5282790Y2164700I22114J50383D01*
G01X5282070Y2165570D01*
X5280030Y2166520D01*
X5269970D01*
X5267930Y2165570D01*
X5267210Y2164700D01*
G02X5182790I-42210J35300D01*
G01X5182070Y2165570D01*
X5180030Y2166520D01*
X5169970D01*
X5167930Y2165570D01*
X5167210Y2164700D01*
G02X5082790I-42210J35300D01*
G01X5082070Y2165570D01*
X5080030Y2166520D01*
X5069970D01*
X5067930Y2165570D01*
X5067210Y2164700D01*
G02X4982790I-42210J35300D01*
G01X4982070Y2165570D01*
X4980030Y2166520D01*
X4969970D01*
X4967930Y2165570D01*
X4967210Y2164700D01*
G02X4889700Y2242210I-42210J35300D01*
G01X4890570Y2242930D01*
X4891520Y2244970D01*
Y2255030D01*
X4890570Y2257070D01*
X4889700Y2257790D01*
G02X4882790Y2264700I35300J42210D01*
G01X4882070Y2265570D01*
X4880030Y2266520D01*
X4869970D01*
X4867930Y2265570D01*
X4867210Y2264700D01*
G02X4789700Y2342210I-42210J35300D01*
G01X4790570Y2342930D01*
X4791520Y2344970D01*
Y2355030D01*
X4790570Y2357070D01*
X4789700Y2357790D01*
G02X4867210Y2435300I35300J42210D01*
G01X4867930Y2434430D01*
X4869970Y2433480D01*
X4880030D01*
X4882070Y2434430D01*
X4882790Y2435300D01*
G02X4967210I42210J-35300D01*
G01X4967930Y2434430D01*
X4969970Y2433480D01*
X4980030D01*
X4982070Y2434430D01*
X4982790Y2435300D01*
G02X5067210I42210J-35300D01*
G01X5067930Y2434430D01*
X5069970Y2433480D01*
X5080030D01*
X5082070Y2434430D01*
X5082790Y2435300D01*
G02X5167210I42210J-35300D01*
G01X5167930Y2434430D01*
X5169970Y2433480D01*
X5180030D01*
X5182070Y2434430D01*
X5182790Y2435300D01*
G02X5267210I42210J-35300D01*
G01X5267930Y2434430D01*
X5269970Y2433480D01*
X5280030D01*
X5282070Y2434430D01*
X5282790Y2435300D01*
G02X5302880Y2450380I42204J-35303D01*
G01X5303960Y2450850D01*
X5305470Y2452650D01*
X5308000Y2462730D01*
X5307500Y2465030D01*
X5306770Y2465960D01*
G02Y2534040I43230J34040D01*
G01X5307500Y2534970D01*
X5308000Y2537270D01*
X5305470Y2547350D01*
X5303960Y2549150D01*
X5302880Y2549620D01*
G02X5282790Y2564700I22114J50383D01*
G01X5282070Y2565570D01*
X5280030Y2566520D01*
X5269970D01*
X5267930Y2565570D01*
X5267210Y2564700D01*
G02X5182790I-42210J35300D01*
G01X5182070Y2565570D01*
X5180030Y2566520D01*
X5169970D01*
X5167930Y2565570D01*
X5167210Y2564700D01*
G02X5082790I-42210J35300D01*
G01X5082070Y2565570D01*
X5080030Y2566520D01*
X5069970D01*
X5067930Y2565570D01*
X5067210Y2564700D01*
G02X4982790I-42210J35300D01*
G01X4982070Y2565570D01*
X4980030Y2566520D01*
X4969970D01*
X4967930Y2565570D01*
X4967210Y2564700D01*
G02Y2635300I-42210J35300D01*
G01X4967930Y2634430D01*
X4969970Y2633480D01*
X4980030D01*
X4982070Y2634430D01*
X4982790Y2635300D01*
G02X4989700Y2642210I42210J-35300D01*
G01X4990570Y2642930D01*
X4991520Y2644970D01*
Y2655030D01*
X4990570Y2657070D01*
X4989700Y2657790D01*
G02X5067210Y2735300I35300J42210D01*
G01X5067930Y2734430D01*
X5069970Y2733480D01*
X5080030D01*
X5082070Y2734430D01*
X5082790Y2735300D01*
G02X5089700Y2742210I42210J-35300D01*
G01X5090570Y2742930D01*
X5091520Y2744970D01*
Y2755030D01*
X5090570Y2757070D01*
X5089700Y2757790D01*
G02X5167210Y2835300I35300J42210D01*
G01X5167930Y2834430D01*
X5169970Y2833480D01*
X5180030D01*
X5182070Y2834430D01*
X5182790Y2835300D01*
G02X5267210I42210J-35300D01*
G01X5267930Y2834430D01*
X5269970Y2833480D01*
G37*
G36*
G01X905030Y2041520D02*
X894970D01*
X892930Y2040570D01*
X892210Y2039700D01*
G02X814700Y2117210I-42210J35300D01*
G01X815570Y2117930D01*
X816520Y2119970D01*
Y2130030D01*
X815570Y2132070D01*
X814700Y2132790D01*
G02Y2217210I35300J42210D01*
G01X815570Y2217930D01*
X816520Y2219970D01*
Y2230030D01*
X815570Y2232070D01*
X814700Y2232790D01*
G02X892210Y2310300I35300J42210D01*
G01X892930Y2309430D01*
X894970Y2308480D01*
X905030D01*
X907070Y2309430D01*
X907790Y2310300D01*
G02X992210I42210J-35300D01*
G01X992930Y2309430D01*
X994970Y2308480D01*
X1005030D01*
X1007070Y2309430D01*
X1007790Y2310300D01*
G02X1092210I42210J-35300D01*
G01X1092930Y2309430D01*
X1094970Y2308480D01*
X1105030D01*
X1107070Y2309430D01*
X1107790Y2310300D01*
G02Y2239700I42210J-35300D01*
G01X1107070Y2240570D01*
X1105030Y2241520D01*
X1094970D01*
X1092930Y2240570D01*
X1092210Y2239700D01*
G02X1085300Y2232790I-42210J35300D01*
G01X1084430Y2232070D01*
X1083480Y2230030D01*
Y2219970D01*
X1084430Y2217930D01*
X1085300Y2217210D01*
G02X1007790Y2139700I-35300J-42210D01*
G01X1007070Y2140570D01*
X1005030Y2141520D01*
X994970D01*
X992930Y2140570D01*
X992210Y2139700D01*
G02X985300Y2132790I-42210J35300D01*
G01X984430Y2132070D01*
X983480Y2130030D01*
Y2119970D01*
X984430Y2117930D01*
X985300Y2117210D01*
G02X907790Y2039700I-35300J-42210D01*
G01X907070Y2040570D01*
X905030Y2041520D01*
G37*
G36*
G01X2934330Y2432000D02*
G02X2865670I-34330J43000D01*
G03X2859330I-3170J-3966D01*
G02Y2518000I-34330J43000D01*
G03X2865670I3170J3966D01*
G02X2934330I34330J-43000D01*
G03X2940670I3170J3966D01*
G02X3009330I34330J-43000D01*
G03X3015670I3170J3966D01*
G02Y2432000I34330J-43000D01*
G03X3009330I-3170J-3966D01*
G02X2940670I-34330J43000D01*
G03X2934330I-3170J-3966D01*
G37*
G36*
G01X2370980Y2580030D02*
Y2569970D01*
X2371930Y2567930D01*
X2372800Y2567210D01*
G02X2302200I-35300J-42210D01*
G01X2303070Y2567930D01*
X2304020Y2569970D01*
Y2580030D01*
X2303070Y2582070D01*
X2302200Y2582790D01*
G02X2294500Y2659330I35298J42208D01*
G03Y2665670I-3966J3170D01*
G02X2380500I43000J34330D01*
G03Y2659330I3966J-3170D01*
G02X2372800Y2582790I-42998J-34332D01*
G01X2371930Y2582070D01*
X2370980Y2580030D01*
G37*
G36*
G01X4280030Y2566520D02*
X4269970D01*
X4267930Y2565570D01*
X4267210Y2564700D01*
G02Y2635300I-42210J35300D01*
G01X4267930Y2634430D01*
X4269970Y2633480D01*
X4280030D01*
X4282070Y2634430D01*
X4282790Y2635300D01*
G02X4289700Y2642210I42210J-35300D01*
G01X4290570Y2642930D01*
X4291520Y2644970D01*
Y2655030D01*
X4290570Y2657070D01*
X4289700Y2657790D01*
G02X4367210Y2735300I35300J42210D01*
G01X4367930Y2734430D01*
X4369970Y2733480D01*
X4380030D01*
X4382070Y2734430D01*
X4382790Y2735300D01*
G02X4389700Y2742210I42210J-35300D01*
G01X4390570Y2742930D01*
X4391520Y2744970D01*
Y2755030D01*
X4390570Y2757070D01*
X4389700Y2757790D01*
G02X4467210Y2835300I35300J42210D01*
G01X4467930Y2834430D01*
X4469970Y2833480D01*
X4480030D01*
X4482070Y2834430D01*
X4482790Y2835300D01*
G02X4567210I42210J-35300D01*
G01X4567930Y2834430D01*
X4569970Y2833480D01*
X4580030D01*
X4582070Y2834430D01*
X4582790Y2835300D01*
G02X4667210I42210J-35300D01*
G01X4667930Y2834430D01*
X4669970Y2833480D01*
X4680030D01*
X4682070Y2834430D01*
X4682790Y2835300D01*
G02X4767210I42210J-35300D01*
G01X4767930Y2834430D01*
X4769970Y2833480D01*
X4780030D01*
X4782070Y2834430D01*
X4782790Y2835300D01*
G02Y2764700I42210J-35300D01*
G01X4782070Y2765570D01*
X4780030Y2766520D01*
X4769970D01*
X4767930Y2765570D01*
X4767210Y2764700D01*
G02X4760300Y2757790I-42210J35300D01*
G01X4759430Y2757070D01*
X4758480Y2755030D01*
Y2744970D01*
X4759430Y2742930D01*
X4760300Y2742210D01*
G02X4682790Y2664700I-35300J-42210D01*
G01X4682070Y2665570D01*
X4680030Y2666520D01*
X4669970D01*
X4667930Y2665570D01*
X4667210Y2664700D01*
G02X4660300Y2657790I-42210J35300D01*
G01X4659430Y2657070D01*
X4658480Y2655030D01*
Y2644970D01*
X4659430Y2642930D01*
X4660300Y2642210D01*
G02X4582790Y2564700I-35300J-42210D01*
G01X4582070Y2565570D01*
X4580030Y2566520D01*
X4569970D01*
X4567930Y2565570D01*
X4567210Y2564700D01*
G02X4482790I-42210J35300D01*
G01X4482070Y2565570D01*
X4480030Y2566520D01*
X4469970D01*
X4467930Y2565570D01*
X4467210Y2564700D01*
G02X4382790I-42210J35300D01*
G01X4382070Y2565570D01*
X4380030Y2566520D01*
X4369970D01*
X4367930Y2565570D01*
X4367210Y2564700D01*
G02X4282790I-42210J35300D01*
G01X4282070Y2565570D01*
X4280030Y2566520D01*
G37*
G36*
G01X894970Y2958480D02*
X905030D01*
X907070Y2959430D01*
X907790Y2960300D01*
G02X992210I42210J-35300D01*
G01X992930Y2959430D01*
X994970Y2958480D01*
X1005030D01*
X1007070Y2959430D01*
X1007790Y2960300D01*
G02X1092210I42210J-35300D01*
G01X1092930Y2959430D01*
X1094970Y2958480D01*
X1105030D01*
X1107070Y2959430D01*
X1107790Y2960300D01*
G02X1192210I42210J-35300D01*
G01X1192930Y2959430D01*
X1194970Y2958480D01*
X1205030D01*
X1207070Y2959430D01*
X1207790Y2960300D01*
G02X1285300Y2882790I42210J-35300D01*
G01X1284430Y2882070D01*
X1283480Y2880030D01*
Y2869970D01*
X1284430Y2867930D01*
X1285300Y2867210D01*
G02Y2782790I-35300J-42210D01*
G01X1284430Y2782070D01*
X1283480Y2780030D01*
Y2769970D01*
X1284430Y2767930D01*
X1285300Y2767210D01*
G02X1207790Y2689700I-35300J-42210D01*
G01X1207070Y2690570D01*
X1205030Y2691520D01*
X1194970D01*
X1192930Y2690570D01*
X1192210Y2689700D01*
G02X1107790I-42210J35300D01*
G01X1107070Y2690570D01*
X1105030Y2691520D01*
X1094970D01*
X1092930Y2690570D01*
X1092210Y2689700D01*
G02X1007790I-42210J35300D01*
G01X1007070Y2690570D01*
X1005030Y2691520D01*
X994970D01*
X992930Y2690570D01*
X992210Y2689700D01*
G02X907790I-42210J35300D01*
G01X907070Y2690570D01*
X905030Y2691520D01*
X894970D01*
X892930Y2690570D01*
X892210Y2689700D01*
G02X814700Y2767210I-42210J35300D01*
G01X815570Y2767930D01*
X816520Y2769970D01*
Y2780030D01*
X815570Y2782070D01*
X814700Y2782790D01*
G02Y2867210I35300J42210D01*
G01X815570Y2867930D01*
X816520Y2869970D01*
Y2880030D01*
X815570Y2882070D01*
X814700Y2882790D01*
G02X892210Y2960300I35300J42210D01*
G01X892930Y2959430D01*
X894970Y2958480D01*
G37*
G36*
G01X3382000Y2928170D02*
G02X3468000I43000J34330D01*
G03Y2921830I3966J-3170D01*
G02X3382000I-43000J-34330D01*
G03Y2928170I-3966J3170D01*
G37*
G36*
G01X894970Y3458480D02*
X905030D01*
X907070Y3459430D01*
X907790Y3460300D01*
G02X992210I42210J-35300D01*
G01X992930Y3459430D01*
X994970Y3458480D01*
X1005030D01*
X1007070Y3459430D01*
X1007790Y3460300D01*
G02X1092210I42210J-35300D01*
G01X1092930Y3459430D01*
X1094970Y3458480D01*
X1105030D01*
X1107070Y3459430D01*
X1107790Y3460300D01*
G02X1192210I42210J-35300D01*
G01X1192930Y3459430D01*
X1194970Y3458480D01*
X1205030D01*
X1207070Y3459430D01*
X1207790Y3460300D01*
G02X1285300Y3382790I42210J-35300D01*
G01X1284430Y3382070D01*
X1283480Y3380030D01*
Y3369970D01*
X1284430Y3367930D01*
X1285300Y3367210D01*
G02Y3282790I-35300J-42210D01*
G01X1284430Y3282070D01*
X1283480Y3280030D01*
Y3269970D01*
X1284430Y3267930D01*
X1285300Y3267210D01*
G02Y3182790I-35300J-42210D01*
G01X1284430Y3182070D01*
X1283480Y3180030D01*
Y3169970D01*
X1284430Y3167930D01*
X1285300Y3167210D01*
G02X1207790Y3089700I-35300J-42210D01*
G01X1207070Y3090570D01*
X1205030Y3091520D01*
X1194970D01*
X1192930Y3090570D01*
X1192210Y3089700D01*
G02X1107790I-42210J35300D01*
G01X1107070Y3090570D01*
X1105030Y3091520D01*
X1094970D01*
X1092930Y3090570D01*
X1092210Y3089700D01*
G02X1007790I-42210J35300D01*
G01X1007070Y3090570D01*
X1005030Y3091520D01*
X994970D01*
X992930Y3090570D01*
X992210Y3089700D01*
G02X907790I-42210J35300D01*
G01X907070Y3090570D01*
X905030Y3091520D01*
X894970D01*
X892930Y3090570D01*
X892210Y3089700D01*
G02X814700Y3167210I-42210J35300D01*
G01X815570Y3167930D01*
X816520Y3169970D01*
Y3180030D01*
X815570Y3182070D01*
X814700Y3182790D01*
G02Y3267210I35300J42210D01*
G01X815570Y3267930D01*
X816520Y3269970D01*
Y3280030D01*
X815570Y3282070D01*
X814700Y3282790D01*
G02Y3367210I35300J42210D01*
G01X815570Y3367930D01*
X816520Y3369970D01*
Y3380030D01*
X815570Y3382070D01*
X814700Y3382790D01*
G02X892210Y3460300I35300J42210D01*
G01X892930Y3459430D01*
X894970Y3458480D01*
G37*
G36*
G01X2528170Y3330500D02*
G02Y3244500I34330J-43000D01*
G03X2521830I-3170J-3966D01*
G02Y3330500I-34330J43000D01*
G03X2528170I3170J3966D01*
G37*
G36*
G01X3303170Y3530500D02*
G02Y3444500I34330J-43000D01*
G03X3296830I-3170J-3966D01*
G02Y3530500I-34330J43000D01*
G03X3303170I3170J3966D01*
G37*
G36*
G01X2194500Y3578170D02*
G02X2280500I43000J34330D01*
G03Y3571830I3966J-3170D01*
G02X2194500I-43000J-34330D01*
G03Y3578170I-3966J3170D01*
G37*
G36*
G01X4780030Y3516520D02*
X4769970D01*
X4767930Y3515570D01*
X4767210Y3514700D01*
G02X4689700Y3592210I-42210J35300D01*
G01X4690570Y3592930D01*
X4691520Y3594970D01*
Y3605030D01*
X4690570Y3607070D01*
X4689700Y3607790D01*
G02X4767210Y3685300I35300J42210D01*
G01X4767930Y3684430D01*
X4769970Y3683480D01*
X4780030D01*
X4782070Y3684430D01*
X4782790Y3685300D01*
G02X4867210I42210J-35300D01*
G01X4867930Y3684430D01*
X4869970Y3683480D01*
X4880030D01*
X4882070Y3684430D01*
X4882790Y3685300D01*
G02X4967210I42210J-35300D01*
G01X4967930Y3684430D01*
X4969970Y3683480D01*
X4980030D01*
X4982070Y3684430D01*
X4982790Y3685300D01*
G02X5067210I42210J-35300D01*
G01X5067930Y3684430D01*
X5069970Y3683480D01*
X5080030D01*
X5082070Y3684430D01*
X5082790Y3685300D01*
G02X5167210I42210J-35300D01*
G01X5167930Y3684430D01*
X5169970Y3683480D01*
X5180030D01*
X5182070Y3684430D01*
X5182790Y3685300D01*
G02X5260300Y3607790I42210J-35300D01*
G01X5259430Y3607070D01*
X5258480Y3605030D01*
Y3594970D01*
X5259430Y3592930D01*
X5260300Y3592210D01*
G02X5182790Y3514700I-35300J-42210D01*
G01X5182070Y3515570D01*
X5180030Y3516520D01*
X5169970D01*
X5167930Y3515570D01*
X5167210Y3514700D01*
G02X5082790I-42210J35300D01*
G01X5082070Y3515570D01*
X5080030Y3516520D01*
X5069970D01*
X5067930Y3515570D01*
X5067210Y3514700D01*
G02X4982790I-42210J35300D01*
G01X4982070Y3515570D01*
X4980030Y3516520D01*
X4969970D01*
X4967930Y3515570D01*
X4967210Y3514700D01*
G02X4882790I-42210J35300D01*
G01X4882070Y3515570D01*
X4880030Y3516520D01*
X4869970D01*
X4867930Y3515570D01*
X4867210Y3514700D01*
G02X4782790I-42210J35300D01*
G01X4782070Y3515570D01*
X4780030Y3516520D01*
G37*
G36*
G01X894970Y3808480D02*
X905030D01*
X907070Y3809430D01*
X907790Y3810300D01*
G02X992210I42210J-35300D01*
G01X992930Y3809430D01*
X994970Y3808480D01*
X1005030D01*
X1007070Y3809430D01*
X1007790Y3810300D01*
G02X1085300Y3732790I42210J-35300D01*
G01X1084430Y3732070D01*
X1083480Y3730030D01*
Y3719970D01*
X1084430Y3717930D01*
X1085300Y3717210D01*
G02X1092210Y3710300I-35300J-42210D01*
G01X1092930Y3709430D01*
X1094970Y3708480D01*
X1105030D01*
X1107070Y3709430D01*
X1107790Y3710300D01*
G02X1185300Y3632790I42210J-35300D01*
G01X1184430Y3632070D01*
X1183480Y3630030D01*
Y3619970D01*
X1184430Y3617930D01*
X1185300Y3617210D01*
G02X1192210Y3610300I-35300J-42210D01*
G01X1192930Y3609430D01*
X1194970Y3608480D01*
X1205030D01*
X1207070Y3609430D01*
X1207790Y3610300D01*
G02Y3539700I42210J-35300D01*
G01X1207070Y3540570D01*
X1205030Y3541520D01*
X1194970D01*
X1192930Y3540570D01*
X1192210Y3539700D01*
G02X1107790I-42210J35300D01*
G01X1107070Y3540570D01*
X1105030Y3541520D01*
X1094970D01*
X1092930Y3540570D01*
X1092210Y3539700D01*
G02X1007790I-42210J35300D01*
G01X1007070Y3540570D01*
X1005030Y3541520D01*
X994970D01*
X992930Y3540570D01*
X992210Y3539700D01*
G02X907790I-42210J35300D01*
G01X907070Y3540570D01*
X905030Y3541520D01*
X894970D01*
X892930Y3540570D01*
X892210Y3539700D01*
G02X814700Y3617210I-42210J35300D01*
G01X815570Y3617930D01*
X816520Y3619970D01*
Y3630030D01*
X815570Y3632070D01*
X814700Y3632790D01*
G02Y3717210I35300J42210D01*
G01X815570Y3717930D01*
X816520Y3719970D01*
Y3730030D01*
X815570Y3732070D01*
X814700Y3732790D01*
G02X892210Y3810300I35300J42210D01*
G01X892930Y3809430D01*
X894970Y3808480D01*
G37*
G36*
G01X5308000Y3787270D02*
X5305470Y3797350D01*
X5303960Y3799150D01*
X5302880Y3799620D01*
G02X5282790Y3814700I22114J50383D01*
G01X5282070Y3815570D01*
X5280030Y3816520D01*
X5269970D01*
X5267930Y3815570D01*
X5267210Y3814700D01*
G02X5182790I-42210J35300D01*
G01X5182070Y3815570D01*
X5180030Y3816520D01*
X5169970D01*
X5167930Y3815570D01*
X5167210Y3814700D01*
G02X5082790I-42210J35300D01*
G01X5082070Y3815570D01*
X5080030Y3816520D01*
X5069970D01*
X5067930Y3815570D01*
X5067210Y3814700D01*
G02X4982790I-42210J35300D01*
G01X4982070Y3815570D01*
X4980030Y3816520D01*
X4969970D01*
X4967930Y3815570D01*
X4967210Y3814700D01*
G02X4882790I-42210J35300D01*
G01X4882070Y3815570D01*
X4880030Y3816520D01*
X4869970D01*
X4867930Y3815570D01*
X4867210Y3814700D01*
G02X4782790I-42210J35300D01*
G01X4782070Y3815570D01*
X4780030Y3816520D01*
X4769970D01*
X4767930Y3815570D01*
X4767210Y3814700D01*
G02Y3885300I-42210J35300D01*
G01X4767930Y3884430D01*
X4769970Y3883480D01*
X4780030D01*
X4782070Y3884430D01*
X4782790Y3885300D01*
G02X4789700Y3892210I42210J-35300D01*
G01X4790570Y3892930D01*
X4791520Y3894970D01*
Y3905030D01*
X4790570Y3907070D01*
X4789700Y3907790D01*
G02X4867210Y3985300I35300J42210D01*
G01X4867930Y3984430D01*
X4869970Y3983480D01*
X4880030D01*
X4882070Y3984430D01*
X4882790Y3985300D01*
G02X4889700Y3992210I42210J-35300D01*
G01X4890570Y3992930D01*
X4891520Y3994970D01*
Y4005030D01*
X4890570Y4007070D01*
X4889700Y4007790D01*
G02X4967210Y4085300I35300J42210D01*
G01X4967930Y4084430D01*
X4969970Y4083480D01*
X4980030D01*
X4982070Y4084430D01*
X4982790Y4085300D01*
G02X5067210I42210J-35300D01*
G01X5067930Y4084430D01*
X5069970Y4083480D01*
X5080030D01*
X5082070Y4084430D01*
X5082790Y4085300D01*
G02X5167210I42210J-35300D01*
G01X5167930Y4084430D01*
X5169970Y4083480D01*
X5180030D01*
X5182070Y4084430D01*
X5182790Y4085300D01*
G02X5267210I42210J-35300D01*
G01X5267930Y4084430D01*
X5269970Y4083480D01*
X5280030D01*
X5282070Y4084430D01*
X5282790Y4085300D01*
G02X5302880Y4100380I42204J-35303D01*
G01X5303960Y4100850D01*
X5305470Y4102650D01*
X5308000Y4112730D01*
X5307500Y4115030D01*
X5306770Y4115960D01*
G02Y4184040I43230J34040D01*
G01X5307500Y4184970D01*
X5308000Y4187270D01*
X5305470Y4197350D01*
X5303960Y4199150D01*
X5302880Y4199620D01*
G02X5282790Y4214700I22114J50383D01*
G01X5282070Y4215570D01*
X5280030Y4216520D01*
X5269970D01*
X5267930Y4215570D01*
X5267210Y4214700D01*
G02X5182790I-42210J35300D01*
G01X5182070Y4215570D01*
X5180030Y4216520D01*
X5169970D01*
X5167930Y4215570D01*
X5167210Y4214700D01*
G02X5082790I-42210J35300D01*
G01X5082070Y4215570D01*
X5080030Y4216520D01*
X5069970D01*
X5067930Y4215570D01*
X5067210Y4214700D01*
G02Y4285300I-42210J35300D01*
G01X5067930Y4284430D01*
X5069970Y4283480D01*
X5080030D01*
X5082070Y4284430D01*
X5082790Y4285300D01*
G02X5089700Y4292210I42210J-35300D01*
G01X5090570Y4292930D01*
X5091520Y4294970D01*
Y4305030D01*
X5090570Y4307070D01*
X5089700Y4307790D01*
G02X5167210Y4385300I35300J42210D01*
G01X5167930Y4384430D01*
X5169970Y4383480D01*
X5180030D01*
X5182070Y4384430D01*
X5182790Y4385300D01*
G02X5189700Y4392210I42210J-35300D01*
G01X5190570Y4392930D01*
X5191520Y4394970D01*
Y4405030D01*
X5190570Y4407070D01*
X5189700Y4407790D01*
G02X5267210Y4485300I35300J42210D01*
G01X5267930Y4484430D01*
X5269970Y4483480D01*
X5280030D01*
X5282070Y4484430D01*
X5282790Y4485300D01*
G02X5302880Y4500380I42204J-35303D01*
G01X5303960Y4500850D01*
X5305470Y4502650D01*
X5308000Y4512730D01*
X5307500Y4515030D01*
X5306770Y4515960D01*
G02X5372120Y4499620I43229J34039D01*
G01X5371040Y4499150D01*
X5369530Y4497350D01*
X5367000Y4487270D01*
X5367500Y4484970D01*
X5368230Y4484040D01*
G02X5360300Y4407790I-43228J-34042D01*
G01X5359430Y4407070D01*
X5358480Y4405030D01*
Y4394970D01*
X5359430Y4392930D01*
X5360300Y4392210D01*
G02Y4307790I-35300J-42210D01*
G01X5359430Y4307070D01*
X5358480Y4305030D01*
Y4294970D01*
X5359430Y4292930D01*
X5360300Y4292210D01*
G02X5368230Y4215960I-35298J-42208D01*
G01X5367500Y4215030D01*
X5367000Y4212730D01*
X5369530Y4202650D01*
X5371040Y4200850D01*
X5372120Y4200380D01*
G02Y4099620I-22120J-50380D01*
G01X5371040Y4099150D01*
X5369530Y4097350D01*
X5367000Y4087270D01*
X5367500Y4084970D01*
X5368230Y4084040D01*
G02X5360300Y4007790I-43228J-34042D01*
G01X5359430Y4007070D01*
X5358480Y4005030D01*
Y3994970D01*
X5359430Y3992930D01*
X5360300Y3992210D01*
G02Y3907790I-35300J-42210D01*
G01X5359430Y3907070D01*
X5358480Y3905030D01*
Y3894970D01*
X5359430Y3892930D01*
X5360300Y3892210D01*
G02X5368230Y3815960I-35298J-42208D01*
G01X5367500Y3815030D01*
X5367000Y3812730D01*
X5369530Y3802650D01*
X5371040Y3800850D01*
X5372120Y3800380D01*
G02X5306770Y3784040I-22121J-50379D01*
G01X5307500Y3784970D01*
X5308000Y3787270D01*
G37*
G36*
G01X2932000Y4028170D02*
G02X3018000I43000J34330D01*
G03Y4021830I3966J-3170D01*
G02X2932000I-43000J-34330D01*
G03Y4028170I-3966J3170D01*
G37*
G36*
G01X684330Y3957000D02*
G02Y4043000I-34330J43000D01*
G03X690670I3170J3966D01*
G02Y3957000I34330J-43000D01*
G03X684330I-3170J-3966D01*
G37*
G36*
G01X4130030Y4216520D02*
X4119970D01*
X4117930Y4215570D01*
X4117210Y4214700D01*
G02X4039700Y4292210I-42210J35300D01*
G01X4040570Y4292930D01*
X4041520Y4294970D01*
Y4305030D01*
X4040570Y4307070D01*
X4039700Y4307790D01*
G02Y4392210I35300J42210D01*
G01X4040570Y4392930D01*
X4041520Y4394970D01*
Y4405030D01*
X4040570Y4407070D01*
X4039700Y4407790D01*
G02Y4492210I35300J42210D01*
G01X4040570Y4492930D01*
X4041520Y4494970D01*
Y4505030D01*
X4040570Y4507070D01*
X4039700Y4507790D01*
G02Y4592210I35300J42210D01*
G01X4040570Y4592930D01*
X4041520Y4594970D01*
Y4605030D01*
X4040570Y4607070D01*
X4039700Y4607790D01*
G02Y4692210I35300J42210D01*
G01X4040570Y4692930D01*
X4041520Y4694970D01*
Y4705030D01*
X4040570Y4707070D01*
X4039700Y4707790D01*
G02Y4792210I35300J42210D01*
G01X4040570Y4792930D01*
X4041520Y4794970D01*
Y4805030D01*
X4040570Y4807070D01*
X4039700Y4807790D01*
G02Y4892210I35300J42210D01*
G01X4040570Y4892930D01*
X4041520Y4894970D01*
Y4905030D01*
X4040570Y4907070D01*
X4039700Y4907790D01*
G02Y4992210I35300J42210D01*
G01X4040570Y4992930D01*
X4041520Y4994970D01*
Y5005030D01*
X4040570Y5007070D01*
X4039700Y5007790D01*
G02Y5092210I35300J42210D01*
G01X4040570Y5092930D01*
X4041520Y5094970D01*
Y5105030D01*
X4040570Y5107070D01*
X4039700Y5107790D01*
G02Y5192210I35300J42210D01*
G01X4040570Y5192930D01*
X4041520Y5194970D01*
Y5205030D01*
X4040570Y5207070D01*
X4039700Y5207790D01*
G02X4117210Y5285300I35300J42210D01*
G01X4117930Y5284430D01*
X4119970Y5283480D01*
X4130030D01*
X4132070Y5284430D01*
X4132790Y5285300D01*
G02X4217210I42210J-35300D01*
G01X4217930Y5284430D01*
X4219970Y5283480D01*
X4230030D01*
X4232070Y5284430D01*
X4232790Y5285300D01*
G02X4317210I42210J-35300D01*
G01X4317930Y5284430D01*
X4319970Y5283480D01*
X4330030D01*
X4332070Y5284430D01*
X4332790Y5285300D01*
G02X4410300Y5207790I42210J-35300D01*
G01X4409430Y5207070D01*
X4408480Y5205030D01*
Y5194970D01*
X4409430Y5192930D01*
X4410300Y5192210D01*
G02Y5107790I-35300J-42210D01*
G01X4409430Y5107070D01*
X4408480Y5105030D01*
Y5094970D01*
X4409430Y5092930D01*
X4410300Y5092210D01*
G02Y5007790I-35300J-42210D01*
G01X4409430Y5007070D01*
X4408480Y5005030D01*
Y4994970D01*
X4409430Y4992930D01*
X4410300Y4992210D01*
G02Y4907790I-35300J-42210D01*
G01X4409430Y4907070D01*
X4408480Y4905030D01*
Y4894970D01*
X4409430Y4892930D01*
X4410300Y4892210D01*
G02Y4807790I-35300J-42210D01*
G01X4409430Y4807070D01*
X4408480Y4805030D01*
Y4794970D01*
X4409430Y4792930D01*
X4410300Y4792210D01*
G02Y4707790I-35300J-42210D01*
G01X4409430Y4707070D01*
X4408480Y4705030D01*
Y4694970D01*
X4409430Y4692930D01*
X4410300Y4692210D01*
G02Y4607790I-35300J-42210D01*
G01X4409430Y4607070D01*
X4408480Y4605030D01*
Y4594970D01*
X4409430Y4592930D01*
X4410300Y4592210D01*
G02Y4507790I-35300J-42210D01*
G01X4409430Y4507070D01*
X4408480Y4505030D01*
Y4494970D01*
X4409430Y4492930D01*
X4410300Y4492210D01*
G02Y4407790I-35300J-42210D01*
G01X4409430Y4407070D01*
X4408480Y4405030D01*
Y4394970D01*
X4409430Y4392930D01*
X4410300Y4392210D01*
G02Y4307790I-35300J-42210D01*
G01X4409430Y4307070D01*
X4408480Y4305030D01*
Y4294970D01*
X4409430Y4292930D01*
X4410300Y4292210D01*
G02X4332790Y4214700I-35300J-42210D01*
G01X4332070Y4215570D01*
X4330030Y4216520D01*
X4319970D01*
X4317930Y4215570D01*
X4317210Y4214700D01*
G02X4232790I-42210J35300D01*
G01X4232070Y4215570D01*
X4230030Y4216520D01*
X4219970D01*
X4217930Y4215570D01*
X4217210Y4214700D01*
G02X4132790I-42210J35300D01*
G01X4132070Y4215570D01*
X4130030Y4216520D01*
G37*
G36*
G01X4608480Y4305030D02*
Y4294970D01*
X4609430Y4292930D01*
X4610300Y4292210D01*
G02X4539700I-35300J-42210D01*
G01X4540570Y4292930D01*
X4541520Y4294970D01*
Y4305030D01*
X4540570Y4307070D01*
X4539700Y4307790D01*
G02Y4392210I35300J42210D01*
G01X4540570Y4392930D01*
X4541520Y4394970D01*
Y4405030D01*
X4540570Y4407070D01*
X4539700Y4407790D01*
G02Y4492210I35300J42210D01*
G01X4540570Y4492930D01*
X4541520Y4494970D01*
Y4505030D01*
X4540570Y4507070D01*
X4539700Y4507790D01*
G02Y4592210I35300J42210D01*
G01X4540570Y4592930D01*
X4541520Y4594970D01*
Y4605030D01*
X4540570Y4607070D01*
X4539700Y4607790D01*
G02Y4692210I35300J42210D01*
G01X4540570Y4692930D01*
X4541520Y4694970D01*
Y4705030D01*
X4540570Y4707070D01*
X4539700Y4707790D01*
G02Y4792210I35300J42210D01*
G01X4540570Y4792930D01*
X4541520Y4794970D01*
Y4805030D01*
X4540570Y4807070D01*
X4539700Y4807790D01*
G02Y4892210I35300J42210D01*
G01X4540570Y4892930D01*
X4541520Y4894970D01*
Y4905030D01*
X4540570Y4907070D01*
X4539700Y4907790D01*
G02Y4992210I35300J42210D01*
G01X4540570Y4992930D01*
X4541520Y4994970D01*
Y5005030D01*
X4540570Y5007070D01*
X4539700Y5007790D01*
G02Y5092210I35300J42210D01*
G01X4540570Y5092930D01*
X4541520Y5094970D01*
Y5105030D01*
X4540570Y5107070D01*
X4539700Y5107790D01*
G02Y5192210I35300J42210D01*
G01X4540570Y5192930D01*
X4541520Y5194970D01*
Y5205030D01*
X4540570Y5207070D01*
X4539700Y5207790D01*
G02X4617210Y5285300I35300J42210D01*
G01X4617930Y5284430D01*
X4619970Y5283480D01*
X4630030D01*
X4632070Y5284430D01*
X4632790Y5285300D01*
G02X4717210I42210J-35300D01*
G01X4717930Y5284430D01*
X4719970Y5283480D01*
X4730030D01*
X4732070Y5284430D01*
X4732790Y5285300D01*
G02X4810300Y5207790I42210J-35300D01*
G01X4809430Y5207070D01*
X4808480Y5205030D01*
Y5194970D01*
X4809430Y5192930D01*
X4810300Y5192210D01*
G02Y5107790I-35300J-42210D01*
G01X4809430Y5107070D01*
X4808480Y5105030D01*
Y5094970D01*
X4809430Y5092930D01*
X4810300Y5092210D01*
G02Y5007790I-35300J-42210D01*
G01X4809430Y5007070D01*
X4808480Y5005030D01*
Y4994970D01*
X4809430Y4992930D01*
X4810300Y4992210D01*
G02Y4907790I-35300J-42210D01*
G01X4809430Y4907070D01*
X4808480Y4905030D01*
Y4894970D01*
X4809430Y4892930D01*
X4810300Y4892210D01*
G02Y4807790I-35300J-42210D01*
G01X4809430Y4807070D01*
X4808480Y4805030D01*
Y4794970D01*
X4809430Y4792930D01*
X4810300Y4792210D01*
G02Y4707790I-35300J-42210D01*
G01X4809430Y4707070D01*
X4808480Y4705030D01*
Y4694970D01*
X4809430Y4692930D01*
X4810300Y4692210D01*
G02Y4607790I-35300J-42210D01*
G01X4809430Y4607070D01*
X4808480Y4605030D01*
Y4594970D01*
X4809430Y4592930D01*
X4810300Y4592210D01*
G02Y4507790I-35300J-42210D01*
G01X4809430Y4507070D01*
X4808480Y4505030D01*
Y4494970D01*
X4809430Y4492930D01*
X4810300Y4492210D01*
G02X4732790Y4414700I-35300J-42210D01*
G01X4732070Y4415570D01*
X4730030Y4416520D01*
X4719970D01*
X4717930Y4415570D01*
X4717210Y4414700D01*
G02X4710300Y4407790I-42210J35300D01*
G01X4709430Y4407070D01*
X4708480Y4405030D01*
Y4394970D01*
X4709430Y4392930D01*
X4710300Y4392210D01*
G02X4632790Y4314700I-35300J-42210D01*
G01X4632070Y4315570D01*
X4630030Y4316520D01*
X4619970D01*
X4617930Y4315570D01*
X4617210Y4314700D01*
G02X4610300Y4307790I-42210J35300D01*
G01X4609430Y4307070D01*
X4608480Y4305030D01*
G37*
G36*
G01X5058480Y4605030D02*
Y4594970D01*
X5059430Y4592930D01*
X5060300Y4592210D01*
G02X4989700I-35300J-42210D01*
G01X4990570Y4592930D01*
X4991520Y4594970D01*
Y4605030D01*
X4990570Y4607070D01*
X4989700Y4607790D01*
G02Y4692210I35300J42210D01*
G01X4990570Y4692930D01*
X4991520Y4694970D01*
Y4705030D01*
X4990570Y4707070D01*
X4989700Y4707790D01*
G02Y4792210I35300J42210D01*
G01X4990570Y4792930D01*
X4991520Y4794970D01*
Y4805030D01*
X4990570Y4807070D01*
X4989700Y4807790D01*
G02Y4892210I35300J42210D01*
G01X4990570Y4892930D01*
X4991520Y4894970D01*
Y4905030D01*
X4990570Y4907070D01*
X4989700Y4907790D01*
G02Y4992210I35300J42210D01*
G01X4990570Y4992930D01*
X4991520Y4994970D01*
Y5005030D01*
X4990570Y5007070D01*
X4989700Y5007790D01*
G02Y5092210I35300J42210D01*
G01X4990570Y5092930D01*
X4991520Y5094970D01*
Y5105030D01*
X4990570Y5107070D01*
X4989700Y5107790D01*
G02Y5192210I35300J42210D01*
G01X4990570Y5192930D01*
X4991520Y5194970D01*
Y5205030D01*
X4990570Y5207070D01*
X4989700Y5207790D01*
G02X5067210Y5285300I35300J42210D01*
G01X5067930Y5284430D01*
X5069970Y5283480D01*
X5080030D01*
X5082070Y5284430D01*
X5082790Y5285300D01*
G02X5167210I42210J-35300D01*
G01X5167930Y5284430D01*
X5169970Y5283480D01*
X5180030D01*
X5182070Y5284430D01*
X5182790Y5285300D01*
G02X5267210I42210J-35300D01*
G01X5267930Y5284430D01*
X5269970Y5283480D01*
X5280030D01*
X5282070Y5284430D01*
X5282790Y5285300D01*
G02X5360300Y5207790I42210J-35300D01*
G01X5359430Y5207070D01*
X5358480Y5205030D01*
Y5194970D01*
X5359430Y5192930D01*
X5360300Y5192210D01*
G02Y5107790I-35300J-42210D01*
G01X5359430Y5107070D01*
X5358480Y5105030D01*
Y5094970D01*
X5359430Y5092930D01*
X5360300Y5092210D01*
G02Y5007790I-35300J-42210D01*
G01X5359430Y5007070D01*
X5358480Y5005030D01*
Y4994970D01*
X5359430Y4992930D01*
X5360300Y4992210D01*
G02Y4907790I-35300J-42210D01*
G01X5359430Y4907070D01*
X5358480Y4905030D01*
Y4894970D01*
X5359430Y4892930D01*
X5360300Y4892210D01*
G02Y4807790I-35300J-42210D01*
G01X5359430Y4807070D01*
X5358480Y4805030D01*
Y4794970D01*
X5359430Y4792930D01*
X5360300Y4792210D01*
G02X5282790Y4714700I-35300J-42210D01*
G01X5282070Y4715570D01*
X5280030Y4716520D01*
X5269970D01*
X5267930Y4715570D01*
X5267210Y4714700D01*
G02X5260300Y4707790I-42210J35300D01*
G01X5259430Y4707070D01*
X5258480Y4705030D01*
Y4694970D01*
X5259430Y4692930D01*
X5260300Y4692210D01*
G02X5182790Y4614700I-35300J-42210D01*
G01X5182070Y4615570D01*
X5180030Y4616520D01*
X5169970D01*
X5167930Y4615570D01*
X5167210Y4614700D01*
G02X5082790I-42210J35300D01*
G01X5082070Y4615570D01*
X5080030Y4616520D01*
X5069970D01*
X5067930Y4615570D01*
X5067210Y4614700D01*
G02X5060300Y4607790I-42210J35300D01*
G01X5059430Y4607070D01*
X5058480Y4605030D01*
G37*
G36*
G01X894970Y5283480D02*
X905030D01*
X907070Y5284430D01*
X907790Y5285300D01*
G02X992210I42210J-35300D01*
G01X992930Y5284430D01*
X994970Y5283480D01*
X1005030D01*
X1007070Y5284430D01*
X1007790Y5285300D01*
G02X1092210I42210J-35300D01*
G01X1092930Y5284430D01*
X1094970Y5283480D01*
X1105030D01*
X1107070Y5284430D01*
X1107790Y5285300D01*
G02X1192210I42210J-35300D01*
G01X1192930Y5284430D01*
X1194970Y5283480D01*
X1205030D01*
X1207070Y5284430D01*
X1207790Y5285300D01*
G02X1285300Y5207790I42210J-35300D01*
G01X1284430Y5207070D01*
X1283480Y5205030D01*
Y5194970D01*
X1284430Y5192930D01*
X1285300Y5192210D01*
G02Y5107790I-35300J-42210D01*
G01X1284430Y5107070D01*
X1283480Y5105030D01*
Y5094970D01*
X1284430Y5092930D01*
X1285300Y5092210D01*
G02Y5007790I-35300J-42210D01*
G01X1284430Y5007070D01*
X1283480Y5005030D01*
Y4994970D01*
X1284430Y4992930D01*
X1285300Y4992210D01*
G02Y4907790I-35300J-42210D01*
G01X1284430Y4907070D01*
X1283480Y4905030D01*
Y4894970D01*
X1284430Y4892930D01*
X1285300Y4892210D01*
G02X1207790Y4814700I-35300J-42210D01*
G01X1207070Y4815570D01*
X1205030Y4816520D01*
X1194970D01*
X1192930Y4815570D01*
X1192210Y4814700D01*
G02X1107790I-42210J35300D01*
G01X1107070Y4815570D01*
X1105030Y4816520D01*
X1094970D01*
X1092930Y4815570D01*
X1092210Y4814700D01*
G02X1007790I-42210J35300D01*
G01X1007070Y4815570D01*
X1005030Y4816520D01*
X994970D01*
X992930Y4815570D01*
X992210Y4814700D01*
G02X907790I-42210J35300D01*
G01X907070Y4815570D01*
X905030Y4816520D01*
X894970D01*
X892930Y4815570D01*
X892210Y4814700D01*
G02X814700Y4892210I-42210J35300D01*
G01X815570Y4892930D01*
X816520Y4894970D01*
Y4905030D01*
X815570Y4907070D01*
X814700Y4907790D01*
G02Y4992210I35300J42210D01*
G01X815570Y4992930D01*
X816520Y4994970D01*
Y5005030D01*
X815570Y5007070D01*
X814700Y5007790D01*
G02Y5092210I35300J42210D01*
G01X815570Y5092930D01*
X816520Y5094970D01*
Y5105030D01*
X815570Y5107070D01*
X814700Y5107790D01*
G02Y5192210I35300J42210D01*
G01X815570Y5192930D01*
X816520Y5194970D01*
Y5205030D01*
X815570Y5207070D01*
X814700Y5207790D01*
G02X892210Y5285300I35300J42210D01*
G01X892930Y5284430D01*
X894970Y5283480D01*
G37*
G36*
G01X1455030Y4816520D02*
X1444970D01*
X1442930Y4815570D01*
X1442210Y4814700D01*
G02X1364700Y4892210I-42210J35300D01*
G01X1365570Y4892930D01*
X1366520Y4894970D01*
Y4905030D01*
X1365570Y4907070D01*
X1364700Y4907790D01*
G02Y4992210I35300J42210D01*
G01X1365570Y4992930D01*
X1366520Y4994970D01*
Y5005030D01*
X1365570Y5007070D01*
X1364700Y5007790D01*
G02Y5092210I35300J42210D01*
G01X1365570Y5092930D01*
X1366520Y5094970D01*
Y5105030D01*
X1365570Y5107070D01*
X1364700Y5107790D01*
G02Y5192210I35300J42210D01*
G01X1365570Y5192930D01*
X1366520Y5194970D01*
Y5205030D01*
X1365570Y5207070D01*
X1364700Y5207790D01*
G02X1442210Y5285300I35300J42210D01*
G01X1442930Y5284430D01*
X1444970Y5283480D01*
X1455030D01*
X1457070Y5284430D01*
X1457790Y5285300D01*
G02X1542210I42210J-35300D01*
G01X1542930Y5284430D01*
X1544970Y5283480D01*
X1555030D01*
X1557070Y5284430D01*
X1557790Y5285300D01*
G02X1642210I42210J-35300D01*
G01X1642930Y5284430D01*
X1644970Y5283480D01*
X1655030D01*
X1657070Y5284430D01*
X1657790Y5285300D01*
G02X1742210I42210J-35300D01*
G01X1742930Y5284430D01*
X1744970Y5283480D01*
X1755030D01*
X1757070Y5284430D01*
X1757790Y5285300D01*
G02X1842210I42210J-35300D01*
G01X1842930Y5284430D01*
X1844970Y5283480D01*
X1855030D01*
X1857070Y5284430D01*
X1857790Y5285300D01*
G02X1942210I42210J-35300D01*
G01X1942930Y5284430D01*
X1944970Y5283480D01*
X1955030D01*
X1957070Y5284430D01*
X1957790Y5285300D01*
G02X1964700Y5292210I42210J-35300D01*
G01X1965570Y5292930D01*
X1966520Y5294970D01*
Y5305030D01*
X1965570Y5307070D01*
X1964700Y5307790D01*
G02X2035300I35300J42210D01*
G01X2034430Y5307070D01*
X2033480Y5305030D01*
Y5294970D01*
X2034430Y5292930D01*
X2035300Y5292210D01*
G02X2042210Y5285300I-35300J-42210D01*
G01X2042930Y5284430D01*
X2044970Y5283480D01*
X2055030D01*
X2057070Y5284430D01*
X2057790Y5285300D01*
G02X2142210I42210J-35300D01*
G01X2142930Y5284430D01*
X2144970Y5283480D01*
X2155030D01*
X2157070Y5284430D01*
X2157790Y5285300D01*
G02X2242210I42210J-35300D01*
G01X2242930Y5284430D01*
X2244970Y5283480D01*
X2255030D01*
X2257070Y5284430D01*
X2257790Y5285300D01*
G02X2335300Y5207790I42210J-35300D01*
G01X2334430Y5207070D01*
X2333480Y5205030D01*
Y5194970D01*
X2334430Y5192930D01*
X2335300Y5192210D01*
G02Y5107790I-35300J-42210D01*
G01X2334430Y5107070D01*
X2333480Y5105030D01*
Y5094970D01*
X2334430Y5092930D01*
X2335300Y5092210D01*
G02Y5007790I-35300J-42210D01*
G01X2334430Y5007070D01*
X2333480Y5005030D01*
Y4994970D01*
X2334430Y4992930D01*
X2335300Y4992210D01*
G02Y4907790I-35300J-42210D01*
G01X2334430Y4907070D01*
X2333480Y4905030D01*
Y4894970D01*
X2334430Y4892930D01*
X2335300Y4892210D01*
G02X2257790Y4814700I-35300J-42210D01*
G01X2257070Y4815570D01*
X2255030Y4816520D01*
X2244970D01*
X2242930Y4815570D01*
X2242210Y4814700D01*
G02X2157790I-42210J35300D01*
G01X2157070Y4815570D01*
X2155030Y4816520D01*
X2144970D01*
X2142930Y4815570D01*
X2142210Y4814700D01*
G02X2057790I-42210J35300D01*
G01X2057070Y4815570D01*
X2055030Y4816520D01*
X2044970D01*
X2042930Y4815570D01*
X2042210Y4814700D01*
G02X1957790I-42210J35300D01*
G01X1957070Y4815570D01*
X1955030Y4816520D01*
X1944970D01*
X1942930Y4815570D01*
X1942210Y4814700D01*
G02X1857790I-42210J35300D01*
G01X1857070Y4815570D01*
X1855030Y4816520D01*
X1844970D01*
X1842930Y4815570D01*
X1842210Y4814700D01*
G02X1757790I-42210J35300D01*
G01X1757070Y4815570D01*
X1755030Y4816520D01*
X1744970D01*
X1742930Y4815570D01*
X1742210Y4814700D01*
G02X1657790I-42210J35300D01*
G01X1657070Y4815570D01*
X1655030Y4816520D01*
X1644970D01*
X1642930Y4815570D01*
X1642210Y4814700D01*
G02X1557790I-42210J35300D01*
G01X1557070Y4815570D01*
X1555030Y4816520D01*
X1544970D01*
X1542930Y4815570D01*
X1542210Y4814700D01*
G02X1457790I-42210J35300D01*
G01X1457070Y4815570D01*
X1455030Y4816520D01*
G37*
G36*
G01X2777400Y2919300D02*
X2780100Y2922000D01*
G03X2781070Y2923360I-3594J3589D01*
G01X2781440Y2924110D01*
X2781550Y2924950D01*
G02X2785500Y2937680I38450J-4953D01*
G03Y2942320I-4523J2320D01*
G02X2781550Y2955050I34500J17683D01*
G01X2781440Y2955890D01*
X2781070Y2956640D01*
G03X2780100Y2958000I-4564J-2229D01*
G01X2777400Y2960700D01*
X2775890Y2961440D01*
X2775050Y2961550D01*
G02X2745500Y3017680I4952J38450D01*
G03Y3022320I-4523J2320D01*
G02Y3057680I34500J17680D01*
G03Y3062320I-4523J2320D01*
G02Y3097680I34500J17680D01*
G03Y3102320I-4523J2320D01*
G02X2811690Y3142330I34500J17680D01*
G03X2815930Y3140170I4159J2922D01*
G01X2824070D01*
G03X2828310Y3142330I81J5082D01*
G02X2891690I31690J-22330D01*
G03X2895930Y3140170I4159J2922D01*
G01X2904070D01*
G03X2908310Y3142330I81J5082D01*
G02X2957680Y3154500I31690J-22332D01*
G03X2962320I2320J4523D01*
G02X2997680I17680J-34500D01*
G03X3002320I2320J4523D01*
G02X3054500Y3102320I17680J-34500D01*
G03Y3097680I4523J-2320D01*
G02Y3062320I-34500J-17680D01*
G03Y3057680I4523J-2320D01*
G02Y3022320I-34500J-17680D01*
G03Y3017680I4523J-2320D01*
G02X3042330Y2968310I-34502J-17680D01*
G03X3040170Y2964070I2922J-4159D01*
G01Y2955930D01*
G03X3042330Y2951690I5082J-81D01*
G02X3054500Y2902320I-22332J-31690D01*
G03Y2897680I4523J-2320D01*
G02X3002320Y2845500I-34500J-17680D01*
G03X2997680I-2320J-4523D01*
G02X2984950Y2841550I-17683J34500D01*
G01X2984110Y2841440D01*
X2983360Y2841070D01*
G03X2982000Y2840100I2229J-4564D01*
G01X2979900Y2838000D01*
G03X2978930Y2836640I3594J-3589D01*
G01X2978560Y2835890D01*
X2978450Y2835050D01*
G02X2901550I-38450J4950D01*
G01X2901440Y2835890D01*
X2901070Y2836640D01*
G03X2900100Y2838000I-4564J-2229D01*
G01X2898000Y2840100D01*
G03X2896640Y2841070I-3589J-3594D01*
G01X2895890Y2841440D01*
X2895050Y2841550D01*
G02X2882320Y2845500I4953J38450D01*
G03X2877680I-2320J-4523D01*
G02X2824630Y2864090I-17692J34502D01*
G03X2815380Y2864130I-4634J-2084D01*
G02X2814520Y2862360I-35291J16053D01*
G03X2814220Y2861680I4484J-2384D01*
G03X2814500Y2857680I4798J-1674D01*
G02X2745500I-34500J-17680D01*
G03Y2862320I-4523J2320D01*
G02X2775050Y2918450I34502J17680D01*
G01X2775890Y2918560D01*
X2777400Y2919300D01*
G37*
G36*
G01X2057420Y3075000D02*
X1817580D01*
G02X1812500Y3080080I0J5080D01*
G01Y3494920D01*
G02X1817580Y3500000I5080J0D01*
G01X2057420D01*
G02X2062500Y3494920I0J-5080D01*
G01Y3080080D01*
G02X2057420Y3075000I-5080J0D01*
G37*
G54D14*
X4875000Y5350000D03*
X4925000Y1625000D03*
X5350000Y1300000D03*
X5050000Y300000D03*
X4475000Y5350000D03*
X4600000Y3550000D03*
Y300000D03*
X4062500Y3712500D03*
Y3837500D03*
Y3462500D03*
Y3587500D03*
Y3337500D03*
X4050000Y2250000D03*
X4200000Y300000D03*
X3800000D03*
X3375000Y4562500D03*
X3737500Y3775000D03*
X3450000Y3537500D03*
X3737500Y3525000D03*
Y3650000D03*
Y3400000D03*
Y3275000D03*
X3562500Y2700000D03*
X3437500Y2675000D03*
X3737500Y2500000D03*
Y2375000D03*
Y2250000D03*
Y2000000D03*
Y2125000D03*
X2975000Y4200000D03*
X2850000Y2050000D03*
X3025000D03*
X2850000Y1675000D03*
X3025000D03*
X2975000Y1525000D03*
Y900000D03*
Y1400000D03*
Y1275000D03*
Y1025000D03*
Y1150000D03*
X2625000Y4350000D03*
X2275000Y4075000D03*
X2425000Y2100000D03*
X2350000Y1625000D03*
X1625000Y2250000D03*
X1900000Y300000D03*
X1325000Y5350000D03*
X1100000Y300000D03*
X1500000D03*
X650000Y3500000D03*
Y3000000D03*
Y2000000D03*
X3112500Y2762500D03*
G54D13*
X5600000Y5600000D03*
Y400000D03*
X400000Y5600000D03*
Y400000D03*
%LPD*%
G75*
G54D10*
X400000Y400000D03*
Y5600000D03*
X5600000Y400000D03*
Y5600000D03*
G54D11*
X950000Y825000D03*
X850000D03*
Y1125000D03*
X950000D03*
X850000Y1025000D03*
X950000D03*
Y925000D03*
X850000D03*
X950000Y2075000D03*
X850000D03*
X950000Y2175000D03*
X850000D03*
X950000Y2275000D03*
X850000D03*
X650000Y2000000D03*
X850000Y2925000D03*
X950000D03*
X850000Y2825000D03*
X950000D03*
X850000Y2725000D03*
X950000D03*
X650000Y3000000D03*
X850000Y3575000D03*
X950000D03*
X850000Y3425000D03*
X950000D03*
X850000Y3325000D03*
X950000D03*
X850000Y3225000D03*
X950000D03*
X850000Y3125000D03*
X950000D03*
X650000Y3500000D03*
X725000Y4000000D03*
X650000D03*
X850000Y3775000D03*
X950000D03*
X850000Y3675000D03*
X950000D03*
X850000Y5250000D03*
X950000D03*
Y5150000D03*
Y5050000D03*
Y4950000D03*
Y4850000D03*
X850000D03*
Y4950000D03*
Y5050000D03*
Y5150000D03*
X1100000Y300000D03*
X1500000D03*
X1450000Y825000D03*
X1150000D03*
X1350000D03*
X1250000D03*
X1050000D03*
X1250000Y1125000D03*
X1350000Y1025000D03*
X1250000D03*
X1350000Y1125000D03*
X1450000D03*
Y1025000D03*
X1050000Y1125000D03*
X1150000D03*
X1050000Y1025000D03*
X1150000D03*
X1450000Y925000D03*
X1250000D03*
X1350000D03*
X1150000D03*
X1050000D03*
X1062500Y1575000D03*
X987500D03*
X1050000Y2175000D03*
X1150000Y2275000D03*
X1050000D03*
X1250000Y2925000D03*
Y2825000D03*
X1050000Y2925000D03*
X1150000D03*
X1050000Y2825000D03*
X1150000D03*
X1250000Y2725000D03*
X1050000D03*
X1150000D03*
X1250000Y3575000D03*
X1050000D03*
X1150000D03*
X1250000Y3425000D03*
Y3325000D03*
X1050000Y3425000D03*
X1150000D03*
X1050000Y3325000D03*
X1150000D03*
X1250000Y3225000D03*
Y3125000D03*
X1050000Y3225000D03*
X1150000D03*
X1050000Y3125000D03*
X1150000D03*
X1050000Y3775000D03*
Y3675000D03*
X1150000D03*
X1400000Y5250000D03*
X1500000D03*
X1250000D03*
X1050000D03*
X1150000D03*
X1400000Y5150000D03*
Y5050000D03*
X1500000D03*
Y5150000D03*
X1400000Y4950000D03*
Y4850000D03*
X1500000D03*
Y4950000D03*
X1250000Y4850000D03*
Y4950000D03*
Y5050000D03*
Y5150000D03*
X1150000D03*
Y5050000D03*
Y4950000D03*
Y4850000D03*
X1050000D03*
Y4950000D03*
Y5050000D03*
Y5150000D03*
X1325000Y5350000D03*
X1900000Y300000D03*
X1850000Y825000D03*
X1950000D03*
X2050000D03*
X1750000D03*
X1650000D03*
X1550000D03*
X1950000Y1125000D03*
Y1025000D03*
X1850000Y1125000D03*
Y1025000D03*
X1650000D03*
X1550000D03*
X1650000Y1125000D03*
X1550000D03*
X1750000Y1025000D03*
Y1125000D03*
X1850000Y925000D03*
X1950000D03*
X2050000Y1025000D03*
Y1125000D03*
Y925000D03*
X1750000D03*
X1650000D03*
X1550000D03*
X1625000Y2250000D03*
X2037500Y4037500D03*
Y3887500D03*
Y3962500D03*
X1900000Y5250000D03*
X2000000D03*
X1800000D03*
X1600000D03*
X1700000D03*
X1900000Y5150000D03*
Y5050000D03*
X2000000D03*
Y5150000D03*
X1900000Y4950000D03*
Y4850000D03*
X2000000D03*
Y4950000D03*
X1800000Y5150000D03*
Y5050000D03*
X1600000Y5150000D03*
Y5050000D03*
X1700000D03*
Y5150000D03*
X1800000Y4950000D03*
Y4850000D03*
X1600000Y4950000D03*
Y4850000D03*
X1700000D03*
Y4950000D03*
X2000000Y5350000D03*
X2150000Y825000D03*
Y1025000D03*
Y1125000D03*
Y925000D03*
X2350000Y1625000D03*
X2337500Y2525000D03*
X2425000Y2100000D03*
X2562500Y2475000D03*
X2337500Y2625000D03*
Y2700000D03*
X2312500Y3012500D03*
X2387500D03*
X2562500Y3287500D03*
X2487500D03*
X2237500Y3537500D03*
Y3612500D03*
X2275000Y4075000D03*
X2625000Y4350000D03*
X2100000Y5250000D03*
X2200000D03*
X2300000D03*
X2100000Y5150000D03*
Y5050000D03*
X2200000D03*
Y5150000D03*
X2300000D03*
Y5050000D03*
X2100000Y4950000D03*
Y4850000D03*
X2200000D03*
Y4950000D03*
X2300000D03*
Y4850000D03*
X2975000Y1400000D03*
Y1275000D03*
Y900000D03*
Y1150000D03*
Y1025000D03*
Y1525000D03*
X2850000Y1675000D03*
X3025000D03*
X2850000Y2050000D03*
X3025000D03*
X2825000Y2475000D03*
X2900000D03*
X2975000D03*
X3050000D03*
X2637500D03*
X3112500Y2762500D03*
X2650000Y3412500D03*
Y3487500D03*
X2950000Y3575000D03*
Y3500000D03*
X2750000Y3787500D03*
X2975000Y3987500D03*
Y4062500D03*
X2825000Y3787500D03*
X2975000Y4200000D03*
X2900000Y3700000D03*
X3500000Y825000D03*
X3600000D03*
X3700000D03*
X3400000D03*
X3700000Y925000D03*
X3600000D03*
X3500000D03*
X3400000D03*
X3700000Y1025000D03*
X3600000D03*
X3500000D03*
X3400000D03*
X3700000Y1125000D03*
X3600000D03*
X3500000D03*
X3400000D03*
X3700000Y1225000D03*
X3600000D03*
X3500000D03*
X3400000D03*
X3700000Y1325000D03*
X3600000D03*
X3500000D03*
X3400000D03*
X3700000Y1425000D03*
X3600000D03*
X3500000D03*
X3400000D03*
X3700000Y1825000D03*
X3600000D03*
X3500000D03*
X3400000D03*
X3700000Y1725000D03*
X3600000D03*
X3500000D03*
X3400000D03*
X3700000Y1525000D03*
X3600000D03*
X3500000D03*
X3400000D03*
X3700000Y1625000D03*
X3600000D03*
X3500000D03*
X3400000D03*
X3737500Y2250000D03*
Y2000000D03*
Y2375000D03*
Y2500000D03*
Y2125000D03*
X3237500Y2475000D03*
X3312500D03*
X3425000Y2887500D03*
X3437500Y2675000D03*
X3425000Y2962500D03*
X3562500Y2700000D03*
X3312500Y2675000D03*
Y2600000D03*
X3337500Y3487500D03*
X3262500D03*
X3450000Y3537500D03*
X3737500Y3525000D03*
Y3400000D03*
Y3275000D03*
Y3650000D03*
X3337500Y3362500D03*
X3430000Y3105000D03*
Y3180000D03*
X3262500Y3362500D03*
X3737500Y3775000D03*
X3375000Y4562500D03*
Y5275000D03*
X4200000Y300000D03*
X3800000D03*
X4225000Y1800000D03*
Y1900000D03*
X4050000Y2250000D03*
X4225000Y2600000D03*
X4062500Y3587500D03*
Y3462500D03*
Y3337500D03*
Y3837500D03*
Y3712500D03*
X4075000Y4250000D03*
X4175000D03*
X4275000D03*
Y4350000D03*
X4175000D03*
X4075000D03*
X4275000Y4450000D03*
X4175000D03*
X4075000D03*
X4275000Y4550000D03*
X4175000D03*
X4075000D03*
X4275000Y4650000D03*
X4175000D03*
X4075000D03*
X4275000Y4750000D03*
X4175000D03*
X4075000D03*
X4275000Y4850000D03*
X4175000D03*
X4075000D03*
X4275000Y4950000D03*
X4175000D03*
X4075000D03*
X4275000Y5050000D03*
X4175000D03*
X4075000D03*
X4275000Y5150000D03*
X4175000D03*
X4075000D03*
X4275000Y5250000D03*
X4175000D03*
X4075000D03*
X4600000Y300000D03*
X4625000Y1800000D03*
X4525000D03*
X4425000D03*
X4325000D03*
X4525000Y1900000D03*
X4425000D03*
X4325000D03*
X4825000Y2400000D03*
Y2300000D03*
X4325000Y2700000D03*
X4625000Y2600000D03*
X4525000D03*
X4425000D03*
X4325000D03*
X4725000Y2700000D03*
X4625000D03*
X4525000D03*
X4425000D03*
X4825000Y2800000D03*
X4725000D03*
X4625000D03*
X4525000D03*
X4425000D03*
X4600000Y3550000D03*
X4825000D03*
X4725000D03*
X4825000Y3650000D03*
X4725000D03*
Y3850000D03*
X4825000D03*
Y3950000D03*
X4375000Y4250000D03*
Y4350000D03*
Y4450000D03*
Y4550000D03*
Y4650000D03*
Y4750000D03*
X4575000Y4250000D03*
X4675000Y4350000D03*
X4575000D03*
X4775000Y4450000D03*
X4675000D03*
X4575000D03*
X4775000Y4550000D03*
X4675000D03*
X4575000D03*
X4775000Y4650000D03*
X4675000D03*
X4575000D03*
X4775000Y4750000D03*
X4675000D03*
X4575000D03*
X4375000Y4850000D03*
Y4950000D03*
Y5050000D03*
Y5150000D03*
Y5250000D03*
X4775000Y4850000D03*
X4675000D03*
X4575000D03*
X4775000Y4950000D03*
X4675000D03*
X4575000D03*
X4775000Y5050000D03*
X4675000D03*
X4575000D03*
X4775000Y5150000D03*
X4675000D03*
X4575000D03*
X4775000Y5250000D03*
X4675000D03*
X4575000D03*
X4475000Y5350000D03*
X5050000Y300000D03*
X5350000Y1300000D03*
X5325000Y1800000D03*
X5225000D03*
X5125000Y1900000D03*
X4925000Y1625000D03*
X5350000Y1700000D03*
X5325000Y2000000D03*
X5225000D03*
X5125000D03*
X5025000D03*
X5325000Y2400000D03*
Y2200000D03*
X5225000D03*
X5125000D03*
X5025000D03*
X4925000D03*
X5225000Y2400000D03*
X5125000D03*
X5025000D03*
X4925000D03*
X5125000Y2300000D03*
X5025000D03*
X4925000D03*
X5350000Y2100000D03*
Y2500000D03*
X5325000Y2600000D03*
Y2800000D03*
X5225000D03*
X5125000D03*
X5325000Y2700000D03*
X5225000D03*
X5125000D03*
X5025000D03*
X5225000Y2600000D03*
X5125000D03*
X5025000D03*
X4925000D03*
X5350000Y2900000D03*
X5225000Y3550000D03*
X5125000D03*
X5025000D03*
X4925000D03*
X5225000Y3650000D03*
X5125000D03*
X5025000D03*
X4925000D03*
Y4050000D03*
Y3850000D03*
Y3950000D03*
X5025000Y4050000D03*
X5125000D03*
X5225000D03*
X5325000D03*
X5025000Y3850000D03*
X5125000D03*
X5225000D03*
X5325000D03*
X5025000Y3950000D03*
X5125000D03*
X5225000D03*
X5325000D03*
X5350000Y4150000D03*
Y3750000D03*
X5025000Y4550000D03*
X5225000Y4650000D03*
X5125000D03*
X5025000D03*
Y4750000D03*
X5125000D03*
X5225000D03*
X5325000D03*
Y4250000D03*
X5225000D03*
X5125000D03*
X5025000D03*
X5325000Y4350000D03*
X5225000D03*
X5125000D03*
X5325000Y4450000D03*
X5225000D03*
X5350000Y4550000D03*
X5025000Y4850000D03*
X5125000D03*
X5225000D03*
X5325000D03*
X5025000Y4950000D03*
X5125000D03*
X5225000D03*
X5325000D03*
X5025000Y5050000D03*
X5125000D03*
X5225000D03*
X5325000D03*
X5025000Y5150000D03*
X5125000D03*
X5225000D03*
X5325000D03*
X5025000Y5250000D03*
X5125000D03*
X5225000D03*
X5325000D03*
X4875000Y5350000D03*
G54D12*
X2860000Y2920000D03*
D03*
X2980000D03*
D03*
X2940000Y3000000D03*
D03*
X2860000D03*
X2900000D03*
X2860000D03*
X2900000D03*
Y3040000D03*
D03*
Y2880000D03*
D03*
Y2920000D03*
D03*
X2980000Y2960000D03*
D03*
X2820000Y3040000D03*
D03*
X2980000Y3000000D03*
D03*
X2780000Y3040000D03*
D03*
X2940000Y2920000D03*
D03*
X3020000Y3000000D03*
D03*
X2860000Y2880000D03*
D03*
X2980000D03*
D03*
X2780000Y3000000D03*
D03*
X2820000Y2960000D03*
D03*
Y3000000D03*
D03*
Y2920000D03*
D03*
X2780000Y2880000D03*
D03*
Y2840000D03*
D03*
X2940000D03*
D03*
X3020000Y3040000D03*
D03*
X2980000D03*
D03*
X3020000Y2880000D03*
D03*
Y2920000D03*
D03*
X2940000Y2880000D03*
D03*
X2900000Y3080000D03*
D03*
X2940000Y3120000D03*
D03*
X2780000Y3080000D03*
D03*
Y3120000D03*
D03*
X2820000Y3080000D03*
D03*
X2860000D03*
D03*
X3020000Y3120000D03*
D03*
X2940000Y3080000D03*
D03*
X2860000Y3120000D03*
D03*
X2980000Y3080000D03*
D03*
X3020000D03*
D03*
X2980000Y3120000D03*
D03*
M02*
