M48
INCH,TZ
T01C.003937
T02C.005906
T03C.011811
T04C.125984
;LEADER: 12 
;HEADER: 
;CODE  : ASCII 
;FILE  : 57537-BD71815GW_v4-1-6.drd for board #Taaaaak03904.tmp ... layers TOP and BOTTOM
;T03 Holesize 1. = 11.811024 Tolerance = +0.000000/-0.000000 PLATED MILS Quantity = 535
;T04 Holesize 2. = 125.984252 Tolerance = +0.000000/-0.000000 NON_PLATED MILS Quantity = 4
%
G90
T03
X43307Y11811
X59055Y11811
X74803Y11811
X149606Y11811
X165354Y11811
X181102Y11811
X198819Y11811
X145669Y36417
X145669Y32480
X141732Y36417
X141732Y32480
X137795Y36417
X137795Y32480
X133858Y36417
X133858Y32480
X117126Y35433
X84646Y36417
X84646Y32480
X80709Y36417
X80709Y32480
X76772Y36417
X76772Y32480
X72835Y36417
X72835Y32480
X68898Y36417
X68898Y32480
X64961Y36417
X64961Y32480
X61024Y36417
X61024Y32480
X57087Y36417
X57087Y32480
X53150Y36417
X53150Y32480
X49213Y36417
X49213Y32480
X45276Y36417
X45276Y32480
X41339Y36417
X41339Y32480
X37402Y36417
X37402Y32480
X33465Y36417
X33465Y32480
X33465Y40354
X33465Y44291
X37402Y40354
X37402Y44291
X41339Y40354
X41339Y44291
X45276Y40354
X45276Y44291
X49213Y40354
X49213Y44291
X53150Y40354
X53150Y44291
X57087Y40354
X57087Y44291
X61024Y40354
X61024Y44291
X64961Y40354
X64961Y44291
X68898Y40354
X68898Y44291
X72835Y40354
X72835Y44291
X76772Y40354
X76772Y44291
X80709Y40354
X80709Y44291
X84646Y40354
X84646Y44291
X117126Y40354
X117126Y45276
X117126Y50197
X117126Y55118
X133858Y40354
X133858Y44291
X133858Y48228
X133858Y52165
X133858Y56102
X137795Y40354
X137795Y44291
X137795Y48228
X137795Y52165
X137795Y56102
X141732Y40354
X141732Y44291
X141732Y48228
X141732Y52165
X141732Y56102
X145669Y40354
X145669Y44291
X145669Y48228
X145669Y52165
X145669Y56102
X210630Y51181
X210630Y66929
X209646Y78740
X209646Y70866
X205709Y78740
X205709Y70866
X201772Y78740
X201772Y74803
X197835Y78740
X193898Y63976
X182087Y70866
X178150Y74803
X178150Y70866
X174213Y74803
X174213Y70866
X170276Y74803
X170276Y70866
X166339Y74803
X166339Y70866
X147146Y78740
X145669Y71850
X145669Y67913
X145669Y63976
X145669Y60039
X141732Y71850
X141732Y67913
X141732Y63976
X141732Y60039
X137795Y71850
X137795Y67913
X137795Y63976
X137795Y60039
X133858Y71850
X133858Y67913
X133858Y63976
X133858Y60039
X119094Y65945
X117126Y60039
X112205Y65945
X92520Y63976
X41831Y62008
X38878Y62008
X25591Y78740
X33465Y81693
X33465Y85630
X33465Y89567
X37402Y81693
X37402Y85630
X37402Y89567
X41339Y85630
X41339Y89567
X45276Y89567
X63976Y88583
X92028Y99409
X95472Y82677
X100886Y97441
X103839Y97441
X111220Y97441
X112205Y80709
X114173Y97441
X117126Y97441
X119094Y80709
X120079Y97441
X127461Y97441
X130413Y97441
X147146Y83661
X147146Y88583
X147146Y93504
X147146Y98425
X159449Y88583
X189961Y90551
X189961Y94488
X193898Y86614
X193898Y90551
X193898Y94488
X197835Y86614
X197835Y90551
X197835Y94488
X201772Y86614
X201772Y90551
X201772Y94488
X205709Y86614
X205709Y94488
X209646Y86614
X209646Y94488
X210630Y82677
X210630Y98425
X210630Y114173
X209646Y110236
X209646Y106299
X209646Y102362
X205709Y110236
X205709Y106299
X205709Y102362
X201772Y110236
X201772Y106299
X201772Y102362
X197835Y106299
X197835Y102362
X193898Y102362
X189961Y110236
X186024Y110236
X186024Y106299
X182087Y110236
X182087Y106299
X182087Y102362
X178150Y110236
X178150Y106299
X178150Y102362
X174213Y110236
X174213Y106299
X174213Y102362
X170276Y106299
X170276Y102362
X166339Y102362
X140256Y106299
X135335Y105315
X134843Y116634
X134843Y113681
X130413Y105315
X130413Y102362
X122539Y108760
X93996Y118602
X92028Y106299
X92028Y103346
X91043Y118602
X49213Y115157
X49213Y111220
X49213Y107283
X45276Y115157
X45276Y111220
X45276Y107283
X41339Y115157
X41339Y111220
X41339Y107283
X37402Y115157
X37402Y111220
X37402Y107283
X33465Y115157
X33465Y111220
X33465Y107283
X25591Y118110
X25591Y137795
X33465Y123031
X33465Y126969
X33465Y130906
X33465Y134843
X37402Y123031
X37402Y126969
X37402Y130906
X37402Y134843
X41339Y123031
X41339Y126969
X41339Y130906
X41339Y134843
X45276Y123031
X45276Y126969
X45276Y130906
X45276Y134843
X49213Y123031
X49213Y126969
X49213Y130906
X49213Y134843
X88091Y139272
X97933Y129429
X100886Y129429
X104331Y134350
X104331Y137303
X116142Y137795
X128445Y132382
X128445Y137303
X131398Y132382
X131398Y137303
X135039Y122244
X135039Y125197
X135827Y139272
X147146Y128937
X147146Y133858
X147146Y138780
X159941Y131398
X159941Y136319
X181102Y139764
X186024Y139764
X189961Y139764
X193898Y139764
X197835Y139764
X201772Y139764
X205709Y139764
X210630Y147638
X209646Y159449
X209646Y155512
X209646Y151575
X205709Y159449
X205709Y155512
X205709Y151575
X205709Y143701
X201772Y159449
X201772Y155512
X201772Y151575
X201772Y143701
X197835Y159449
X197835Y155512
X197835Y151575
X197835Y143701
X193898Y159449
X193898Y155512
X193898Y151575
X193898Y143701
X189961Y155512
X189961Y151575
X189961Y143701
X186024Y151575
X186024Y143701
X159941Y151083
X159941Y146161
X159941Y141240
X147146Y148622
X147146Y143701
X117126Y159941
X117126Y156988
X116142Y140748
X114173Y145669
X111220Y149114
X108268Y149114
X88091Y142224
X80217Y158957
X80217Y156004
X80217Y153051
X49213Y140748
X45276Y144685
X45276Y140748
X41339Y148622
X41339Y144685
X41339Y140748
X37402Y148622
X37402Y144685
X37402Y140748
X33465Y148622
X33465Y144685
X33465Y140748
X28543Y157480
X25591Y157480
X89567Y160433
X103346Y171260
X117126Y165354
X132874Y179626
X160433Y167323
X160433Y171260
X160433Y175197
X160433Y179134
X164370Y167323
X164370Y171260
X164370Y175197
X164370Y179134
X168307Y167323
X168307Y171260
X168307Y175197
X168307Y179134
X172244Y167323
X172244Y171260
X172244Y175197
X172244Y179134
X180118Y167323
X180118Y171260
X180118Y175197
X180118Y179134
X184055Y171260
X184055Y175197
X184055Y179134
X187992Y175197
X187992Y179134
X197835Y167323
X197835Y179134
X201772Y167323
X201772Y171260
X205709Y167323
X205709Y171260
X205709Y175197
X209646Y167323
X209646Y171260
X209646Y175197
X210630Y163386
X210630Y179134
X209646Y198819
X209646Y194882
X209646Y190945
X209646Y187008
X205709Y198819
X205709Y194882
X205709Y190945
X205709Y187008
X205709Y183071
X201772Y198819
X201772Y194882
X201772Y190945
X201772Y187008
X201772Y183071
X197835Y198819
X197835Y194882
X197835Y190945
X197835Y187008
X197835Y183071
X187992Y198819
X187992Y194882
X187992Y190945
X187992Y187008
X187992Y183071
X184055Y198819
X184055Y194882
X184055Y190945
X184055Y187008
X184055Y183071
X180118Y198819
X180118Y194882
X180118Y190945
X180118Y187008
X180118Y183071
X172244Y198819
X172244Y194882
X172244Y190945
X172244Y187008
X172244Y183071
X168307Y198819
X168307Y194882
X168307Y190945
X168307Y187008
X168307Y183071
X164370Y198819
X164370Y194882
X164370Y190945
X164370Y187008
X164370Y183071
X160433Y198819
X160433Y194882
X160433Y190945
X160433Y187008
X160433Y183071
X90551Y198819
X90551Y194882
X90551Y190945
X86614Y198819
X86614Y194882
X86614Y190945
X82677Y198819
X82677Y194882
X82677Y190945
X78740Y198819
X78740Y194882
X78740Y190945
X74803Y198819
X74803Y194882
X74803Y190945
X70866Y198819
X70866Y194882
X70866Y190945
X66929Y198819
X66929Y194882
X66929Y190945
X62992Y198819
X62992Y194882
X62992Y190945
X59055Y198819
X59055Y194882
X59055Y190945
X55118Y198819
X55118Y194882
X55118Y190945
X49213Y198819
X49213Y194882
X49213Y190945
X45276Y198819
X45276Y194882
X45276Y190945
X41339Y198819
X41339Y194882
X41339Y190945
X37402Y198819
X37402Y194882
X37402Y190945
X33465Y198819
X33465Y194882
X33465Y190945
X33465Y202756
X33465Y206693
X37402Y202756
X37402Y206693
X41339Y202756
X41339Y206693
X45276Y202756
X45276Y206693
X49213Y202756
X49213Y206693
X52165Y210630
X55118Y202756
X55118Y206693
X59055Y202756
X59055Y206693
X62992Y202756
X62992Y206693
X66929Y202756
X66929Y206693
X70866Y202756
X70866Y206693
X74803Y202756
X74803Y206693
X78740Y202756
X78740Y206693
X78740Y210630
X82677Y202756
X82677Y206693
X86614Y202756
X86614Y206693
X90551Y202756
X90551Y206693
X132874Y207677
X160433Y202756
X160433Y206693
X164370Y202756
X164370Y206693
X168307Y202756
X168307Y206693
X172244Y202756
X172244Y206693
X176181Y210630
X180118Y202756
X180118Y206693
X184055Y202756
X184055Y206693
X187992Y202756
X187992Y206693
X191929Y210630
X197835Y202756
X197835Y206693
X201772Y202756
X201772Y206693
X205709Y202756
X205709Y206693
X209646Y202756
X209646Y206693
T04
X15748Y15748
X220472Y15748
X220472Y220472
X15748Y220472
M30
